SplineFontDB: 3.2
FontName: IRMitra
FullName: IRMitra
FamilyName: IRMitra
Weight: Book
Copyright: Copyright (c) 2022, Information Technology Organization of Iran (ito.gov.ir)
Version: 1.000
ItalicAngle: 0
UnderlinePosition: -730
UnderlineWidth: 60
Ascent: 1638
Descent: 410
InvalidEm: 0
sfntRevision: 0x00010000
LayerCount: 2
Layer: 0 1 "Back" 1
Layer: 1 1 "Fore" 0
XUID: [1021 420 722297922 6419145]
StyleMap: 0x0040
FSType: 0
OS2Version: 3
OS2_WeightWidthSlopeOnly: 0
OS2_UseTypoMetrics: 0
CreationTime: 1356343363
ModificationTime: 1662628602
PfmFamily: 17
TTFWeight: 400
TTFWidth: 5
LineGap: 100
VLineGap: 0
Panose: 2 0 5 6 0 0 0 2 0 2
OS2TypoAscent: 1896
OS2TypoAOffset: 0
OS2TypoDescent: -959
OS2TypoDOffset: 0
OS2TypoLinegap: 300
OS2WinAscent: 1896
OS2WinAOffset: 0
OS2WinDescent: 959
OS2WinDOffset: 0
HheadAscent: 1896
HheadAOffset: 0
HheadDescent: -959
HheadDOffset: 0
OS2SubXSize: 1434
OS2SubYSize: 1331
OS2SubXOff: 0
OS2SubYOff: 293
OS2SupXSize: 1434
OS2SupYSize: 1331
OS2SupXOff: 0
OS2SupYOff: 928
OS2StrikeYSize: 50
OS2StrikeYPos: 250
OS2CapHeight: -1
OS2XHeight: -1
OS2FamilyClass: 2048
OS2Vendor: 'PARS'
OS2CodePages: 20000041.00000000
OS2UnicodeRanges: 00002003.00000000.00000000.00000000
Lookup: 1 1 0 "'isol' Isolated Forms in Arabic lookup 0" { "'isol' Isolated Forms in Arabic lookup 0 subtable"  } ['isol' ('arab' <'dflt' > ) ]
Lookup: 1 1 0 "'init' Initial Forms in Arabic lookup 1" { "'init' Initial Forms in Arabic lookup 1 subtable"  } ['init' ('arab' <'dflt' > ) ]
Lookup: 1 1 0 "'medi' Medial Forms in Arabic lookup 2" { "'medi' Medial Forms in Arabic lookup 2 subtable"  } ['medi' ('arab' <'dflt' > ) ]
Lookup: 1 1 0 "'fina' Terminal Forms in Arabic lookup 3" { "'fina' Terminal Forms in Arabic lookup 3 subtable"  } ['fina' ('arab' <'dflt' > ) ]
Lookup: 4 1 0 "'ccmp' Glyph Composition/Decomposition in Arabic lookup 4" { "'ccmp' Glyph Composition/Decomposition in Arabic lookup 4 subtable"  } ['ccmp' ('arab' <'dflt' > ) ]

StartChar: quotedbl
Encoding: 34 34 1
Width: 422
Flags: W
LayerCount: 2
Fore
SplineSet
69 1166 m 1,0,-1
 158 1166 l 1,1,-1
 139 883 l 1,2,-1
 79 883 l 1,3,-1
 69 1166 l 1,0,-1
256 1166 m 1,4,-1
 345 1166 l 1,5,-1
 326 883 l 1,6,-1
 267 883 l 1,7,-1
 256 1166 l 1,4,-1
EndSplineSet
EndChar

StartChar: numbersign
Encoding: 35 35 2
Width: 1259
Flags: W
LayerCount: 2
Fore
SplineSet
1139 788 m 1,0,-1
 891 788 l 1,1,-1
 813 470 l 1,2,-1
 1040 470 l 1,3,-1
 1040 356 l 1,4,-1
 783 356 l 1,5,-1
 695 0 l 1,6,-1
 586 0 l 1,7,-1
 675 356 l 1,8,-1
 446 356 l 1,9,-1
 358 0 l 1,10,-1
 250 0 l 1,11,-1
 338 356 l 1,12,-1
 120 356 l 1,13,-1
 120 470 l 1,14,-1
 368 470 l 1,15,-1
 445 788 l 1,16,-1
 219 788 l 1,17,-1
 219 901 l 1,18,-1
 475 901 l 1,19,-1
 564 1258 l 1,20,-1
 673 1258 l 1,21,-1
 584 901 l 1,22,-1
 812 901 l 1,23,-1
 900 1258 l 1,24,-1
 1010 1258 l 1,25,-1
 921 901 l 1,26,-1
 1139 901 l 1,27,-1
 1139 788 l 1,0,-1
784 789 m 1,28,-1
 553 789 l 1,29,-1
 474 468 l 1,30,-1
 706 468 l 1,31,-1
 784 789 l 1,28,-1
EndSplineSet
EndChar

StartChar: dollar
Encoding: 36 36 3
Width: 944
Flags: W
LayerCount: 2
Fore
SplineSet
865 321 m 0,0,1
 865 197 865 197 770 108 c 128,-1,2
 675 19 675 19 530 1 c 1,3,-1
 530 -305 l 1,4,-1
 434 -305 l 1,5,-1
 434 -3 l 1,6,7
 344 -2 344 -2 251 18 c 128,-1,8
 158 38 158 38 90 72 c 1,9,-1
 90 243 l 1,10,-1
 103 243 l 1,11,12
 169 192 169 192 252.5 161 c 128,-1,13
 336 130 336 130 434 122 c 1,14,-1
 434 487 l 1,15,16
 413 492 413 492 382.5 499 c 128,-1,17
 352 506 352 506 331 514 c 0,18,19
 204 547 204 547 149.5 617 c 128,-1,20
 95 687 95 687 95 790 c 0,21,22
 95 910 95 910 189 999 c 128,-1,23
 283 1088 283 1088 434 1101 c 1,24,-1
 434 1332 l 1,25,-1
 530 1332 l 1,26,-1
 530 1103 l 1,27,28
 607 1100 607 1100 689.5 1081.5 c 128,-1,29
 772 1063 772 1063 825 1040 c 1,30,-1
 825 873 l 1,31,-1
 812 873 l 1,32,33
 753 914 753 914 682.5 943.5 c 128,-1,34
 612 973 612 973 530 981 c 1,35,-1
 530 617 l 1,36,37
 559 612 559 612 582.5 605.5 c 128,-1,38
 606 599 606 599 624 594 c 0,39,40
 739 568 739 568 802 501 c 128,-1,41
 865 434 865 434 865 321 c 0,0,1
434 631 m 1,42,-1
 434 980 l 1,43,44
 358 973 358 973 306.5 930.5 c 128,-1,45
 255 888 255 888 255 812 c 0,46,47
 255 737 255 737 292.5 696 c 128,-1,48
 330 655 330 655 434 631 c 1,42,-1
706 299 m 0,49,50
 706 378 706 378 665 416 c 128,-1,51
 624 454 624 454 530 474 c 1,52,-1
 530 124 l 1,53,54
 616 133 616 133 661 175.5 c 128,-1,55
 706 218 706 218 706 299 c 0,49,50
EndSplineSet
EndChar

StartChar: percent
Encoding: 37 37 4
Width: 1442
Flags: W
LayerCount: 2
Fore
SplineSet
1175 1172 m 1,0,-1
 340 -48 l 1,1,-1
 265 -48 l 1,2,-1
 1099 1172 l 1,3,-1
 1175 1172 l 1,0,-1
306 1172 m 0,4,5
 420 1172 420 1172 483 1077 c 128,-1,6
 546 982 546 982 546 859 c 0,7,8
 546 713 546 713 475 632.5 c 128,-1,9
 404 552 404 552 305 552 c 0,10,11
 238 552 238 552 182.5 589 c 128,-1,12
 127 626 127 626 93.5 698.5 c 128,-1,13
 60 771 60 771 60 859 c 0,14,15
 60 948 60 948 94 1023 c 128,-1,16
 128 1098 128 1098 186.5 1135 c 128,-1,17
 245 1172 245 1172 306 1172 c 0,4,5
304 1124 m 0,18,19
 261 1124 261 1124 227.5 1073.5 c 128,-1,20
 194 1023 194 1023 194 861 c 0,21,22
 194 743 194 743 212 683 c 0,23,24
 228 636 228 636 257 611 c 0,25,26
 276 594 276 594 300 594 c 0,27,28
 342 594 342 594 371 638 c 0,29,30
 413 704 413 704 413 855 c 0,31,32
 413 1016 413 1016 372 1081 c 0,33,34
 345 1124 345 1124 304 1124 c 0,18,19
1137 568 m 0,35,36
 1196 568 1196 568 1255 530 c 128,-1,37
 1314 492 1314 492 1347 420 c 128,-1,38
 1380 348 1380 348 1380 260 c 0,39,40
 1380 111 1380 111 1308 31.5 c 128,-1,41
 1236 -48 1236 -48 1139 -48 c 0,42,43
 1077 -48 1077 -48 1019 -9.5 c 128,-1,44
 961 29 961 29 928 99.5 c 128,-1,45
 895 170 895 170 895 260 c 0,46,47
 895 348 895 348 928 422 c 128,-1,48
 961 496 961 496 1019 532 c 128,-1,49
 1077 568 1077 568 1137 568 c 0,35,36
1138 524 m 0,50,51
 1096 524 1096 524 1067 478 c 0,52,53
 1028 420 1028 420 1028 254 c 0,54,55
 1028 104 1028 104 1068 43 c 0,56,57
 1097 0 1097 0 1139 0 c 0,58,59
 1176 0 1176 0 1206 46 c 0,60,61
 1247 108 1247 108 1247 258 c 0,62,63
 1247 418 1247 418 1206 481 c 0,64,65
 1179 524 1179 524 1138 524 c 0,50,51
EndSplineSet
EndChar

StartChar: ampersand
Encoding: 38 38 5
Width: 1345
Flags: W
LayerCount: 2
Fore
SplineSet
883 737 m 1,0,-1
 1237 737 l 1,1,-1
 1237 707 l 1,2,3
 1164 700 1164 700 1129 673.5 c 128,-1,4
 1094 647 1094 647 1020 512.5 c 128,-1,5
 946 378 946 378 852 262 c 1,6,7
 927 175 927 175 986 139.5 c 128,-1,8
 1045 104 1045 104 1106 104 c 0,9,10
 1164 104 1164 104 1204.5 135.5 c 128,-1,11
 1245 167 1245 167 1261 229 c 1,12,-1
 1293 206 l 1,13,14
 1261 86 1261 86 1192 29.5 c 128,-1,15
 1123 -27 1123 -27 1032 -27 c 0,16,17
 962 -27 962 -27 891 11 c 128,-1,18
 820 49 820 49 735 138 c 1,19,20
 631 45 631 45 547 9 c 128,-1,21
 463 -27 463 -27 367 -27 c 0,22,23
 228 -27 228 -27 145.5 48 c 128,-1,24
 63 123 63 123 63 226 c 0,25,26
 63 327 63 327 136.5 429 c 128,-1,27
 210 531 210 531 413 640 c 1,28,29
 373 729 373 729 359 785 c 128,-1,30
 345 841 345 841 345 893 c 0,31,32
 345 1037 345 1037 451 1113 c 0,33,34
 535 1172 535 1172 640 1172 c 0,35,36
 740 1172 740 1172 803.5 1112.5 c 128,-1,37
 867 1053 867 1053 867 965 c 0,38,39
 867 876 867 876 806 808.5 c 128,-1,40
 745 741 745 741 589 661 c 1,41,42
 696 470 696 470 813 310 c 1,43,44
 961 488 961 488 961 611 c 0,45,46
 961 648 961 648 936 679 c 0,47,48
 918 703 918 703 883 707 c 1,49,-1
 883 737 l 1,0,-1
560 716 m 1,50,51
 665 766 665 766 717 829.5 c 128,-1,52
 769 893 769 893 769 970 c 0,53,54
 769 1031 769 1031 731.5 1070.5 c 128,-1,55
 694 1110 694 1110 637 1110 c 0,56,57
 564 1110 564 1110 526.5 1058.5 c 128,-1,58
 489 1007 489 1007 489 959 c 0,59,60
 489 918 489 918 503 866.5 c 128,-1,61
 517 815 517 815 560 716 c 1,50,51
690 188 m 1,62,63
 580 340 580 340 536.5 409.5 c 128,-1,64
 493 479 493 479 442 584 c 1,65,66
 340 526 340 526 289.5 456 c 128,-1,67
 239 386 239 386 239 303 c 0,68,69
 239 213 239 213 297 144.5 c 128,-1,70
 355 76 355 76 454 76 c 0,71,72
 507 76 507 76 556.5 97 c 128,-1,73
 606 118 606 118 690 188 c 1,62,63
EndSplineSet
EndChar

StartChar: quotesingle
Encoding: 39 39 6
Width: 338
Flags: W
LayerCount: 2
Fore
SplineSet
125 1166 m 1,0,-1
 214 1166 l 1,1,-1
 194 883 l 1,2,-1
 136 883 l 1,3,-1
 125 1166 l 1,0,-1
EndSplineSet
EndChar

StartChar: asterisk
Encoding: 42 42 7
Width: 681
Flags: W
LayerCount: 2
Fore
SplineSet
378 627 m 1,0,-1
 378 501 l 2,1,2
 378 488 378 488 371 479.5 c 128,-1,3
 364 471 364 471 351 471 c 2,4,-1
 306 471 l 2,5,6
 299 471 299 471 290 479.5 c 128,-1,7
 281 488 281 488 281 501 c 2,8,-1
 281 627 l 1,9,-1
 194 539 l 1,10,11
 170 523 170 523 144 539 c 1,12,-1
 117 568 l 2,13,14
 101 588 101 588 122 611 c 2,15,-1
 211 701 l 1,16,-1
 84 701 l 2,17,18
 72 701 72 701 61 709 c 128,-1,19
 50 717 50 717 50 731 c 2,20,-1
 50 775 l 2,21,22
 50 784 50 784 61 792 c 128,-1,23
 72 800 72 800 84 800 c 2,24,-1
 203 800 l 1,25,-1
 117 889 l 2,26,27
 105 899 105 899 104 912 c 128,-1,28
 103 925 103 925 112 937 c 2,29,-1
 144 964 l 2,30,31
 153 973 153 973 164 972.5 c 128,-1,32
 175 972 175 972 186 959 c 2,33,-1
 281 867 l 1,34,-1
 281 1004 l 2,35,36
 281 1015 281 1015 290 1025 c 128,-1,37
 299 1035 299 1035 306 1035 c 2,38,-1
 351 1035 l 2,39,40
 364 1035 364 1035 371 1025 c 128,-1,41
 378 1015 378 1015 378 1004 c 2,42,-1
 378 872 l 1,43,-1
 473 964 l 2,44,45
 483 977 483 977 493.5 978 c 128,-1,46
 504 979 504 979 521 972 c 1,47,-1
 544 937 l 1,48,49
 554 930 554 930 554 919 c 128,-1,50
 554 908 554 908 542 894 c 2,51,-1
 451 800 l 1,52,-1
 588 800 l 2,53,54
 597 800 597 800 607.5 792 c 128,-1,55
 618 784 618 784 618 775 c 2,56,-1
 618 731 l 2,57,58
 618 717 618 717 607.5 709 c 128,-1,59
 597 701 597 701 588 701 c 2,60,-1
 444 701 l 1,61,-1
 542 611 l 1,62,63
 559 588 559 588 542 561 c 1,64,-1
 516 533 l 1,65,66
 495 517 495 517 473 539 c 2,67,-1
 378 627 l 1,0,-1
EndSplineSet
EndChar

StartChar: plus
Encoding: 43 43 8
Width: 873
Flags: W
LayerCount: 2
Fore
SplineSet
387 121 m 1,0,-1
 387 396 l 1,1,-1
 113 396 l 1,2,-1
 113 503 l 1,3,-1
 387 503 l 1,4,-1
 387 778 l 1,5,-1
 495 778 l 1,6,-1
 495 503 l 1,7,-1
 769 503 l 1,8,-1
 769 396 l 1,9,-1
 495 396 l 1,10,-1
 495 121 l 1,11,-1
 387 121 l 1,0,-1
EndSplineSet
EndChar

StartChar: hyphen
Encoding: 45 45 9
Width: 860
Flags: W
LayerCount: 2
Fore
SplineSet
769 396 m 1,0,-1
 113 396 l 1,1,-1
 113 503 l 1,2,-1
 769 503 l 1,3,-1
 769 396 l 1,0,-1
EndSplineSet
EndChar

StartChar: period
Encoding: 46 46 10
Width: 420
Flags: W
LayerCount: 2
Fore
SplineSet
378 96 m 256,0,1
 378 55 378 55 349.5 26.5 c 128,-1,2
 321 -2 321 -2 280 -2 c 0,3,4
 260 -2 260 -2 242.5 5.5 c 128,-1,5
 225 13 225 13 211.5 26.5 c 128,-1,6
 198 40 198 40 190 58 c 128,-1,7
 182 76 182 76 182 96 c 256,8,9
 182 116 182 116 190 134 c 128,-1,10
 198 152 198 152 211.5 165.5 c 128,-1,11
 225 179 225 179 242.5 186.5 c 128,-1,12
 260 194 260 194 280 194 c 0,13,14
 321 194 321 194 349.5 165.5 c 128,-1,15
 378 137 378 137 378 96 c 256,0,1
EndSplineSet
EndChar

StartChar: slash
Encoding: 47 47 11
Width: 764
Flags: W
LayerCount: 2
Fore
SplineSet
599 1045 m 1,0,-1
 211 -150 l 1,1,-1
 111 -150 l 1,2,-1
 499 1045 l 1,3,-1
 599 1045 l 1,0,-1
EndSplineSet
EndChar

StartChar: zero
Encoding: 48 48 12
Width: 865
Flags: W
LayerCount: 2
Fore
SplineSet
62 566 m 0,0,1
 62 762 62 762 121 903.5 c 128,-1,2
 180 1045 180 1045 278 1114 c 0,3,4
 355 1169 355 1169 436 1169 c 0,5,6
 568 1169 568 1169 673 1035 c 0,7,8
 804 868 804 868 804 584 c 0,9,10
 804 384 804 384 746 245 c 128,-1,11
 688 106 688 106 599 43 c 128,-1,12
 510 -20 510 -20 428 -20 c 0,13,14
 264 -20 264 -20 155 173 c 0,15,16
 62 336 62 336 62 566 c 0,0,1
228 545 m 0,17,18
 228 308 228 308 286 158 c 0,19,20
 335 33 335 33 430 33 c 0,21,22
 475 33 475 33 524 74 c 128,-1,23
 573 115 573 115 599 211 c 0,24,25
 637 357 637 357 637 621 c 0,26,27
 637 817 637 817 598 948 c 0,28,29
 567 1045 567 1045 518 1086 c 0,30,31
 484 1113 484 1113 435 1113 c 0,32,33
 378 1113 378 1113 332 1063 c 0,34,35
 273 992 273 992 250.5 841 c 128,-1,36
 228 690 228 690 228 545 c 0,17,18
EndSplineSet
EndChar

StartChar: one
Encoding: 49 49 13
Width: 865
Flags: W
LayerCount: 2
Fore
SplineSet
203 1033 m 1,0,-1
 482 1169 l 1,1,-1
 509 1169 l 1,2,-1
 509 202 l 2,3,4
 509 106 509 106 517.5 82.5 c 128,-1,5
 526 59 526 59 551.5 46 c 128,-1,6
 577 33 577 33 654 32 c 1,7,-1
 654 0 l 1,8,-1
 223 0 l 1,9,-1
 223 32 l 1,10,11
 304 33 304 33 327.5 45 c 128,-1,12
 351 57 351 57 360.5 78 c 128,-1,13
 370 99 370 99 370 202 c 2,14,-1
 370 821 l 2,15,16
 370 946 370 946 361 981 c 0,17,18
 356 1007 356 1007 340 1020 c 128,-1,19
 324 1033 324 1033 302 1033 c 0,20,21
 272 1033 272 1033 215 1007 c 1,22,-1
 203 1033 l 1,0,-1
EndSplineSet
EndChar

StartChar: two
Encoding: 50 50 14
Width: 865
Flags: W
LayerCount: 2
Fore
SplineSet
793 221 m 1,0,-1
 713 0 l 1,1,-1
 36 0 l 1,2,-1
 36 32 l 1,3,4
 336 303 336 303 457.5 475.5 c 128,-1,5
 579 648 579 648 579 791 c 0,6,7
 579 900 579 900 512 970 c 128,-1,8
 445 1040 445 1040 352 1040 c 0,9,10
 268 1040 268 1040 200.5 990.5 c 128,-1,11
 133 941 133 941 102 846 c 1,12,-1
 70 846 l 1,13,14
 91 1002 91 1002 178.5 1085.5 c 128,-1,15
 266 1169 266 1169 397 1169 c 0,16,17
 537 1169 537 1169 630.5 1080 c 128,-1,18
 724 991 724 991 724 868 c 0,19,20
 724 781 724 781 683 695 c 0,21,22
 620 558 620 558 479 404 c 0,23,24
 269 176 269 176 218 128 c 1,25,-1
 516 128 l 2,26,27
 607 128 607 128 644.5 134.5 c 128,-1,28
 682 141 682 141 711 161.5 c 128,-1,29
 740 182 740 182 762 221 c 1,30,-1
 793 221 l 1,0,-1
EndSplineSet
EndChar

StartChar: three
Encoding: 51 51 15
Width: 865
Flags: W
LayerCount: 2
Fore
SplineSet
87 927 m 1,0,1
 137 1044 137 1044 211.5 1106.5 c 128,-1,2
 286 1169 286 1169 398 1169 c 0,3,4
 536 1169 536 1169 610 1079 c 0,5,6
 665 1013 665 1013 665 937 c 0,7,8
 665 812 665 812 508 678 c 1,9,10
 613 636 613 636 667 560 c 128,-1,11
 721 484 721 484 721 379 c 0,12,13
 721 230 721 230 627 122 c 0,14,15
 504 -20 504 -20 269 -20 c 0,16,17
 155 -20 155 -20 112.5 8 c 128,-1,18
 70 36 70 36 70 70 c 0,19,20
 70 95 70 95 89.5 113.5 c 128,-1,21
 109 132 109 132 137 132 c 0,22,23
 158 132 158 132 180 125 c 0,24,25
 196 120 196 120 246.5 93.5 c 128,-1,26
 297 67 297 67 316 62 c 0,27,28
 348 53 348 53 382 53 c 0,29,30
 468 53 468 53 532 120 c 128,-1,31
 596 187 596 187 596 277 c 0,32,33
 596 345 596 345 567 408 c 0,34,35
 545 455 545 455 518 479 c 0,36,37
 483 514 483 514 419.5 541 c 128,-1,38
 356 568 356 568 289 568 c 2,39,-1
 263 568 l 1,40,-1
 263 593 l 1,41,42
 329 602 329 602 396.5 642.5 c 128,-1,43
 464 683 464 683 494.5 738 c 128,-1,44
 525 793 525 793 525 859 c 0,45,46
 525 948 525 948 470.5 1001 c 128,-1,47
 416 1054 416 1054 335 1054 c 0,48,49
 204 1054 204 1054 116 915 c 1,50,-1
 87 927 l 1,0,1
EndSplineSet
EndChar

StartChar: four
Encoding: 52 52 16
Width: 865
Flags: W
LayerCount: 2
Fore
SplineSet
804 422 m 1,0,-1
 804 302 l 1,1,-1
 652 302 l 1,2,-1
 652 0 l 1,3,-1
 512 0 l 1,4,-1
 512 302 l 1,5,-1
 28 302 l 1,6,-1
 28 411 l 1,7,-1
 559 1169 l 1,8,-1
 652 1169 l 1,9,-1
 652 422 l 1,10,-1
 804 422 l 1,0,-1
512 422 m 1,11,-1
 512 991 l 1,12,-1
 109 422 l 1,13,-1
 512 422 l 1,11,-1
EndSplineSet
EndChar

StartChar: five
Encoding: 53 53 17
Width: 865
Flags: W
LayerCount: 2
Fore
SplineSet
751 1145 m 1,0,-1
 685 1002 l 1,1,-1
 340 1002 l 1,2,-1
 265 848 l 1,3,4
 489 815 489 815 620 683 c 0,5,6
 732 567 732 567 732 412 c 0,7,8
 732 321 732 321 695.5 244 c 128,-1,9
 659 167 659 167 603 113.5 c 128,-1,10
 547 60 547 60 479 27 c 0,11,12
 382 -20 382 -20 279 -20 c 0,13,14
 177 -20 177 -20 130 15 c 128,-1,15
 83 50 83 50 83 92 c 0,16,17
 83 116 83 116 102.5 134 c 128,-1,18
 122 152 122 152 151 152 c 0,19,20
 173 152 173 152 189.5 145 c 128,-1,21
 206 138 206 138 246 111 c 0,22,23
 309 66 309 66 373 66 c 0,24,25
 473 66 473 66 548 141.5 c 128,-1,26
 623 217 623 217 623 324 c 0,27,28
 623 428 623 428 556 517.5 c 128,-1,29
 489 607 489 607 372 657 c 0,30,31
 279 695 279 695 120 700 c 1,32,-1
 340 1145 l 1,33,-1
 751 1145 l 1,0,-1
EndSplineSet
EndChar

StartChar: six
Encoding: 54 54 18
Width: 865
Flags: W
LayerCount: 2
Fore
SplineSet
775 1169 m 1,0,-1
 775 1139 l 1,1,2
 664 1127 664 1127 593 1093.5 c 128,-1,3
 522 1060 522 1060 454 991.5 c 128,-1,4
 386 923 386 923 340.5 839.5 c 128,-1,5
 295 756 295 756 264 640 c 1,6,7
 387 724 387 724 509 724 c 0,8,9
 626 724 626 724 712.5 629.5 c 128,-1,10
 799 535 799 535 799 386 c 0,11,12
 799 242 799 242 711 124 c 0,13,14
 606 -20 606 -20 434 -20 c 0,15,16
 317 -20 317 -20 234 57 c 0,17,18
 74 209 74 209 74 450 c 0,19,20
 74 603 74 603 136 741.5 c 128,-1,21
 198 880 198 880 312 987.5 c 128,-1,22
 426 1095 426 1095 531 1132 c 128,-1,23
 636 1169 636 1169 727 1169 c 2,24,-1
 775 1169 l 1,0,-1
251 578 m 1,25,26
 234 464 234 464 234 394 c 0,27,28
 234 313 234 313 264.5 218 c 128,-1,29
 295 123 295 123 354 66 c 0,30,31
 397 28 397 28 458 28 c 0,32,33
 532 28 532 28 590 97 c 128,-1,34
 648 166 648 166 648 294 c 0,35,36
 648 439 648 439 590.5 544 c 128,-1,37
 533 649 533 649 428 649 c 0,38,39
 395 649 395 649 358.5 636 c 128,-1,40
 322 623 322 623 251 578 c 1,25,26
EndSplineSet
EndChar

StartChar: seven
Encoding: 55 55 19
Width: 865
Flags: W
LayerCount: 2
Fore
SplineSet
175 1145 m 1,0,-1
 788 1145 l 1,1,-1
 788 1113 l 1,2,-1
 407 -23 l 1,3,-1
 311 -23 l 1,4,-1
 654 1007 l 1,5,-1
 339 1007 l 2,6,7
 243 1007 243 1007 203 985 c 0,8,9
 132 947 132 947 88 865 c 1,10,-1
 64 875 l 1,11,-1
 175 1145 l 1,0,-1
EndSplineSet
EndChar

StartChar: eight
Encoding: 56 56 20
Width: 865
Flags: W
LayerCount: 2
Fore
SplineSet
331 577 m 1,0,1
 197 688 197 688 157 756 c 128,-1,2
 117 824 117 824 117 897 c 0,3,4
 117 1007 117 1007 203 1088 c 128,-1,5
 289 1169 289 1169 433 1169 c 0,6,7
 571 1169 571 1169 655.5 1094 c 128,-1,8
 740 1019 740 1019 740 923 c 0,9,10
 740 858 740 858 694 791.5 c 128,-1,11
 648 725 648 725 505 635 c 1,12,13
 653 519 653 519 701 454 c 0,14,15
 766 368 766 368 766 273 c 0,16,17
 766 151 766 151 673.5 65.5 c 128,-1,18
 581 -20 581 -20 432 -20 c 0,19,20
 268 -20 268 -20 178 83 c 0,21,22
 105 163 105 163 105 261 c 0,23,24
 105 337 105 337 156 412 c 128,-1,25
 207 487 207 487 331 577 c 1,0,1
465 667 m 1,26,27
 566 758 566 758 593 811 c 128,-1,28
 620 864 620 864 620 931 c 0,29,30
 620 1020 620 1020 570 1070 c 128,-1,31
 520 1120 520 1120 434 1120 c 256,32,33
 348 1120 348 1120 294 1070 c 128,-1,34
 240 1020 240 1020 240 953 c 0,35,36
 240 910 240 910 262.5 866 c 128,-1,37
 285 822 285 822 326 782 c 1,38,-1
 465 667 l 1,26,27
372 545 m 1,39,40
 302 486 302 486 268 416.5 c 128,-1,41
 234 347 234 347 234 265 c 0,42,43
 234 156 234 156 293 90.5 c 128,-1,44
 352 25 352 25 445 25 c 0,45,46
 537 25 537 25 591.5 77 c 128,-1,47
 646 129 646 129 646 202 c 0,48,49
 646 263 646 263 614 310 c 0,50,51
 554 400 554 400 372 545 c 1,39,40
EndSplineSet
EndChar

StartChar: nine
Encoding: 57 57 21
Width: 865
Flags: W
LayerCount: 2
Fore
SplineSet
91 -23 m 1,0,-1
 91 8 l 1,1,2
 201 10 201 10 296 59 c 128,-1,3
 391 108 391 108 479 231.5 c 128,-1,4
 567 355 567 355 602 503 c 1,5,6
 468 418 468 418 361 418 c 0,7,8
 241 418 241 418 154.5 511 c 128,-1,9
 68 604 68 604 68 758 c 0,10,11
 68 909 68 909 155 1026 c 0,12,13
 258 1169 258 1169 425 1169 c 0,14,15
 567 1169 567 1169 667 1053 c 0,16,17
 791 908 791 908 791 696 c 0,18,19
 791 505 791 505 697 340.5 c 128,-1,20
 603 176 603 176 436 65 c 0,21,22
 300 -23 300 -23 139 -23 c 2,23,-1
 91 -23 l 1,0,-1
614 564 m 1,24,25
 631 675 631 675 631 741 c 0,26,27
 631 823 631 823 602.5 918 c 128,-1,28
 574 1013 574 1013 523 1063.5 c 128,-1,29
 472 1114 472 1114 408 1114 c 0,30,31
 331 1114 331 1114 275 1046.5 c 128,-1,32
 219 979 219 979 219 846 c 0,33,34
 219 667 219 667 294 567 c 0,35,36
 348 494 348 494 429 494 c 0,37,38
 468 494 468 494 521 512.5 c 128,-1,39
 574 531 574 531 614 564 c 1,24,25
EndSplineSet
EndChar

StartChar: less
Encoding: 60 60 22
Width: 1117
Flags: W
LayerCount: 2
Fore
SplineSet
955 58 m 1,0,-1
 150 444 l 1,1,-1
 150 534 l 1,2,-1
 955 918 l 1,3,-1
 955 784 l 1,4,-1
 331 489 l 1,5,-1
 955 192 l 1,6,-1
 955 58 l 1,0,-1
EndSplineSet
EndChar

StartChar: equal
Encoding: 61 61 23
Width: 1043
Flags: W
LayerCount: 2
Fore
SplineSet
900 560 m 1,0,-1
 154 560 l 1,1,-1
 154 682 l 1,2,-1
 900 682 l 1,3,-1
 900 560 l 1,0,-1
900 289 m 1,4,-1
 154 289 l 1,5,-1
 154 411 l 1,6,-1
 900 411 l 1,7,-1
 900 289 l 1,4,-1
EndSplineSet
EndChar

StartChar: greater
Encoding: 62 62 24
Width: 1117
Flags: W
LayerCount: 2
Fore
SplineSet
966 444 m 1,0,-1
 160 58 l 1,1,-1
 160 192 l 1,2,-1
 786 489 l 1,3,-1
 160 784 l 1,4,-1
 160 918 l 1,5,-1
 966 534 l 1,6,-1
 966 444 l 1,0,-1
EndSplineSet
EndChar

StartChar: question
Encoding: 63 63 25
Width: 768
Flags: W
LayerCount: 2
Fore
SplineSet
383 271 m 1,0,-1
 348 271 l 1,1,2
 355 377 355 377 375.5 446.5 c 128,-1,3
 396 516 396 516 462 640 c 0,4,5
 512 736 512 736 527 787 c 128,-1,6
 542 838 542 838 542 890 c 0,7,8
 542 997 542 997 485.5 1060.5 c 128,-1,9
 429 1124 429 1124 346 1124 c 0,10,11
 273 1124 273 1124 230.5 1089.5 c 128,-1,12
 188 1055 188 1055 188 1015 c 0,13,14
 188 983 188 983 213.5 938 c 128,-1,15
 239 893 239 893 239 868 c 0,16,17
 239 838 239 838 219.5 817 c 128,-1,18
 200 796 200 796 171 796 c 0,19,20
 136 796 136 796 107 831.5 c 128,-1,21
 78 867 78 867 78 929 c 0,22,23
 78 1024 78 1024 160 1098 c 128,-1,24
 242 1172 242 1172 382 1172 c 0,25,26
 556 1172 556 1172 637 1070 c 0,27,28
 699 996 699 996 699 906 c 0,29,30
 699 844 699 844 671.5 779 c 128,-1,31
 644 714 644 714 567 626 c 0,32,33
 444 488 444 488 417 430 c 128,-1,34
 390 372 390 372 383 271 c 1,0,-1
372 166 m 256,35,36
 412 166 412 166 439.5 138.5 c 128,-1,37
 467 111 467 111 467 71 c 0,38,39
 467 32 467 32 439 4.5 c 128,-1,40
 411 -23 411 -23 372 -23 c 0,41,42
 332 -23 332 -23 304.5 4.5 c 128,-1,43
 277 32 277 32 277 71 c 0,44,45
 277 111 277 111 304.5 138.5 c 128,-1,46
 332 166 332 166 372 166 c 256,35,36
EndSplineSet
EndChar

StartChar: at
Encoding: 64 64 26
Width: 1594
Flags: W
LayerCount: 2
Fore
SplineSet
1189 809 m 1,0,-1
 1091 472 l 2,1,2
 1036 283 1036 283 1024 232 c 128,-1,3
 1012 181 1012 181 1012 151 c 0,4,5
 1012 125 1012 125 1030 105.5 c 128,-1,6
 1048 86 1048 86 1075 86 c 0,7,8
 1138 86 1138 86 1224 148 c 128,-1,9
 1310 210 1310 210 1372 349 c 128,-1,10
 1434 488 1434 488 1434 637 c 0,11,12
 1434 782 1434 782 1364.5 904.5 c 128,-1,13
 1295 1027 1295 1027 1167.5 1093 c 128,-1,14
 1040 1159 1040 1159 886 1159 c 0,15,16
 690 1159 690 1159 523.5 1055 c 128,-1,17
 357 951 357 951 259 757 c 128,-1,18
 161 563 161 563 161 352 c 0,19,20
 161 158 161 158 246.5 0 c 128,-1,21
 332 -158 332 -158 488 -240.5 c 128,-1,22
 644 -323 644 -323 823 -323 c 0,23,24
 1045 -323 1045 -323 1224.5 -203.5 c 128,-1,25
 1404 -84 1404 -84 1501 146 c 1,26,-1
 1551 146 l 1,27,28
 1476 -86 1476 -86 1275.5 -229.5 c 128,-1,29
 1075 -373 1075 -373 819 -373 c 0,30,31
 617 -373 617 -373 445 -278 c 128,-1,32
 273 -183 273 -183 178 -8.5 c 128,-1,33
 83 166 83 166 83 375 c 0,34,35
 83 598 83 598 187.5 791 c 128,-1,36
 292 984 292 984 480.5 1093 c 128,-1,37
 669 1202 669 1202 880 1202 c 0,38,39
 1056 1202 1056 1202 1196.5 1129.5 c 128,-1,40
 1337 1057 1337 1057 1411 918.5 c 128,-1,41
 1485 780 1485 780 1485 623 c 0,42,43
 1485 468 1485 468 1415.5 316.5 c 128,-1,44
 1346 165 1346 165 1240 96 c 128,-1,45
 1134 27 1134 27 1018 27 c 0,46,47
 953 27 953 27 921 56.5 c 128,-1,48
 889 86 889 86 889 141 c 0,49,50
 889 189 889 189 904 266 c 1,51,52
 780 115 780 115 704 70 c 128,-1,53
 628 25 628 25 571 25 c 0,54,55
 511 25 511 25 465 79 c 128,-1,56
 419 133 419 133 419 222 c 0,57,58
 419 345 419 345 498.5 496.5 c 128,-1,59
 578 648 578 648 709 745 c 0,60,61
 806 814 806 814 884 814 c 0,62,63
 940 814 940 814 978 785 c 128,-1,64
 1016 756 1016 756 1028 698 c 1,65,-1
 1057 791 l 1,66,-1
 1189 809 l 1,0,-1
894 775 m 0,67,68
 830 775 830 775 764 708 c 0,69,70
 669 611 669 611 602 444 c 0,71,72
 551 322 551 322 551 247 c 0,73,74
 551 194 551 194 581.5 161 c 128,-1,75
 612 128 612 128 648 128 c 0,76,77
 698 128 698 128 751.5 165 c 128,-1,78
 805 202 805 202 864.5 279.5 c 128,-1,79
 924 357 924 357 951 434 c 0,80,81
 999 568 999 568 999 653 c 0,82,83
 999 708 999 708 968 741.5 c 128,-1,84
 937 775 937 775 894 775 c 0,67,68
EndSplineSet
EndChar

StartChar: A
Encoding: 65 65 27
Width: 1249
Flags: W
LayerCount: 2
Fore
SplineSet
792 383 m 1,0,-1
 348 383 l 1,1,-1
 271 203 l 2,2,3
 242 136 242 136 242 104 c 0,4,5
 242 77 242 77 267 56.5 c 128,-1,6
 292 36 292 36 373 32 c 1,7,-1
 373 0 l 1,8,-1
 13 0 l 1,9,-1
 13 32 l 1,10,11
 85 44 85 44 107 64 c 0,12,13
 150 105 150 105 202 229 c 2,14,-1
 605 1172 l 1,15,-1
 635 1172 l 1,16,-1
 1033 219 l 2,17,18
 1081 104 1081 104 1120.5 70 c 128,-1,19
 1160 36 1160 36 1230 32 c 1,20,-1
 1230 0 l 1,21,-1
 779 0 l 1,22,-1
 779 32 l 1,23,24
 847 35 847 35 871 54.5 c 128,-1,25
 895 74 895 74 895 102 c 0,26,27
 895 138 895 138 861 219 c 2,28,-1
 792 383 l 1,0,-1
768 445 m 1,29,-1
 573 909 l 1,30,-1
 373 445 l 1,31,-1
 768 445 l 1,29,-1
EndSplineSet
EndChar

StartChar: B
Encoding: 66 66 28
Width: 1154
Flags: W
LayerCount: 2
Fore
SplineSet
800 585 m 1,0,1
 919 560 919 560 978 504 c 0,2,3
 1059 425 1059 425 1059 314 c 0,4,5
 1059 228 1059 228 1005 150 c 128,-1,6
 951 72 951 72 856.5 36 c 128,-1,7
 762 0 762 0 569 0 c 2,8,-1
 29 0 l 1,9,-1
 29 32 l 1,10,-1
 72 32 l 2,11,12
 144 32 144 32 176 77 c 0,13,14
 194 107 194 107 194 203 c 2,15,-1
 194 943 l 2,16,17
 194 1049 194 1049 170 1077 c 0,18,19
 137 1114 137 1114 72 1114 c 2,20,-1
 29 1114 l 1,21,-1
 29 1145 l 1,22,-1
 524 1145 l 2,23,24
 662 1145 662 1145 746 1126 c 0,25,26
 873 1095 873 1095 939.5 1017.5 c 128,-1,27
 1006 940 1006 940 1006 840 c 0,28,29
 1006 754 1006 754 953.5 685.5 c 128,-1,30
 901 617 901 617 800 585 c 1,0,1
357 631 m 1,31,32
 388 624 388 624 428 621.5 c 128,-1,33
 468 619 468 619 516 619 c 0,34,35
 640 619 640 619 701.5 645.5 c 128,-1,36
 763 672 763 672 796.5 726.5 c 128,-1,37
 830 781 830 781 830 847 c 0,38,39
 830 948 830 948 747.5 1018.5 c 128,-1,40
 665 1089 665 1089 509 1089 c 0,41,42
 424 1089 424 1089 357 1070 c 1,43,-1
 357 631 l 1,31,32
357 83 m 1,44,45
 454 60 454 60 550 60 c 0,46,47
 704 60 704 60 784 129 c 128,-1,48
 864 198 864 198 864 299 c 0,49,50
 864 366 864 366 827.5 427.5 c 128,-1,51
 791 489 791 489 709 524.5 c 128,-1,52
 627 560 627 560 506 560 c 0,53,54
 454 560 454 560 416.5 558.5 c 128,-1,55
 379 557 379 557 357 552 c 1,56,-1
 357 83 l 1,44,45
EndSplineSet
EndChar

StartChar: C
Encoding: 67 67 29
Width: 1154
Flags: W
LayerCount: 2
Fore
SplineSet
1042 1172 m 1,0,-1
 1068 782 l 1,1,-1
 1042 782 l 1,2,3
 990 957 990 957 892.5 1034 c 128,-1,4
 795 1111 795 1111 659 1111 c 0,5,6
 545 1111 545 1111 453 1053 c 128,-1,7
 361 995 361 995 308 868 c 128,-1,8
 255 741 255 741 255 553 c 0,9,10
 255 398 255 398 305 284 c 128,-1,11
 355 170 355 170 455.5 109.5 c 128,-1,12
 556 49 556 49 684 49 c 0,13,14
 795 49 795 49 880 96.5 c 128,-1,15
 965 144 965 144 1068 285 c 1,16,-1
 1094 268 l 1,17,18
 1007 116 1007 116 893 44.5 c 128,-1,19
 779 -27 779 -27 620 -27 c 0,20,21
 336 -27 336 -27 180 185 c 0,22,23
 62 342 62 342 62 556 c 0,24,25
 62 727 62 727 139.5 870.5 c 128,-1,26
 217 1014 217 1014 351.5 1093 c 128,-1,27
 486 1172 486 1172 645 1172 c 0,28,29
 770 1172 770 1172 890 1111 c 0,30,31
 926 1092 926 1092 941 1092 c 0,32,33
 964 1092 964 1092 981 1109 c 0,34,35
 1003 1131 1003 1131 1012 1172 c 1,36,-1
 1042 1172 l 1,0,-1
EndSplineSet
EndChar

StartChar: D
Encoding: 68 68 30
Width: 1249
Flags: W
LayerCount: 2
Fore
SplineSet
30 0 m 1,0,-1
 30 32 l 1,1,-1
 73 32 l 2,2,3
 146 32 146 32 176 78 c 0,4,5
 194 106 194 106 194 203 c 2,6,-1
 194 943 l 2,7,8
 194 1049 194 1049 171 1077 c 0,9,10
 137 1114 137 1114 73 1114 c 2,11,-1
 30 1114 l 1,12,-1
 30 1145 l 1,13,-1
 496 1145 l 2,14,15
 753 1145 753 1145 886.5 1086.5 c 128,-1,16
 1020 1028 1020 1028 1102 892.5 c 128,-1,17
 1184 757 1184 757 1184 579 c 0,18,19
 1184 340 1184 340 1038 180 c 0,20,21
 876 0 876 0 541 0 c 2,22,-1
 30 0 l 1,0,-1
357 83 m 1,23,24
 464 60 464 60 537 60 c 0,25,26
 732 60 732 60 861.5 197.5 c 128,-1,27
 991 335 991 335 991 570 c 0,28,29
 991 808 991 808 861.5 944.5 c 128,-1,30
 732 1081 732 1081 530 1081 c 0,31,32
 454 1081 454 1081 357 1057 c 1,33,-1
 357 83 l 1,23,24
EndSplineSet
EndChar

StartChar: E
Encoding: 69 69 31
Width: 1057
Flags: W
LayerCount: 2
Fore
SplineSet
361 1084 m 1,0,-1
 361 631 l 1,1,-1
 613 631 l 2,2,3
 711 631 711 631 745 660 c 0,4,5
 788 699 788 699 793 796 c 1,6,-1
 825 796 l 1,7,-1
 825 398 l 1,8,-1
 793 398 l 1,9,10
 781 482 781 482 770 505 c 0,11,12
 754 535 754 535 719.5 551.5 c 128,-1,13
 685 568 685 568 613 568 c 2,14,-1
 361 568 l 1,15,-1
 361 191 l 2,16,17
 361 115 361 115 368 99 c 128,-1,18
 375 83 375 83 392 72.5 c 128,-1,19
 409 62 409 62 456 62 c 2,20,-1
 651 62 l 2,21,22
 748 62 748 62 791.5 76 c 128,-1,23
 835 90 835 90 876 129 c 0,24,25
 928 181 928 181 983 287 c 1,26,-1
 1017 287 l 1,27,-1
 919 0 l 1,28,-1
 36 0 l 1,29,-1
 36 32 l 1,30,-1
 76 32 l 2,31,32
 116 32 116 32 153 51 c 0,33,34
 180 64 180 64 190 91 c 128,-1,35
 200 118 200 118 200 202 c 2,36,-1
 200 947 l 2,37,38
 200 1055 200 1055 178 1080 c 0,39,40
 147 1114 147 1114 76 1114 c 2,41,-1
 36 1114 l 1,42,-1
 36 1145 l 1,43,-1
 919 1145 l 1,44,-1
 931 895 l 1,45,-1
 898 895 l 1,46,47
 880 985 880 985 858.5 1019 c 128,-1,48
 837 1053 837 1053 795 1070 c 0,49,50
 761 1084 761 1084 676 1084 c 2,51,-1
 361 1084 l 1,0,-1
EndSplineSet
EndChar

StartChar: F
Encoding: 70 70 32
Width: 962
Flags: W
LayerCount: 2
Fore
SplineSet
354 1084 m 1,0,-1
 354 633 l 1,1,-1
 563 633 l 2,2,3
 635 633 635 633 668 664.5 c 128,-1,4
 701 696 701 696 711 790 c 1,5,-1
 743 790 l 1,6,-1
 743 402 l 1,7,-1
 711 402 l 1,8,9
 711 468 711 468 694.5 499.5 c 128,-1,10
 678 531 678 531 649 547 c 128,-1,11
 620 563 620 563 563 563 c 2,12,-1
 354 563 l 1,13,-1
 354 203 l 2,14,15
 354 116 354 116 366 87 c 0,16,17
 373 66 373 66 400 52 c 0,18,19
 437 32 437 32 478 32 c 2,20,-1
 519 32 l 1,21,-1
 519 0 l 1,22,-1
 28 0 l 1,23,-1
 28 32 l 1,24,-1
 68 32 l 2,25,26
 139 32 139 32 171 73 c 0,27,28
 192 99 192 99 192 203 c 2,29,-1
 192 943 l 2,30,31
 192 1029 192 1029 180 1058 c 0,32,33
 172 1079 172 1079 146 1094 c 0,34,35
 109 1114 109 1114 68 1114 c 2,36,-1
 28 1114 l 1,37,-1
 28 1145 l 1,38,-1
 880 1145 l 1,39,-1
 891 894 l 1,40,-1
 862 894 l 1,41,42
 840 973 840 973 810.5 1011 c 128,-1,43
 781 1049 781 1049 738.5 1066.5 c 128,-1,44
 696 1084 696 1084 606 1084 c 2,45,-1
 354 1084 l 1,0,-1
EndSplineSet
EndChar

StartChar: G
Encoding: 71 71 33
Width: 1249
Flags: W
LayerCount: 2
Fore
SplineSet
1063 1172 m 1,0,-1
 1092 810 l 1,1,-1
 1063 810 l 1,2,3
 1017 946 1017 946 947 1014 c 0,4,5
 844 1113 844 1113 684 1113 c 0,6,7
 465 1113 465 1113 350 940 c 0,8,9
 255 793 255 793 255 591 c 0,10,11
 255 428 255 428 318.5 292.5 c 128,-1,12
 382 157 382 157 485 94.5 c 128,-1,13
 588 32 588 32 695 32 c 0,14,15
 758 32 758 32 817 47.5 c 128,-1,16
 876 63 876 63 931 95 c 1,17,-1
 931 425 l 2,18,19
 931 512 931 512 918.5 538 c 128,-1,20
 906 564 906 564 879 578.5 c 128,-1,21
 852 593 852 593 781 593 c 1,22,-1
 781 625 l 1,23,-1
 1225 625 l 1,24,-1
 1225 593 l 1,25,-1
 1204 593 l 2,26,27
 1139 593 1139 593 1113 549 c 0,28,29
 1096 517 1096 517 1096 425 c 2,30,-1
 1096 75 l 1,31,32
 999 23 999 23 904.5 -2 c 128,-1,33
 810 -27 810 -27 695 -27 c 0,34,35
 362 -27 362 -27 190 187 c 0,36,37
 61 347 61 347 61 556 c 0,38,39
 61 707 61 707 133 845 c 0,40,41
 220 1010 220 1010 370 1098 c 0,42,43
 496 1172 496 1172 667 1172 c 0,44,45
 730 1172 730 1172 781 1161.5 c 128,-1,46
 832 1151 832 1151 926 1117 c 0,47,48
 973 1099 973 1099 990 1099 c 0,49,50
 1005 1099 1005 1099 1016.5 1114 c 128,-1,51
 1028 1129 1028 1129 1031 1172 c 1,52,-1
 1063 1172 l 1,0,-1
EndSplineSet
EndChar

StartChar: H
Encoding: 72 72 34
Width: 1249
Flags: W
LayerCount: 2
Fore
SplineSet
356 614 m 1,0,-1
 888 614 l 1,1,-1
 888 942 l 2,2,3
 888 1031 888 1031 876 1058 c 0,4,5
 868 1079 868 1079 842 1094 c 0,6,7
 804 1114 804 1114 764 1114 c 2,8,-1
 725 1114 l 1,9,-1
 725 1145 l 1,10,-1
 1214 1145 l 1,11,-1
 1214 1114 l 1,12,-1
 1173 1114 l 2,13,14
 1134 1114 1134 1114 1096 1095 c 0,15,16
 1069 1080 1069 1080 1059 1054 c 0,17,18
 1049 1025 1049 1025 1049 942 c 2,19,-1
 1049 203 l 2,20,21
 1049 115 1049 115 1061 87 c 0,22,23
 1070 65 1070 65 1096 52 c 0,24,25
 1132 32 1132 32 1173 32 c 2,26,-1
 1214 32 l 1,27,-1
 1214 0 l 1,28,-1
 725 0 l 1,29,-1
 725 32 l 1,30,-1
 764 32 l 2,31,32
 835 32 835 32 867 73 c 0,33,34
 888 99 888 99 888 203 c 2,35,-1
 888 551 l 1,36,-1
 356 551 l 1,37,-1
 356 203 l 2,38,39
 356 115 356 115 367 87 c 0,40,41
 375 66 375 66 402 52 c 0,42,43
 439 32 439 32 479 32 c 2,44,-1
 520 32 l 1,45,-1
 520 0 l 1,46,-1
 30 0 l 1,47,-1
 30 32 l 1,48,-1
 70 32 l 2,49,50
 141 32 141 32 173 73 c 0,51,52
 193 99 193 99 193 203 c 2,53,-1
 193 942 l 2,54,55
 193 1031 193 1031 182 1058 c 0,56,57
 173 1079 173 1079 148 1094 c 0,58,59
 111 1114 111 1114 70 1114 c 2,60,-1
 30 1114 l 1,61,-1
 30 1145 l 1,62,-1
 520 1145 l 1,63,-1
 520 1114 l 1,64,-1
 479 1114 l 2,65,66
 440 1114 440 1114 402 1095 c 0,67,68
 376 1081 376 1081 366 1054 c 0,69,70
 356 1026 356 1026 356 942 c 2,71,-1
 356 614 l 1,0,-1
EndSplineSet
EndChar

StartChar: I
Encoding: 73 73 35
Width: 577
Flags: W
LayerCount: 2
Fore
SplineSet
535 32 m 1,0,-1
 535 0 l 1,1,-1
 43 0 l 1,2,-1
 43 32 l 1,3,-1
 84 32 l 2,4,5
 155 32 155 32 187 73 c 0,6,7
 207 99 207 99 207 203 c 2,8,-1
 207 943 l 2,9,10
 207 1029 207 1029 197 1058 c 0,11,12
 188 1079 188 1079 161 1094 c 0,13,14
 125 1114 125 1114 84 1114 c 2,15,-1
 43 1114 l 1,16,-1
 43 1145 l 1,17,-1
 535 1145 l 1,18,-1
 535 1114 l 1,19,-1
 492 1114 l 2,20,21
 422 1114 422 1114 391 1073 c 0,22,23
 370 1045 370 1045 370 943 c 2,24,-1
 370 203 l 2,25,26
 370 116 370 116 380 87 c 0,27,28
 389 66 389 66 416 52 c 0,29,30
 452 32 452 32 492 32 c 2,31,-1
 535 32 l 1,0,-1
EndSplineSet
EndChar

StartChar: J
Encoding: 74 74 36
Width: 674
Flags: W
LayerCount: 2
Fore
SplineSet
172 1114 m 1,0,-1
 172 1145 l 1,1,-1
 663 1145 l 1,2,-1
 663 1114 l 1,3,-1
 622 1114 l 2,4,5
 551 1114 551 1114 519 1073 c 0,6,7
 499 1045 499 1045 499 943 c 2,8,-1
 499 382 l 2,9,10
 499 253 499 253 471 173 c 128,-1,11
 443 93 443 93 373.5 33 c 128,-1,12
 304 -27 304 -27 206 -27 c 0,13,14
 127 -27 127 -27 81.5 13 c 128,-1,15
 36 53 36 53 36 104 c 0,16,17
 36 145 36 145 57 166 c 0,18,19
 84 192 84 192 122 192 c 0,20,21
 149 192 149 192 170.5 174 c 128,-1,22
 192 156 192 156 225 79 c 0,23,24
 244 34 244 34 275 34 c 0,25,26
 298 34 298 34 317.5 62 c 128,-1,27
 337 90 337 90 337 160 c 2,28,-1
 337 943 l 2,29,30
 337 1029 337 1029 326 1058 c 0,31,32
 318 1079 318 1079 290 1094 c 0,33,34
 254 1114 254 1114 213 1114 c 2,35,-1
 172 1114 l 1,0,-1
EndSplineSet
EndChar

StartChar: K
Encoding: 75 75 37
Width: 1249
Flags: W
LayerCount: 2
Fore
SplineSet
517 636 m 1,0,-1
 940 215 l 2,1,2
 1044 112 1044 112 1117 74 c 128,-1,3
 1190 36 1190 36 1264 32 c 1,4,-1
 1264 0 l 1,5,-1
 719 0 l 1,6,-1
 719 32 l 1,7,8
 768 32 768 32 789.5 48 c 128,-1,9
 811 64 811 64 811 84 c 0,10,11
 811 105 811 105 803 121 c 128,-1,12
 795 137 795 137 750 180 c 2,13,-1
 355 572 l 1,14,-1
 355 203 l 2,15,16
 355 116 355 116 366 87 c 0,17,18
 373 66 373 66 401 52 c 0,19,20
 437 32 437 32 478 32 c 2,21,-1
 517 32 l 1,22,-1
 517 0 l 1,23,-1
 29 0 l 1,24,-1
 29 32 l 1,25,-1
 70 32 l 2,26,27
 140 32 140 32 172 73 c 0,28,29
 192 99 192 99 192 203 c 2,30,-1
 192 943 l 2,31,32
 192 1029 192 1029 181 1058 c 0,33,34
 173 1079 173 1079 147 1094 c 0,35,36
 109 1114 109 1114 70 1114 c 2,37,-1
 29 1114 l 1,38,-1
 29 1145 l 1,39,-1
 517 1145 l 1,40,-1
 517 1114 l 1,41,-1
 478 1114 l 2,42,43
 439 1114 439 1114 401 1095 c 0,44,45
 375 1081 375 1081 365 1054 c 128,-1,46
 355 1027 355 1027 355 943 c 2,47,-1
 355 592 l 1,48,49
 372 609 372 609 471 699 c 0,50,51
 721 929 721 929 774 1006 c 0,52,53
 796 1040 796 1040 796 1066 c 0,54,55
 796 1085 796 1085 778.5 1099.5 c 128,-1,56
 761 1114 761 1114 719 1114 c 2,57,-1
 693 1114 l 1,58,-1
 693 1145 l 1,59,-1
 1113 1145 l 1,60,-1
 1113 1114 l 1,61,62
 1076 1113 1076 1113 1046 1104 c 128,-1,63
 1016 1095 1016 1095 971.5 1068.5 c 128,-1,64
 927 1042 927 1042 864 982 c 0,65,66
 845 965 845 965 692 809 c 2,67,-1
 517 636 l 1,0,-1
EndSplineSet
EndChar

StartChar: L
Encoding: 76 76 38
Width: 1057
Flags: W
LayerCount: 2
Fore
SplineSet
992 317 m 1,0,-1
 1020 310 l 1,1,-1
 922 0 l 1,2,-1
 35 0 l 1,3,-1
 35 32 l 1,4,-1
 78 32 l 2,5,6
 150 32 150 32 181 78 c 0,7,8
 200 106 200 106 200 204 c 2,9,-1
 200 943 l 2,10,11
 200 1049 200 1049 176 1077 c 0,12,13
 142 1114 142 1114 78 1114 c 2,14,-1
 35 1114 l 1,15,-1
 35 1145 l 1,16,-1
 553 1145 l 1,17,-1
 553 1114 l 1,18,19
 463 1116 463 1116 426 1097.5 c 128,-1,20
 389 1079 389 1079 375 1052 c 128,-1,21
 361 1025 361 1025 361 923 c 2,22,-1
 361 204 l 2,23,24
 361 133 361 133 375 108 c 0,25,26
 386 90 386 90 407 81.5 c 128,-1,27
 428 73 428 73 539 73 c 2,28,-1
 622 73 l 2,29,30
 754 73 754 73 806.5 92.5 c 128,-1,31
 859 112 859 112 903.5 161 c 128,-1,32
 948 210 948 210 992 317 c 1,0,-1
EndSplineSet
EndChar

StartChar: M
Encoding: 77 77 39
Width: 1539
Flags: W
LayerCount: 2
Fore
SplineSet
708 0 m 1,0,-1
 265 964 l 1,1,-1
 265 199 l 2,2,3
 265 93 265 93 288 66 c 0,4,5
 319 32 319 32 387 32 c 2,6,-1
 428 32 l 1,7,-1
 428 0 l 1,8,-1
 29 0 l 1,9,-1
 29 32 l 1,10,-1
 70 32 l 2,11,12
 141 32 141 32 172 75 c 0,13,14
 191 103 191 103 191 199 c 2,15,-1
 191 948 l 2,16,17
 191 1023 191 1023 175 1057 c 0,18,19
 162 1081 162 1081 130.5 1097.5 c 128,-1,20
 99 1114 99 1114 29 1114 c 1,21,-1
 29 1145 l 1,22,-1
 352 1145 l 1,23,-1
 769 250 l 1,24,-1
 1177 1145 l 1,25,-1
 1501 1145 l 1,26,-1
 1501 1114 l 1,27,-1
 1463 1114 l 2,28,29
 1389 1114 1389 1114 1358 1070 c 0,30,31
 1340 1044 1340 1044 1340 948 c 2,32,-1
 1340 199 l 2,33,34
 1340 93 1340 93 1363 66 c 0,35,36
 1395 32 1395 32 1463 32 c 2,37,-1
 1501 32 l 1,38,-1
 1501 0 l 1,39,-1
 1016 0 l 1,40,-1
 1016 32 l 1,41,-1
 1056 32 l 2,42,43
 1130 32 1130 32 1160 75 c 0,44,45
 1177 103 1177 103 1177 199 c 2,46,-1
 1177 964 l 1,47,-1
 736 0 l 1,48,-1
 708 0 l 1,0,-1
EndSplineSet
EndChar

StartChar: N
Encoding: 78 78 40
Width: 1249
Flags: W
LayerCount: 2
Fore
SplineSet
-23 1145 m 1,0,-1
 288 1145 l 1,1,-1
 989 286 l 1,2,-1
 989 948 l 2,3,4
 989 1053 989 1053 965 1079 c 0,5,6
 933 1114 933 1114 866 1114 c 2,7,-1
 826 1114 l 1,8,-1
 826 1145 l 1,9,-1
 1225 1145 l 1,10,-1
 1225 1114 l 1,11,-1
 1185 1114 l 2,12,13
 1112 1114 1112 1114 1081 1070 c 0,14,15
 1063 1044 1063 1044 1063 948 c 2,16,-1
 1063 -19 l 1,17,-1
 1033 -19 l 1,18,-1
 276 904 l 1,19,-1
 276 199 l 2,20,21
 276 93 276 93 300 66 c 0,22,23
 331 32 331 32 399 32 c 2,24,-1
 440 32 l 1,25,-1
 440 0 l 1,26,-1
 40 0 l 1,27,-1
 40 32 l 1,28,-1
 81 32 l 2,29,30
 155 32 155 32 183 75 c 0,31,32
 203 103 203 103 203 199 c 2,33,-1
 203 995 l 1,34,35
 153 1054 153 1054 127.5 1072.5 c 128,-1,36
 102 1091 102 1091 52 1107 c 0,37,38
 28 1114 28 1114 -23 1114 c 1,39,-1
 -23 1145 l 1,0,-1
EndSplineSet
EndChar

StartChar: O
Encoding: 79 79 41
Width: 1249
Flags: W
LayerCount: 2
Fore
SplineSet
633 1172 m 0,0,1
 855 1172 855 1172 1019 1002.5 c 128,-1,2
 1183 833 1183 833 1183 580 c 0,3,4
 1183 319 1183 319 1018 146 c 128,-1,5
 853 -27 853 -27 619 -27 c 0,6,7
 382 -27 382 -27 221.5 141.5 c 128,-1,8
 61 310 61 310 61 577 c 0,9,10
 61 851 61 851 247 1022 c 0,11,12
 408 1172 408 1172 633 1172 c 0,0,1
616 1110 m 0,13,14
 463 1110 463 1110 370 996 c 0,15,16
 254 854 254 854 254 581 c 0,17,18
 254 300 254 300 373 149 c 0,19,20
 467 34 467 34 617 34 c 0,21,22
 780 34 780 34 885 159.5 c 128,-1,23
 990 285 990 285 990 557 c 0,24,25
 990 852 990 852 874 995 c 0,26,27
 780 1110 780 1110 616 1110 c 0,13,14
EndSplineSet
EndChar

StartChar: P
Encoding: 80 80 42
Width: 962
Flags: W
LayerCount: 2
Fore
SplineSet
355 537 m 1,0,-1
 355 203 l 2,1,2
 355 95 355 95 378 68 c 0,3,4
 411 32 411 32 475 32 c 2,5,-1
 519 32 l 1,6,-1
 519 0 l 1,7,-1
 29 0 l 1,8,-1
 29 32 l 1,9,-1
 72 32 l 2,10,11
 145 32 145 32 176 78 c 0,12,13
 192 105 192 105 192 203 c 2,14,-1
 192 943 l 2,15,16
 192 1050 192 1050 170 1077 c 0,17,18
 137 1114 137 1114 72 1114 c 2,19,-1
 29 1114 l 1,20,-1
 29 1145 l 1,21,-1
 449 1145 l 2,22,23
 602 1145 602 1145 691 1113.5 c 128,-1,24
 780 1082 780 1082 840.5 1006.5 c 128,-1,25
 901 931 901 931 901 829 c 0,26,27
 901 688 901 688 808.5 601 c 128,-1,28
 716 514 716 514 547 514 c 0,29,30
 506 514 506 514 458 519.5 c 128,-1,31
 410 525 410 525 355 537 c 1,0,-1
355 585 m 1,32,33
 399 577 399 577 433.5 572.5 c 128,-1,34
 468 568 468 568 493 568 c 0,35,36
 581 568 581 568 644.5 636 c 128,-1,37
 708 704 708 704 708 812 c 0,38,39
 708 886 708 886 678 950 c 128,-1,40
 648 1014 648 1014 592.5 1045.5 c 128,-1,41
 537 1077 537 1077 466 1077 c 0,42,43
 422 1077 422 1077 355 1061 c 1,44,-1
 355 585 l 1,32,33
EndSplineSet
EndChar

StartChar: Q
Encoding: 81 81 43
Width: 1249
Flags: W
LayerCount: 2
Fore
SplineSet
762 -12 m 1,0,1
 848 -161 848 -161 948 -231.5 c 128,-1,2
 1048 -302 1048 -302 1176 -312 c 1,3,-1
 1176 -339 l 1,4,5
 1059 -335 1059 -335 926.5 -292.5 c 128,-1,6
 794 -250 794 -250 675.5 -174 c 128,-1,7
 557 -98 557 -98 471 -12 c 1,8,9
 348 36 348 36 277 91 c 0,10,11
 176 173 176 173 118.5 292.5 c 128,-1,12
 61 412 61 412 61 575 c 0,13,14
 61 832 61 832 227.5 1002 c 128,-1,15
 394 1172 394 1172 631 1172 c 0,16,17
 855 1172 855 1172 1019.5 1001.5 c 128,-1,18
 1184 831 1184 831 1184 572 c 0,19,20
 1184 361 1184 361 1066.5 202.5 c 128,-1,21
 949 44 949 44 762 -12 c 1,0,1
620 1107 m 0,22,23
 467 1107 467 1107 372 996 c 0,24,25
 254 859 254 859 254 575 c 0,26,27
 254 298 254 298 373 147 c 0,28,29
 467 32 467 32 620 32 c 0,30,31
 780 32 780 32 876 147 c 0,32,33
 991 284 991 284 991 551 c 0,34,35
 991 756 991 756 927 897 c 0,36,37
 879 1004 879 1004 799.5 1055.5 c 128,-1,38
 720 1107 720 1107 620 1107 c 0,22,23
EndSplineSet
EndChar

StartChar: R
Encoding: 82 82 44
Width: 1154
Flags: W
LayerCount: 2
Fore
SplineSet
1169 0 m 1,0,-1
 864 0 l 1,1,-1
 475 536 l 1,2,3
 433 535 433 535 405 535 c 0,4,5
 395 535 395 535 382.5 535 c 128,-1,6
 370 535 370 535 356 536 c 1,7,-1
 356 203 l 2,8,9
 356 95 356 95 379 68 c 0,10,11
 412 32 412 32 475 32 c 2,12,-1
 520 32 l 1,13,-1
 520 0 l 1,14,-1
 30 0 l 1,15,-1
 30 32 l 1,16,-1
 73 32 l 2,17,18
 146 32 146 32 177 78 c 0,19,20
 194 105 194 105 194 203 c 2,21,-1
 194 943 l 2,22,23
 194 1050 194 1050 171 1077 c 0,24,25
 137 1114 137 1114 73 1114 c 2,26,-1
 30 1114 l 1,27,-1
 30 1145 l 1,28,-1
 446 1145 l 2,29,30
 630 1145 630 1145 716.5 1118.5 c 128,-1,31
 803 1092 803 1092 863 1020.5 c 128,-1,32
 923 949 923 949 923 852 c 0,33,34
 923 746 923 746 854 667.5 c 128,-1,35
 785 589 785 589 641 558 c 1,36,-1
 877 229 l 2,37,38
 959 116 959 116 1017 78.5 c 128,-1,39
 1075 41 1075 41 1169 32 c 1,40,-1
 1169 0 l 1,0,-1
356 589 m 1,41,42
 372 589 372 589 383.5 588.5 c 128,-1,43
 395 588 395 588 403 588 c 0,44,45
 567 588 567 588 649.5 659 c 128,-1,46
 732 730 732 730 732 840 c 0,47,48
 732 948 732 948 665.5 1014.5 c 128,-1,49
 599 1081 599 1081 488 1081 c 0,50,51
 440 1081 440 1081 356 1066 c 1,52,-1
 356 589 l 1,41,42
EndSplineSet
EndChar

StartChar: S
Encoding: 83 83 45
Width: 962
Flags: W
LayerCount: 2
Fore
SplineSet
793 1172 m 1,0,-1
 793 775 l 1,1,-1
 762 775 l 1,2,3
 747 889 747 889 707.5 956.5 c 128,-1,4
 668 1024 668 1024 595 1064.5 c 128,-1,5
 522 1105 522 1105 445 1105 c 0,6,7
 357 1105 357 1105 300 1050.5 c 128,-1,8
 243 996 243 996 243 928 c 0,9,10
 243 876 243 876 278 833 c 0,11,12
 331 770 331 770 528 664 c 0,13,14
 688 578 688 578 746.5 532 c 128,-1,15
 805 486 805 486 837 423.5 c 128,-1,16
 869 361 869 361 869 293 c 0,17,18
 869 162 869 162 768 67.5 c 128,-1,19
 667 -27 667 -27 509 -27 c 0,20,21
 458 -27 458 -27 415 -19 c 0,22,23
 389 -14 389 -14 306.5 12.5 c 128,-1,24
 224 39 224 39 202 39 c 256,25,26
 180 39 180 39 168 26 c 128,-1,27
 156 13 156 13 150 -27 c 1,28,-1
 119 -27 l 1,29,-1
 119 367 l 1,30,-1
 150 367 l 1,31,32
 172 243 172 243 209.5 181.5 c 128,-1,33
 247 120 247 120 323 80 c 128,-1,34
 399 40 399 40 492 40 c 0,35,36
 596 40 596 40 657.5 95.5 c 128,-1,37
 719 151 719 151 719 228 c 0,38,39
 719 269 719 269 696 312.5 c 128,-1,40
 673 356 673 356 623 393 c 0,41,42
 590 419 590 419 443.5 501 c 128,-1,43
 297 583 297 583 234.5 632.5 c 128,-1,44
 172 682 172 682 140 741 c 128,-1,45
 108 800 108 800 108 870 c 0,46,47
 108 994 108 994 203 1083 c 128,-1,48
 298 1172 298 1172 444 1172 c 0,49,50
 535 1172 535 1172 636 1127 c 0,51,52
 684 1106 684 1106 704 1106 c 0,53,54
 726 1106 726 1106 740 1119 c 128,-1,55
 754 1132 754 1132 762 1172 c 1,56,-1
 793 1172 l 1,0,-1
EndSplineSet
EndChar

StartChar: T
Encoding: 84 84 46
Width: 1057
Flags: W
LayerCount: 2
Fore
SplineSet
1001 1145 m 1,0,-1
 1014 876 l 1,1,-1
 982 876 l 1,2,3
 972 948 972 948 957 978 c 0,4,5
 930 1027 930 1027 886.5 1050.5 c 128,-1,6
 843 1074 843 1074 772 1074 c 2,7,-1
 611 1074 l 1,8,-1
 611 199 l 2,9,10
 611 93 611 93 634 66 c 0,11,12
 665 32 665 32 732 32 c 2,13,-1
 772 32 l 1,14,-1
 772 0 l 1,15,-1
 286 0 l 1,16,-1
 286 32 l 1,17,-1
 327 32 l 2,18,19
 399 32 399 32 430 75 c 0,20,21
 449 103 449 103 449 199 c 2,22,-1
 449 1074 l 1,23,-1
 310 1074 l 2,24,25
 230 1074 230 1074 197 1063 c 0,26,27
 153 1045 153 1045 122 999.5 c 128,-1,28
 91 954 91 954 84 876 c 1,29,-1
 53 876 l 1,30,-1
 65 1145 l 1,31,-1
 1001 1145 l 1,0,-1
EndSplineSet
EndChar

StartChar: U
Encoding: 85 85 47
Width: 1249
Flags: W
LayerCount: 2
Fore
SplineSet
826 1114 m 1,0,-1
 826 1145 l 1,1,-1
 1232 1145 l 1,2,-1
 1232 1114 l 1,3,-1
 1188 1114 l 2,4,5
 1120 1114 1120 1114 1084 1058 c 0,6,7
 1067 1032 1067 1032 1067 936 c 2,8,-1
 1067 471 l 2,9,10
 1067 299 1067 299 1032 203.5 c 128,-1,11
 997 108 997 108 897.5 40 c 128,-1,12
 798 -28 798 -28 625 -28 c 0,13,14
 437 -28 437 -28 340 38 c 128,-1,15
 243 104 243 104 203 213 c 0,16,17
 176 288 176 288 176 495 c 2,18,-1
 176 943 l 2,19,20
 176 1048 176 1048 146.5 1081 c 128,-1,21
 117 1114 117 1114 53 1114 c 2,22,-1
 10 1114 l 1,23,-1
 10 1145 l 1,24,-1
 505 1145 l 1,25,-1
 505 1114 l 1,26,-1
 461 1114 l 2,27,28
 390 1114 390 1114 359 1069 c 0,29,30
 338 1039 338 1039 338 943 c 2,31,-1
 338 444 l 2,32,33
 338 377 338 377 350 290.5 c 128,-1,34
 362 204 362 204 394 156 c 128,-1,35
 426 108 426 108 486.5 76.5 c 128,-1,36
 547 45 547 45 636 45 c 0,37,38
 748 45 748 45 836.5 94.5 c 128,-1,39
 925 144 925 144 958 220.5 c 128,-1,40
 991 297 991 297 991 479 c 2,41,-1
 991 943 l 2,42,43
 991 1049 991 1049 967 1077 c 0,44,45
 933 1114 933 1114 868 1114 c 2,46,-1
 826 1114 l 1,0,-1
EndSplineSet
EndChar

StartChar: V
Encoding: 86 86 48
Width: 1249
Flags: W
LayerCount: 2
Fore
SplineSet
1228 1145 m 1,0,-1
 1228 1114 l 1,1,2
 1168 1103 1168 1103 1137 1075 c 0,3,4
 1092 1034 1092 1034 1057 948 c 2,5,-1
 657 -27 l 1,6,-1
 626 -27 l 1,7,-1
 197 961 l 2,8,9
 163 1037 163 1037 150 1054 c 0,10,11
 129 1080 129 1080 98 1095 c 128,-1,12
 67 1110 67 1110 14 1114 c 1,13,-1
 14 1145 l 1,14,-1
 484 1145 l 1,15,-1
 484 1114 l 1,16,17
 403 1107 403 1107 380 1087.5 c 128,-1,18
 357 1068 357 1068 357 1037 c 0,19,20
 357 995 357 995 395 906 c 2,21,-1
 686 234 l 1,22,-1
 957 898 l 2,23,24
 996 995 996 995 996 1033 c 0,25,26
 996 1058 996 1058 972 1080 c 128,-1,27
 948 1102 948 1102 889 1112 c 0,28,29
 885 1113 885 1113 876 1114 c 1,30,-1
 876 1145 l 1,31,-1
 1228 1145 l 1,0,-1
EndSplineSet
EndChar

StartChar: W
Encoding: 87 87 49
Width: 1633
Flags: W
LayerCount: 2
Fore
SplineSet
1620 1145 m 1,0,-1
 1620 1114 l 1,1,2
 1574 1114 1574 1114 1546.5 1098 c 128,-1,3
 1519 1082 1519 1082 1493 1038 c 0,4,5
 1476 1008 1476 1008 1440 898 c 2,6,-1
 1121 -27 l 1,7,-1
 1088 -27 l 1,8,-1
 826 707 l 1,9,-1
 567 -27 l 1,10,-1
 537 -27 l 1,11,-1
 197 925 l 2,12,13
 158 1032 158 1032 148 1050 c 0,14,15
 131 1084 131 1084 102 1099 c 128,-1,16
 73 1114 73 1114 23 1114 c 1,17,-1
 23 1145 l 1,18,-1
 446 1145 l 1,19,-1
 446 1114 l 1,20,-1
 426 1114 l 2,21,22
 382 1114 382 1114 358.5 1094 c 128,-1,23
 335 1074 335 1074 335 1045 c 256,24,25
 335 1016 335 1016 372 909 c 2,26,-1
 598 266 l 1,27,-1
 788 813 l 1,28,-1
 754 909 l 1,29,-1
 727 986 l 1,30,31
 708 1028 708 1028 686 1060 c 0,32,33
 676 1076 676 1076 660 1088 c 0,34,35
 638 1102 638 1102 617 1109 c 0,36,37
 602 1114 602 1114 567 1114 c 1,38,-1
 567 1145 l 1,39,-1
 1013 1145 l 1,40,-1
 1013 1114 l 1,41,-1
 982 1114 l 2,42,43
 936 1114 936 1114 913.5 1094 c 128,-1,44
 891 1074 891 1074 891 1039 c 0,45,46
 891 996 891 996 929 889 c 2,47,-1
 1149 266 l 1,48,-1
 1366 898 l 2,49,50
 1404 1002 1404 1002 1404 1043 c 0,51,52
 1404 1063 1404 1063 1392 1079.5 c 128,-1,53
 1380 1096 1380 1096 1361 1102 c 0,54,55
 1329 1114 1329 1114 1278 1114 c 1,56,-1
 1278 1145 l 1,57,-1
 1620 1145 l 1,0,-1
EndSplineSet
EndChar

StartChar: X
Encoding: 88 88 50
Width: 1249
Flags: W
LayerCount: 2
Fore
SplineSet
707 635 m 1,0,-1
 952 268 l 2,1,2
 1054 116 1054 116 1103.5 76 c 128,-1,3
 1153 36 1153 36 1229 32 c 1,4,-1
 1229 0 l 1,5,-1
 737 0 l 1,6,-1
 737 32 l 1,7,8
 787 32 787 32 810 41 c 0,9,10
 828 49 828 49 840 65 c 128,-1,11
 852 81 852 81 852 96 c 0,12,13
 852 116 852 116 843 135 c 0,14,15
 837 150 837 150 796 209 c 2,16,-1
 602 504 l 1,17,-1
 362 197 l 2,18,19
 324 147 324 147 316.5 130.5 c 128,-1,20
 309 114 309 114 309 96 c 0,21,22
 309 70 309 70 332 52 c 128,-1,23
 355 34 355 34 420 32 c 1,24,-1
 420 0 l 1,25,-1
 12 0 l 1,26,-1
 12 32 l 1,27,28
 56 36 56 36 86 49 c 0,29,30
 139 71 139 71 186.5 108.5 c 128,-1,31
 234 146 234 146 295 222 c 2,32,-1
 564 564 l 1,33,-1
 340 894 l 2,34,35
 247 1028 247 1028 183 1070 c 128,-1,36
 119 1112 119 1112 36 1114 c 1,37,-1
 36 1145 l 1,38,-1
 564 1145 l 1,39,-1
 564 1114 l 1,40,41
 497 1112 497 1112 472 1092.5 c 128,-1,42
 447 1073 447 1073 447 1049 c 0,43,44
 447 1018 447 1018 488 958 c 2,45,-1
 664 695 l 1,46,-1
 868 952 l 2,47,48
 903 999 903 999 911 1016 c 128,-1,49
 919 1033 919 1033 919 1049 c 0,50,51
 919 1068 919 1068 909 1081 c 0,52,53
 897 1099 897 1099 877 1106 c 128,-1,54
 857 1113 857 1113 796 1114 c 1,55,-1
 796 1145 l 1,56,-1
 1203 1145 l 1,57,-1
 1203 1114 l 1,58,59
 1155 1112 1155 1112 1124 1099 c 0,60,61
 1079 1079 1079 1079 1041 1046.5 c 128,-1,62
 1003 1014 1003 1014 933 925 c 2,63,-1
 707 635 l 1,0,-1
EndSplineSet
EndChar

StartChar: Y
Encoding: 89 89 51
Width: 1249
Flags: W
LayerCount: 2
Fore
SplineSet
825 1145 m 1,0,-1
 1224 1145 l 1,1,-1
 1224 1114 l 1,2,-1
 1202 1114 l 2,3,4
 1181 1114 1181 1114 1138.5 1094.5 c 128,-1,5
 1096 1075 1096 1075 1061 1039 c 128,-1,6
 1026 1003 1026 1003 975 921 c 2,7,-1
 699 486 l 1,8,-1
 699 199 l 2,9,10
 699 93 699 93 724 66 c 0,11,12
 756 32 756 32 825 32 c 2,13,-1
 862 32 l 1,14,-1
 862 0 l 1,15,-1
 375 0 l 1,16,-1
 375 32 l 1,17,-1
 416 32 l 2,18,19
 488 32 488 32 518 75 c 0,20,21
 538 103 538 103 538 199 c 2,22,-1
 538 470 l 1,23,-1
 223 949 l 2,24,25
 167 1034 167 1034 147.5 1055 c 128,-1,26
 128 1076 128 1076 65 1106 c 0,27,28
 49 1114 49 1114 15 1114 c 1,29,-1
 15 1145 l 1,30,-1
 506 1145 l 1,31,-1
 506 1114 l 1,32,-1
 481 1114 l 2,33,34
 442 1114 442 1114 407.5 1095.5 c 128,-1,35
 373 1077 373 1077 373 1040 c 0,36,37
 373 1010 373 1010 425 930 c 2,38,-1
 665 561 l 1,39,-1
 889 915 l 2,40,41
 940 994 940 994 940 1033 c 0,42,43
 940 1056 940 1056 928 1074 c 128,-1,44
 916 1092 916 1092 893 1103 c 128,-1,45
 870 1114 870 1114 825 1114 c 1,46,-1
 825 1145 l 1,0,-1
EndSplineSet
EndChar

StartChar: Z
Encoding: 90 90 52
Width: 1057
Flags: W
LayerCount: 2
Fore
SplineSet
995 1145 m 1,0,-1
 243 70 l 1,1,-1
 711 70 l 2,2,3
 821 70 821 70 878.5 116.5 c 128,-1,4
 936 163 936 163 981 308 c 1,5,-1
 1008 303 l 1,6,-1
 954 0 l 1,7,-1
 22 0 l 1,8,-1
 22 32 l 1,9,-1
 757 1077 l 1,10,-1
 391 1077 l 2,11,12
 299 1077 299 1077 258.5 1057 c 128,-1,13
 218 1037 218 1037 196.5 999.5 c 128,-1,14
 175 962 175 962 156 859 c 1,15,-1
 125 859 l 1,16,-1
 148 1145 l 1,17,-1
 995 1145 l 1,0,-1
EndSplineSet
EndChar

StartChar: bracketleft
Encoding: 91 91 53
Width: 646
Flags: W
LayerCount: 2
Fore
SplineSet
562 -232 m 1,0,-1
 190 -232 l 1,1,-1
 190 1687 l 1,2,-1
 562 1687 l 1,3,-1
 562 1590 l 1,4,-1
 329 1590 l 1,5,-1
 329 -136 l 1,6,-1
 562 -136 l 1,7,-1
 562 -232 l 1,0,-1
EndSplineSet
EndChar

StartChar: backslash
Encoding: 92 92 54
Width: 607
Flags: W
LayerCount: 2
Fore
SplineSet
583 -378 m 1,0,-1
 464 -378 l 1,1,-1
 57 935 l 1,2,-1
 179 935 l 1,3,-1
 583 -378 l 1,0,-1
EndSplineSet
EndChar

StartChar: bracketright
Encoding: 93 93 55
Width: 646
Flags: W
LayerCount: 2
Fore
SplineSet
211 -136 m 1,0,-1
 444 -136 l 1,1,-1
 444 1590 l 1,2,-1
 211 1590 l 1,3,-1
 211 1687 l 1,4,-1
 583 1687 l 1,5,-1
 583 -232 l 1,6,-1
 211 -232 l 1,7,-1
 211 -136 l 1,0,-1
EndSplineSet
EndChar

StartChar: asciicircum
Encoding: 94 94 56
Width: 982
Flags: W
LayerCount: 2
Fore
SplineSet
894 451 m 1,0,-1
 763 451 l 1,1,-1
 492 862 l 1,2,-1
 218 450 l 1,3,-1
 86 450 l 1,4,-1
 450 980 l 1,5,-1
 532 980 l 1,6,-1
 894 451 l 1,0,-1
EndSplineSet
EndChar

StartChar: underscore
Encoding: 95 95 57
Width: 921
Flags: W
LayerCount: 2
Fore
SplineSet
933 -247 m 1,0,-1
 -12 -247 l 1,1,-1
 -12 -140 l 1,2,-1
 933 -140 l 1,3,-1
 933 -247 l 1,0,-1
EndSplineSet
EndChar

StartChar: grave
Encoding: 96 96 58
Width: 212
Flags: W
LayerCount: 2
Fore
SplineSet
120 1002 m 1,0,1
 155 922 155 922 176 851 c 1,2,3
 183 799 183 799 172 805 c 1,4,5
 150 837 150 837 102.5 927 c 128,-1,6
 55 1017 55 1017 46 1049 c 1,7,8
 43 1086 43 1086 120 1002 c 1,0,1
EndSplineSet
EndChar

StartChar: a
Encoding: 97 97 59
Width: 768
Flags: W
LayerCount: 2
Fore
SplineSet
492 112 m 1,0,1
 373 19 373 19 344 5 c 0,2,3
 298 -16 298 -16 246 -16 c 0,4,5
 166 -16 166 -16 113.5 39 c 128,-1,6
 61 94 61 94 61 183 c 0,7,8
 61 240 61 240 86 281 c 0,9,10
 122 339 122 339 208 390 c 128,-1,11
 294 441 294 441 492 514 c 1,12,-1
 492 542 l 2,13,14
 492 659 492 659 456 702.5 c 128,-1,15
 420 746 420 746 348 746 c 0,16,17
 296 746 296 746 264 716 c 0,18,19
 232 687 232 687 232 651 c 2,20,-1
 234 602 l 2,21,22
 234 563 234 563 214 541.5 c 128,-1,23
 194 520 194 520 162 520 c 0,24,25
 131 520 131 520 111 542 c 128,-1,26
 91 564 91 564 91 602 c 0,27,28
 91 675 91 675 165.5 735.5 c 128,-1,29
 240 796 240 796 373 796 c 0,30,31
 477 796 477 796 542 762 c 0,32,33
 593 736 593 736 616 680 c 0,34,35
 632 644 632 644 632 531 c 2,36,-1
 632 268 l 2,37,38
 632 158 632 158 636 133 c 128,-1,39
 640 108 640 108 650 99.5 c 128,-1,40
 660 91 660 91 673 91 c 256,41,42
 686 91 686 91 696 97 c 0,43,44
 714 108 714 108 764 158 c 1,45,-1
 764 112 l 1,46,47
 669 -14 669 -14 584 -14 c 0,48,49
 542 -14 542 -14 517.5 14 c 128,-1,50
 493 42 493 42 492 112 c 1,0,1
492 167 m 1,51,-1
 492 462 l 1,52,53
 366 411 366 411 327 390 c 0,54,55
 261 352 261 352 232.5 312 c 128,-1,56
 204 272 204 272 204 223 c 0,57,58
 204 162 204 162 240 122.5 c 128,-1,59
 276 83 276 83 324 83 c 0,60,61
 388 83 388 83 492 167 c 1,51,-1
EndSplineSet
EndChar

StartChar: b
Encoding: 98 98 60
Width: 865
Flags: W
LayerCount: 2
Fore
SplineSet
266 640 m 1,0,1
 378 796 378 796 509 796 c 0,2,3
 627 796 627 796 715.5 694.5 c 128,-1,4
 804 593 804 593 804 416 c 0,5,6
 804 210 804 210 668 84 c 0,7,8
 551 -23 551 -23 407 -23 c 0,9,10
 339 -23 339 -23 269.5 1 c 128,-1,11
 200 25 200 25 127 74 c 1,12,-1
 127 876 l 2,13,14
 127 1007 127 1007 120.5 1037.5 c 128,-1,15
 114 1068 114 1068 100 1079.5 c 128,-1,16
 86 1091 86 1091 66 1091 c 0,17,18
 43 1091 43 1091 8 1077 c 1,19,-1
 -4 1107 l 1,20,-1
 228 1202 l 1,21,-1
 266 1202 l 1,22,-1
 266 640 l 1,0,1
266 586 m 1,23,-1
 266 124 l 1,24,25
 309 82 309 82 355 60 c 128,-1,26
 401 38 401 38 450 38 c 0,27,28
 526 38 526 38 592.5 122.5 c 128,-1,29
 659 207 659 207 659 369 c 0,30,31
 659 517 659 517 592.5 597 c 128,-1,32
 526 677 526 677 442 677 c 0,33,34
 397 677 397 677 352 654 c 0,35,36
 319 636 319 636 266 586 c 1,23,-1
EndSplineSet
EndChar

StartChar: c
Encoding: 99 99 61
Width: 768
Flags: W
LayerCount: 2
Fore
SplineSet
711 294 m 1,0,1
 680 141 680 141 588.5 59 c 128,-1,2
 497 -23 497 -23 387 -23 c 0,3,4
 255 -23 255 -23 157.5 87.5 c 128,-1,5
 60 198 60 198 60 387 c 0,6,7
 60 568 60 568 168 682 c 128,-1,8
 276 796 276 796 429 796 c 0,9,10
 542 796 542 796 615.5 736 c 128,-1,11
 689 676 689 676 689 611 c 0,12,13
 689 579 689 579 668.5 559 c 128,-1,14
 648 539 648 539 611 539 c 0,15,16
 561 539 561 539 536 571 c 0,17,18
 521 589 521 589 516.5 638.5 c 128,-1,19
 512 688 512 688 483 715 c 0,20,21
 453 740 453 740 400 740 c 0,22,23
 316 740 316 740 264 678 c 0,24,25
 197 594 197 594 197 458 c 0,26,27
 197 320 197 320 264 214 c 128,-1,28
 331 108 331 108 447 108 c 0,29,30
 530 108 530 108 596 165 c 0,31,32
 643 204 643 204 686 306 c 1,33,-1
 711 294 l 1,0,1
EndSplineSet
EndChar

StartChar: d
Encoding: 100 100 62
Width: 865
Flags: W
LayerCount: 2
Fore
SplineSet
601 86 m 1,0,1
 543 28 543 28 489.5 2.5 c 128,-1,2
 436 -23 436 -23 373 -23 c 0,3,4
 247 -23 247 -23 152 82.5 c 128,-1,5
 57 188 57 188 57 355 c 0,6,7
 57 521 57 521 162 659.5 c 128,-1,8
 267 798 267 798 432 798 c 0,9,10
 535 798 535 798 601 732 c 1,11,-1
 601 876 l 2,12,13
 601 1007 601 1007 594.5 1037.5 c 128,-1,14
 588 1068 588 1068 574.5 1079.5 c 128,-1,15
 561 1091 561 1091 540 1091 c 0,16,17
 518 1091 518 1091 483 1077 c 1,18,-1
 471 1107 l 1,19,-1
 703 1202 l 1,20,-1
 740 1202 l 1,21,-1
 740 306 l 2,22,23
 740 171 740 171 746.5 141 c 128,-1,24
 753 111 753 111 766.5 98.5 c 128,-1,25
 780 86 780 86 800 86 c 0,26,27
 822 86 822 86 859 102 c 1,28,-1
 869 72 l 1,29,-1
 640 -23 l 1,30,-1
 601 -23 l 1,31,-1
 601 86 l 1,0,1
601 146 m 1,32,-1
 601 545 l 1,33,34
 595 602 595 602 570 649.5 c 128,-1,35
 545 697 545 697 503.5 721.5 c 128,-1,36
 462 746 462 746 421 746 c 0,37,38
 348 746 348 746 289 678 c 0,39,40
 212 590 212 590 212 421 c 256,41,42
 212 252 212 252 286.5 161 c 128,-1,43
 361 70 361 70 452 70 c 0,44,45
 529 70 529 70 601 146 c 1,32,-1
EndSplineSet
EndChar

StartChar: e
Encoding: 101 101 63
Width: 768
Flags: W
LayerCount: 2
Fore
SplineSet
183 483 m 1,0,1
 183 310 183 310 268 212 c 0,2,3
 352 114 352 114 467 114 c 0,4,5
 542 114 542 114 598.5 156 c 128,-1,6
 655 198 655 198 693 299 c 1,7,-1
 719 282 l 1,8,9
 701 167 701 167 615.5 72 c 128,-1,10
 530 -23 530 -23 402 -23 c 0,11,12
 263 -23 263 -23 163.5 85 c 128,-1,13
 64 193 64 193 64 377 c 0,14,15
 64 575 64 575 166 686.5 c 128,-1,16
 268 798 268 798 421 798 c 0,17,18
 551 798 551 798 635 712 c 128,-1,19
 719 626 719 626 719 483 c 1,20,-1
 183 483 l 1,0,1
183 531 m 1,21,-1
 542 531 l 1,22,23
 539 606 539 606 525 636 c 0,24,25
 504 684 504 684 462 710.5 c 128,-1,26
 420 737 420 737 373 737 c 0,27,28
 304 737 304 737 248.5 682.5 c 128,-1,29
 193 628 193 628 183 531 c 1,21,-1
EndSplineSet
EndChar

StartChar: f
Encoding: 102 102 64
Width: 577
Flags: W
LayerCount: 2
Fore
SplineSet
357 713 m 1,0,-1
 357 204 l 2,1,2
 357 96 357 96 380 67 c 0,3,4
 412 31 412 31 464 31 c 2,5,-1
 535 31 l 1,6,-1
 535 0 l 1,7,-1
 72 0 l 1,8,-1
 72 31 l 1,9,-1
 107 31 l 2,10,11
 140 31 140 31 168.5 47.5 c 128,-1,12
 197 64 197 64 207.5 93 c 128,-1,13
 218 122 218 122 218 204 c 2,14,-1
 218 713 l 1,15,-1
 66 713 l 1,16,-1
 66 774 l 1,17,-1
 218 774 l 1,18,-1
 218 825 l 2,19,20
 218 940 218 940 255 1020 c 128,-1,21
 292 1100 292 1100 368 1150 c 128,-1,22
 444 1200 444 1200 540 1200 c 0,23,24
 628 1200 628 1200 704 1142 c 0,25,26
 752 1105 752 1105 752 1057 c 0,27,28
 752 1032 752 1032 730 1009 c 128,-1,29
 708 986 708 986 683 986 c 0,30,31
 663 986 663 986 641.5 1000.5 c 128,-1,32
 620 1015 620 1015 589 1061 c 128,-1,33
 558 1107 558 1107 531 1122 c 0,34,35
 505 1139 505 1139 473 1139 c 0,36,37
 434 1139 434 1139 407 1118 c 128,-1,38
 380 1097 380 1097 368.5 1054 c 128,-1,39
 357 1011 357 1011 357 830 c 2,40,-1
 357 774 l 1,41,-1
 556 774 l 1,42,-1
 556 713 l 1,43,-1
 357 713 l 1,0,-1
EndSplineSet
EndChar

StartChar: g
Encoding: 103 103 65
Width: 865
Flags: W
LayerCount: 2
Fore
SplineSet
261 282 m 1,0,1
 190 317 190 317 152 379.5 c 128,-1,2
 114 442 114 442 114 516 c 0,3,4
 114 632 114 632 200.5 714 c 128,-1,5
 287 796 287 796 422 796 c 0,6,7
 533 796 533 796 614 742 c 1,8,-1
 779 742 l 2,9,10
 814 742 814 742 820 740 c 128,-1,11
 826 738 826 738 829 732 c 0,12,13
 834 726 834 726 834 707 c 0,14,15
 834 684 834 684 830 676 c 0,16,17
 827 672 827 672 820.5 669 c 128,-1,18
 814 666 814 666 779 666 c 2,19,-1
 678 666 l 1,20,21
 725 606 725 606 725 511 c 0,22,23
 725 403 725 403 642.5 326.5 c 128,-1,24
 560 250 560 250 420 250 c 0,25,26
 362 250 362 250 302 266 c 1,27,28
 265 234 265 234 252 210 c 128,-1,29
 239 186 239 186 239 169 c 0,30,31
 239 155 239 155 253 141.5 c 128,-1,32
 267 128 267 128 307 122 c 0,33,34
 331 118 331 118 425 116 c 0,35,36
 600 112 600 112 652 104 c 0,37,38
 730 93 730 93 777 45.5 c 128,-1,39
 824 -2 824 -2 824 -71 c 0,40,41
 824 -167 824 -167 734 -251 c 0,42,43
 602 -373 602 -373 391 -373 c 0,44,45
 228 -373 228 -373 115 -300 c 0,46,47
 52 -257 52 -257 52 -212 c 0,48,49
 52 -192 52 -192 61 -171 c 0,50,51
 75 -140 75 -140 120 -84 c 0,52,53
 126 -77 126 -77 206 7 c 1,54,55
 162 33 162 33 144 53.5 c 128,-1,56
 126 74 126 74 126 101 c 0,57,58
 126 130 126 130 150.5 169.5 c 128,-1,59
 175 209 175 209 261 282 c 1,0,1
408 756 m 0,60,61
 346 756 346 756 303.5 706.5 c 128,-1,62
 261 657 261 657 261 553 c 0,63,64
 261 420 261 420 319 347 c 0,65,66
 362 290 362 290 430 290 c 0,67,68
 494 290 494 290 535.5 338.5 c 128,-1,69
 577 387 577 387 577 490 c 0,70,71
 577 624 577 624 518 700 c 0,72,73
 475 756 475 756 408 756 c 0,60,61
252 0 m 1,74,75
 213 -43 213 -43 192.5 -80 c 128,-1,76
 172 -117 172 -117 172 -149 c 0,77,78
 172 -189 172 -189 222 -220 c 0,79,80
 306 -273 306 -273 466 -273 c 0,81,82
 617 -273 617 -273 689.5 -219 c 128,-1,83
 762 -165 762 -165 762 -104 c 0,84,85
 762 -60 762 -60 719 -41 c 0,86,87
 675 -23 675 -23 545 -19 c 0,88,89
 355 -14 355 -14 252 0 c 1,74,75
EndSplineSet
EndChar

StartChar: h
Encoding: 104 104 66
Width: 865
Flags: W
LayerCount: 2
Fore
SplineSet
281 1202 m 1,0,-1
 281 636 l 1,1,2
 375 738 375 738 430 767 c 128,-1,3
 485 796 485 796 540 796 c 0,4,5
 606 796 606 796 653 760.5 c 128,-1,6
 700 725 700 725 724 646 c 0,7,8
 739 592 739 592 739 449 c 2,9,-1
 739 176 l 2,10,11
 739 102 739 102 751 74 c 0,12,13
 759 54 759 54 780 42.5 c 128,-1,14
 801 31 801 31 854 31 c 1,15,-1
 854 0 l 1,16,-1
 474 0 l 1,17,-1
 474 31 l 1,18,-1
 492 31 l 2,19,20
 546 31 546 31 567 47 c 128,-1,21
 588 63 588 63 596 95 c 0,22,23
 599 108 599 108 599 176 c 2,24,-1
 599 449 l 2,25,26
 599 575 599 575 585.5 615 c 128,-1,27
 572 655 572 655 544 675 c 128,-1,28
 516 695 516 695 475 695 c 0,29,30
 433 695 433 695 389 673 c 128,-1,31
 345 651 345 651 281 584 c 1,32,-1
 281 176 l 2,33,34
 281 95 281 95 290 76 c 128,-1,35
 299 57 299 57 323.5 44 c 128,-1,36
 348 31 348 31 407 31 c 1,37,-1
 407 0 l 1,38,-1
 23 0 l 1,39,-1
 23 31 l 1,40,41
 74 31 74 31 104 46 c 0,42,43
 120 55 120 55 130.5 79 c 128,-1,44
 141 103 141 103 141 176 c 2,45,-1
 141 876 l 2,46,47
 141 1007 141 1007 135 1037.5 c 128,-1,48
 129 1068 129 1068 116 1079.5 c 128,-1,49
 103 1091 103 1091 81 1091 c 0,50,51
 62 1091 62 1091 23 1077 c 1,52,-1
 11 1107 l 1,53,-1
 243 1202 l 1,54,-1
 281 1202 l 1,0,-1
EndSplineSet
EndChar

StartChar: i
Encoding: 105 105 67
Width: 481
Flags: W
LayerCount: 2
Fore
SplineSet
252 1202 m 0,0,1
 286 1202 286 1202 311 1176.5 c 128,-1,2
 336 1151 336 1151 336 1116 c 0,3,4
 336 1080 336 1080 311 1054.5 c 128,-1,5
 286 1029 286 1029 252 1029 c 0,6,7
 215 1029 215 1029 190 1054.5 c 128,-1,8
 165 1080 165 1080 165 1116 c 0,9,10
 165 1151 165 1151 189.5 1176.5 c 128,-1,11
 214 1202 214 1202 252 1202 c 0,0,1
321 796 m 1,12,-1
 321 176 l 2,13,14
 321 103 321 103 331.5 78.5 c 128,-1,15
 342 54 342 54 362.5 42.5 c 128,-1,16
 383 31 383 31 439 31 c 1,17,-1
 439 0 l 1,18,-1
 62 0 l 1,19,-1
 62 31 l 1,20,21
 119 31 119 31 138.5 42 c 128,-1,22
 158 53 158 53 169 78.5 c 128,-1,23
 180 104 180 104 180 176 c 2,24,-1
 180 473 l 2,25,26
 180 599 180 599 173 636 c 0,27,28
 167 663 167 663 154 673.5 c 128,-1,29
 141 684 141 684 120 684 c 0,30,31
 96 684 96 684 62 672 c 1,32,-1
 51 703 l 1,33,-1
 284 796 l 1,34,-1
 321 796 l 1,12,-1
EndSplineSet
EndChar

StartChar: j
Encoding: 106 106 68
Width: 481
Flags: W
LayerCount: 2
Fore
SplineSet
251 1202 m 0,0,1
 286 1202 286 1202 311.5 1176.5 c 128,-1,2
 337 1151 337 1151 337 1116 c 0,3,4
 337 1079 337 1079 311.5 1053.5 c 128,-1,5
 286 1028 286 1028 251 1028 c 0,6,7
 214 1028 214 1028 188.5 1053.5 c 128,-1,8
 163 1079 163 1079 163 1116 c 0,9,10
 163 1151 163 1151 188.5 1176.5 c 128,-1,11
 214 1202 214 1202 251 1202 c 0,0,1
324 796 m 1,12,-1
 324 18 l 2,13,14
 324 -180 324 -180 239.5 -276.5 c 128,-1,15
 155 -373 155 -373 19 -373 c 0,16,17
 -59 -373 -59 -373 -96 -345.5 c 128,-1,18
 -133 -318 -133 -318 -133 -288 c 0,19,20
 -133 -259 -133 -259 -112 -238 c 128,-1,21
 -91 -217 -91 -217 -63 -217 c 0,22,23
 -41 -217 -41 -217 -19 -228 c 0,24,25
 -4 -233 -4 -233 37 -269.5 c 128,-1,26
 78 -306 78 -306 106 -306 c 0,27,28
 126 -306 126 -306 145.5 -291 c 128,-1,29
 165 -276 165 -276 174 -239 c 128,-1,30
 183 -202 183 -202 183 -80 c 2,31,-1
 183 471 l 2,32,33
 183 599 183 599 176 636 c 0,34,35
 170 663 170 663 157.5 673.5 c 128,-1,36
 145 684 145 684 123 684 c 0,37,38
 99 684 99 684 65 672 c 1,39,-1
 53 703 l 1,40,-1
 286 796 l 1,41,-1
 324 796 l 1,12,-1
EndSplineSet
EndChar

StartChar: k
Encoding: 107 107 69
Width: 865
Flags: W
LayerCount: 2
Fore
SplineSet
283 1202 m 1,0,-1
 283 431 l 1,1,-1
 479 611 l 2,2,3
 542 668 542 668 552 684 c 0,4,5
 560 694 560 694 560 704 c 0,6,7
 560 720 560 720 545.5 733 c 128,-1,8
 531 746 531 746 499 747 c 1,9,-1
 499 774 l 1,10,-1
 835 774 l 1,11,-1
 835 747 l 1,12,13
 767 746 767 746 720.5 726.5 c 128,-1,14
 674 707 674 707 619 657 c 2,15,-1
 420 473 l 1,16,-1
 619 222 l 2,17,18
 703 118 703 118 731 91 c 0,19,20
 771 51 771 51 802 39 c 0,21,22
 823 31 823 31 876 31 c 1,23,-1
 876 0 l 1,24,-1
 499 0 l 1,25,-1
 499 31 l 1,26,27
 531 32 531 32 542.5 40.5 c 128,-1,28
 554 49 554 49 554 65 c 0,29,30
 554 84 554 84 520 128 c 2,31,-1
 283 431 l 1,32,-1
 283 175 l 2,33,34
 283 99 283 99 293.5 75.5 c 128,-1,35
 304 52 304 52 324 42 c 128,-1,36
 344 32 344 32 408 31 c 1,37,-1
 408 0 l 1,38,-1
 14 0 l 1,39,-1
 14 31 l 1,40,41
 74 31 74 31 104 44 c 0,42,43
 120 54 120 54 130 74 c 0,44,45
 142 102 142 102 142 170 c 2,46,-1
 142 875 l 2,47,48
 142 1008 142 1008 136.5 1038 c 128,-1,49
 131 1068 131 1068 117.5 1080 c 128,-1,50
 104 1092 104 1092 83 1092 c 0,51,52
 64 1092 64 1092 29 1077 c 1,53,-1
 14 1107 l 1,54,-1
 244 1202 l 1,55,-1
 283 1202 l 1,0,-1
EndSplineSet
EndChar

StartChar: l
Encoding: 108 108 70
Width: 481
Flags: W
LayerCount: 2
Fore
SplineSet
320 1202 m 1,0,-1
 320 176 l 2,1,2
 320 103 320 103 330.5 79 c 128,-1,3
 341 55 341 55 363.5 43 c 128,-1,4
 386 31 386 31 445 31 c 1,5,-1
 445 0 l 1,6,-1
 65 0 l 1,7,-1
 65 31 l 1,8,9
 119 31 119 31 138.5 42 c 128,-1,10
 158 53 158 53 169 78.5 c 128,-1,11
 180 104 180 104 180 176 c 2,12,-1
 180 877 l 2,13,14
 180 1008 180 1008 174 1038 c 128,-1,15
 168 1068 168 1068 154.5 1079.5 c 128,-1,16
 141 1091 141 1091 122 1091 c 0,17,18
 99 1091 99 1091 65 1077 c 1,19,-1
 52 1107 l 1,20,-1
 282 1202 l 1,21,-1
 320 1202 l 1,0,-1
EndSplineSet
EndChar

StartChar: m
Encoding: 109 109 71
Width: 1345
Flags: W
LayerCount: 2
Fore
SplineSet
284 632 m 1,0,1
 369 716 369 716 383 729 c 0,2,3
 421 761 421 761 465 778.5 c 128,-1,4
 509 796 509 796 552 796 c 0,5,6
 625 796 625 796 677.5 753.5 c 128,-1,7
 730 711 730 711 748 632 c 1,8,9
 834 732 834 732 894 764 c 128,-1,10
 954 796 954 796 1018 796 c 0,11,12
 1079 796 1079 796 1127 764 c 128,-1,13
 1175 732 1175 732 1203 661 c 0,14,15
 1222 612 1222 612 1222 508 c 2,16,-1
 1222 176 l 2,17,18
 1222 103 1222 103 1233 75 c 0,19,20
 1240 57 1240 57 1263 44 c 128,-1,21
 1286 31 1286 31 1338 31 c 1,22,-1
 1338 0 l 1,23,-1
 957 0 l 1,24,-1
 957 31 l 1,25,-1
 972 31 l 2,26,27
 1022 31 1022 31 1049 50 c 0,28,29
 1069 63 1069 63 1078 93 c 0,30,31
 1081 108 1081 108 1081 176 c 2,32,-1
 1081 508 l 2,33,34
 1081 602 1081 602 1058 641 c 0,35,36
 1025 695 1025 695 952 695 c 0,37,38
 908 695 908 695 862.5 673 c 128,-1,39
 817 651 817 651 754 589 c 1,40,-1
 752 581 l 1,41,-1
 754 543 l 1,42,-1
 754 176 l 2,43,44
 754 95 754 95 762.5 76 c 128,-1,45
 771 57 771 57 796 44 c 128,-1,46
 821 31 821 31 879 31 c 1,47,-1
 879 0 l 1,48,-1
 488 0 l 1,49,-1
 488 31 l 1,50,51
 552 31 552 31 576.5 46 c 128,-1,52
 601 61 601 61 611 91 c 0,53,54
 614 106 614 106 614 176 c 2,55,-1
 614 508 l 2,56,57
 614 602 614 602 586 644 c 0,58,59
 549 698 549 698 483 698 c 0,60,61
 437 698 437 698 392 674 c 0,62,63
 322 636 322 636 284 589 c 1,64,-1
 284 176 l 2,65,66
 284 99 284 99 294.5 76 c 128,-1,67
 305 53 305 53 326 42 c 128,-1,68
 347 31 347 31 410 31 c 1,69,-1
 410 0 l 1,70,-1
 28 0 l 1,71,-1
 28 31 l 1,72,73
 81 31 81 31 102 42 c 128,-1,74
 123 53 123 53 134 78.5 c 128,-1,75
 145 104 145 104 145 176 c 2,76,-1
 145 471 l 2,77,78
 145 598 145 598 137 636 c 0,79,80
 131 663 131 663 118.5 673.5 c 128,-1,81
 106 684 106 684 84 684 c 0,82,83
 60 684 60 684 28 672 c 1,84,-1
 14 703 l 1,85,-1
 247 796 l 1,86,-1
 284 796 l 1,87,-1
 284 632 l 1,0,1
EndSplineSet
EndChar

StartChar: n
Encoding: 110 110 72
Width: 865
Flags: W
LayerCount: 2
Fore
SplineSet
279 633 m 1,0,1
 416 796 416 796 539 796 c 0,2,3
 602 796 602 796 648 764 c 128,-1,4
 694 732 694 732 720 661 c 0,5,6
 739 611 739 611 739 505 c 2,7,-1
 739 176 l 2,8,9
 739 102 739 102 751 75 c 0,10,11
 760 54 760 54 781 42.5 c 128,-1,12
 802 31 802 31 857 31 c 1,13,-1
 857 0 l 1,14,-1
 475 0 l 1,15,-1
 475 31 l 1,16,-1
 492 31 l 2,17,18
 545 31 545 31 566.5 47 c 128,-1,19
 588 63 588 63 596 95 c 0,20,21
 600 108 600 108 600 176 c 2,22,-1
 600 492 l 2,23,24
 600 598 600 598 572.5 645.5 c 128,-1,25
 545 693 545 693 479 693 c 0,26,27
 379 693 379 693 279 583 c 1,28,-1
 279 176 l 2,29,30
 279 96 279 96 289 78 c 0,31,32
 300 53 300 53 321 42 c 128,-1,33
 342 31 342 31 405 31 c 1,34,-1
 405 0 l 1,35,-1
 23 0 l 1,36,-1
 23 31 l 1,37,-1
 40 31 l 2,38,39
 99 31 99 31 119.5 61 c 128,-1,40
 140 91 140 91 140 176 c 2,41,-1
 140 463 l 2,42,43
 140 602 140 602 134 632 c 128,-1,44
 128 662 128 662 115 673 c 128,-1,45
 102 684 102 684 79 684 c 256,46,47
 56 684 56 684 23 672 c 1,48,-1
 11 703 l 1,49,-1
 243 796 l 1,50,-1
 279 796 l 1,51,-1
 279 633 l 1,0,1
EndSplineSet
EndChar

StartChar: o
Encoding: 111 111 73
Width: 865
Flags: W
LayerCount: 2
Fore
SplineSet
433 796 m 0,0,1
 609 796 609 796 715 663 c 0,2,3
 804 549 804 549 804 401 c 0,4,5
 804 298 804 298 755 191 c 128,-1,6
 706 84 706 84 618 30.5 c 128,-1,7
 530 -23 530 -23 423 -23 c 0,8,9
 248 -23 248 -23 146 116 c 0,10,11
 59 233 59 233 59 379 c 0,12,13
 59 486 59 486 111 591 c 128,-1,14
 163 696 163 696 249.5 746 c 128,-1,15
 336 796 336 796 433 796 c 0,0,1
407 741 m 0,16,17
 361 741 361 741 316.5 714.5 c 128,-1,18
 272 688 272 688 243.5 622 c 128,-1,19
 215 556 215 556 215 450 c 0,20,21
 215 281 215 281 282 158.5 c 128,-1,22
 349 36 349 36 460 36 c 0,23,24
 541 36 541 36 594.5 103.5 c 128,-1,25
 648 171 648 171 648 336 c 0,26,27
 648 542 648 542 560 661 c 0,28,29
 499 741 499 741 407 741 c 0,16,17
EndSplineSet
EndChar

StartChar: p
Encoding: 112 112 74
Width: 865
Flags: W
LayerCount: 2
Fore
SplineSet
-2 697 m 1,0,-1
 236 793 l 1,1,-1
 268 793 l 1,2,-1
 268 612 l 1,3,4
 328 715 328 715 389 755.5 c 128,-1,5
 450 796 450 796 516 796 c 0,6,7
 633 796 633 796 710 706 c 0,8,9
 805 593 805 593 805 415 c 0,10,11
 805 214 805 214 690 84 c 0,12,13
 596 -23 596 -23 453 -23 c 0,14,15
 391 -23 391 -23 345 -7 c 0,16,17
 310 7 310 7 268 44 c 1,18,-1
 268 -191 l 2,19,20
 268 -271 268 -271 278 -292.5 c 128,-1,21
 288 -314 288 -314 312 -326.5 c 128,-1,22
 336 -339 336 -339 399 -339 c 1,23,-1
 399 -370 l 1,24,-1
 -7 -370 l 1,25,-1
 -7 -339 l 1,26,-1
 14 -339 l 2,27,28
 61 -340 61 -340 95 -321 c 0,29,30
 111 -312 111 -312 120 -291.5 c 128,-1,31
 129 -271 129 -271 129 -186 c 2,32,-1
 129 546 l 2,33,34
 129 621 129 621 122 641 c 128,-1,35
 115 661 115 661 100 672 c 128,-1,36
 85 683 85 683 60 683 c 0,37,38
 40 683 40 683 9 669 c 1,39,-1
 -2 697 l 1,0,-1
268 563 m 1,40,-1
 268 274 l 2,41,42
 268 180 268 180 276 150 c 0,43,44
 288 102 288 102 334 65 c 128,-1,45
 380 28 380 28 450 28 c 0,46,47
 535 28 535 28 588 93 c 0,48,49
 656 180 656 180 656 336 c 0,50,51
 656 514 656 514 578 609 c 0,52,53
 524 674 524 674 450 674 c 0,54,55
 409 674 409 674 370 654 c 0,56,57
 339 638 339 638 268 563 c 1,40,-1
EndSplineSet
EndChar

StartChar: q
Encoding: 113 113 75
Width: 865
Flags: W
LayerCount: 2
Fore
SplineSet
739 796 m 1,0,-1
 739 -199 l 2,1,2
 739 -273 739 -273 749 -294 c 128,-1,3
 759 -315 759 -315 781 -327 c 128,-1,4
 803 -339 803 -339 865 -339 c 1,5,-1
 865 -370 l 1,6,-1
 475 -370 l 1,7,-1
 475 -339 l 1,8,-1
 492 -339 l 2,9,10
 539 -339 539 -339 563 -325 c 0,11,12
 580 -316 580 -316 590 -292 c 128,-1,13
 600 -268 600 -268 600 -199 c 2,14,-1
 600 134 l 1,15,16
 522 43 522 43 465 10 c 128,-1,17
 408 -23 408 -23 347 -23 c 0,18,19
 234 -23 234 -23 145.5 78.5 c 128,-1,20
 57 180 57 180 57 352 c 0,21,22
 57 549 57 549 173.5 672.5 c 128,-1,23
 290 796 290 796 455 796 c 0,24,25
 504 796 504 796 544.5 783 c 128,-1,26
 585 770 585 770 616 742 c 1,27,28
 665 767 665 767 710 796 c 1,29,-1
 739 796 l 1,0,-1
600 188 m 1,30,-1
 600 551 l 2,31,32
 600 614 600 614 583.5 650 c 128,-1,33
 567 686 567 686 525 711.5 c 128,-1,34
 483 737 483 737 429 737 c 0,35,36
 335 737 335 737 267.5 657 c 128,-1,37
 200 577 200 577 200 414 c 0,38,39
 200 257 200 257 268.5 176 c 128,-1,40
 337 95 337 95 434 95 c 0,41,42
 484 95 484 95 523 116.5 c 128,-1,43
 562 138 562 138 600 188 c 1,30,-1
EndSplineSet
EndChar

StartChar: r
Encoding: 114 114 76
Width: 635
Flags: W
LayerCount: 2
Fore
SplineSet
281 796 m 1,0,-1
 281 593 l 1,1,2
 412 783 412 783 514 783 c 0,3,4
 560 783 560 783 590.5 755.5 c 128,-1,5
 621 728 621 728 621 690 c 0,6,7
 621 657 621 657 599 634.5 c 128,-1,8
 577 612 577 612 547 612 c 256,9,10
 517 612 517 612 480.5 640.5 c 128,-1,11
 444 669 444 669 425 669 c 0,12,13
 411 669 411 669 393 653 c 0,14,15
 355 619 355 619 281 521 c 1,16,-1
 281 180 l 2,17,18
 281 116 281 116 297 84 c 0,19,20
 307 61 307 61 335 46 c 128,-1,21
 363 31 363 31 416 31 c 1,22,-1
 416 0 l 1,23,-1
 19 0 l 1,24,-1
 19 31 l 1,25,26
 78 31 78 31 108 49 c 0,27,28
 129 62 129 62 137 92 c 0,29,30
 141 107 141 107 141 175 c 2,31,-1
 141 474 l 2,32,33
 141 610 141 610 135.5 635.5 c 128,-1,34
 130 661 130 661 115.5 672.5 c 128,-1,35
 101 684 101 684 78 684 c 0,36,37
 53 684 53 684 19 672 c 1,38,-1
 11 703 l 1,39,-1
 245 796 l 1,40,-1
 281 796 l 1,0,-1
EndSplineSet
EndChar

StartChar: s
Encoding: 115 115 77
Width: 674
Flags: W
LayerCount: 2
Fore
SplineSet
554 796 m 1,0,-1
 554 533 l 1,1,-1
 526 533 l 1,2,3
 494 657 494 657 444 702 c 128,-1,4
 394 747 394 747 316 747 c 0,5,6
 256 747 256 747 219.5 715.5 c 128,-1,7
 183 684 183 684 183 646 c 0,8,9
 183 599 183 599 211 564 c 0,10,11
 238 530 238 530 318 492 c 2,12,-1
 442 432 l 2,13,14
 612 348 612 348 612 211 c 0,15,16
 612 106 612 106 532.5 41.5 c 128,-1,17
 453 -23 453 -23 354 -23 c 0,18,19
 283 -23 283 -23 192 2 c 0,20,21
 163 11 163 11 146 11 c 0,22,23
 127 11 127 11 116 -12 c 1,24,-1
 87 -12 l 1,25,-1
 87 264 l 1,26,-1
 116 264 l 1,27,28
 139 146 139 146 206 86.5 c 128,-1,29
 273 27 273 27 356 27 c 0,30,31
 414 27 414 27 451 61 c 128,-1,32
 488 95 488 95 488 142 c 0,33,34
 488 201 488 201 446.5 241 c 128,-1,35
 405 281 405 281 282.5 341.5 c 128,-1,36
 160 402 160 402 123 451 c 0,37,38
 84 499 84 499 84 572 c 0,39,40
 84 668 84 668 149.5 732 c 128,-1,41
 215 796 215 796 319 796 c 0,42,43
 366 796 366 796 430 778 c 0,44,45
 473 764 473 764 488 764 c 0,46,47
 500 764 500 764 508 770.5 c 128,-1,48
 516 777 516 777 526 796 c 1,49,-1
 554 796 l 1,0,-1
EndSplineSet
EndChar

StartChar: t
Encoding: 116 116 78
Width: 481
Flags: W
LayerCount: 2
Fore
SplineSet
278 1028 m 1,0,-1
 278 774 l 1,1,-1
 460 774 l 1,2,-1
 460 715 l 1,3,-1
 278 715 l 1,4,-1
 278 213 l 2,5,6
 278 137 278 137 300 111 c 128,-1,7
 322 85 322 85 356 85 c 0,8,9
 383 85 383 85 409.5 102.5 c 128,-1,10
 436 120 436 120 450 155 c 1,11,-1
 484 155 l 1,12,13
 454 71 454 71 400 29.5 c 128,-1,14
 346 -12 346 -12 288 -12 c 0,15,16
 250 -12 250 -12 213 9.5 c 128,-1,17
 176 31 176 31 157.5 71 c 128,-1,18
 139 111 139 111 139 194 c 2,19,-1
 139 715 l 1,20,-1
 17 715 l 1,21,-1
 17 742 l 1,22,23
 63 761 63 761 111.5 806 c 128,-1,24
 160 851 160 851 199 910 c 0,25,26
 218 943 218 943 252 1028 c 1,27,-1
 278 1028 l 1,0,-1
EndSplineSet
EndChar

StartChar: u
Encoding: 117 117 79
Width: 865
Flags: W
LayerCount: 2
Fore
SplineSet
732 774 m 1,0,-1
 732 305 l 2,1,2
 732 171 732 171 739 141 c 128,-1,3
 746 111 746 111 759.5 98.5 c 128,-1,4
 773 86 773 86 792 86 c 0,5,6
 817 86 817 86 852 102 c 1,7,-1
 863 72 l 1,8,-1
 632 -23 l 1,9,-1
 593 -23 l 1,10,-1
 593 140 l 1,11,12
 493 32 493 32 441 4.5 c 128,-1,13
 389 -23 389 -23 330 -23 c 0,14,15
 265 -23 265 -23 217.5 14.5 c 128,-1,16
 170 52 170 52 151.5 111 c 128,-1,17
 133 170 133 170 133 277 c 2,18,-1
 133 623 l 2,19,20
 133 678 133 678 120.5 699 c 128,-1,21
 108 720 108 720 85 731.5 c 128,-1,22
 62 743 62 743 2 742 c 1,23,-1
 2 774 l 1,24,-1
 273 774 l 1,25,-1
 273 255 l 2,26,27
 273 148 273 148 310.5 114.5 c 128,-1,28
 348 81 348 81 401 81 c 0,29,30
 437 81 437 81 483.5 103.5 c 128,-1,31
 530 126 530 126 593 190 c 1,32,-1
 593 628 l 2,33,34
 593 695 593 695 569 718 c 128,-1,35
 545 741 545 741 468 742 c 1,36,-1
 468 774 l 1,37,-1
 732 774 l 1,0,-1
EndSplineSet
EndChar

StartChar: v
Encoding: 118 118 80
Width: 865
Flags: W
LayerCount: 2
Fore
SplineSet
14 774 m 1,0,-1
 378 774 l 1,1,-1
 378 742 l 1,2,-1
 355 742 l 2,3,4
 322 742 322 742 304.5 726 c 128,-1,5
 287 710 287 710 287 684 c 0,6,7
 287 654 287 654 305 613 c 2,8,-1
 485 186 l 1,9,-1
 665 630 l 2,10,11
 685 677 685 677 685 701 c 0,12,13
 685 713 685 713 678 720 c 0,14,15
 669 732 669 732 654.5 737 c 128,-1,16
 640 742 640 742 596 742 c 1,17,-1
 596 774 l 1,18,-1
 849 774 l 1,19,-1
 849 742 l 1,20,21
 804 739 804 739 788 725 c 0,22,23
 758 699 758 699 735 640 c 2,24,-1
 461 -23 l 1,25,-1
 425 -23 l 1,26,-1
 150 630 l 2,27,28
 131 675 131 675 114 695 c 128,-1,29
 97 715 97 715 71 729 c 0,30,31
 57 736 57 736 14 742 c 1,32,-1
 14 774 l 1,0,-1
EndSplineSet
EndChar

StartChar: w
Encoding: 119 119 81
Width: 1249
Flags: W
LayerCount: 2
Fore
SplineSet
11 774 m 1,0,-1
 336 774 l 1,1,-1
 336 742 l 1,2,3
 290 739 290 739 276.5 726.5 c 128,-1,4
 263 714 263 714 263 690 c 0,5,6
 263 664 263 664 276 627 c 2,7,-1
 443 181 l 1,8,-1
 610 543 l 1,9,-1
 564 658 l 2,10,11
 545 708 545 708 512 729 c 0,12,13
 493 740 493 740 443 742 c 1,14,-1
 443 774 l 1,15,-1
 811 774 l 1,16,-1
 811 742 l 1,17,18
 750 740 750 740 725 720 c 0,19,20
 708 708 708 708 708 678 c 0,21,22
 708 661 708 661 715 643 c 2,23,-1
 890 199 l 1,24,-1
 1054 627 l 2,25,26
 1070 673 1070 673 1070 699 c 0,27,28
 1070 716 1070 716 1053.5 728.5 c 128,-1,29
 1037 741 1037 741 990 742 c 1,30,-1
 990 774 l 1,31,-1
 1234 774 l 1,32,-1
 1234 742 l 1,33,34
 1160 732 1160 732 1126 643 c 2,35,-1
 867 -23 l 1,36,-1
 832 -23 l 1,37,-1
 638 471 l 1,38,-1
 413 -23 l 1,39,-1
 382 -23 l 1,40,-1
 133 627 l 2,41,42
 108 688 108 688 84.5 710 c 128,-1,43
 61 732 61 732 11 742 c 1,44,-1
 11 774 l 1,0,-1
EndSplineSet
EndChar

StartChar: x
Encoding: 120 120 82
Width: 865
Flags: W
LayerCount: 2
Fore
SplineSet
23 774 m 1,0,-1
 387 774 l 1,1,-1
 387 742 l 1,2,3
 352 742 352 742 338 730.5 c 128,-1,4
 324 719 324 719 324 699 c 256,5,6
 324 679 324 679 354 636 c 0,7,8
 363 623 363 623 382 594 c 2,9,-1
 437 507 l 1,10,-1
 500 594 l 2,11,12
 561 678 561 678 561 700 c 0,13,14
 561 718 561 718 546.5 730 c 128,-1,15
 532 742 532 742 500 742 c 1,16,-1
 500 774 l 1,17,-1
 762 774 l 1,18,-1
 762 742 l 1,19,20
 720 740 720 740 690 720 c 0,21,22
 648 690 648 690 577 594 c 2,23,-1
 471 454 l 1,24,-1
 664 177 l 2,25,26
 735 74 735 74 765.5 53.5 c 128,-1,27
 796 33 796 33 844 31 c 1,28,-1
 844 0 l 1,29,-1
 479 0 l 1,30,-1
 479 31 l 1,31,32
 517 31 517 31 539 48 c 0,33,34
 554 60 554 60 554 78 c 0,35,36
 554 98 554 98 500 177 c 2,37,-1
 387 342 l 1,38,-1
 263 177 l 2,39,40
 204 99 204 99 204 85 c 0,41,42
 204 65 204 65 223.5 48.5 c 128,-1,43
 243 32 243 32 281 31 c 1,44,-1
 281 0 l 1,45,-1
 29 0 l 1,46,-1
 29 31 l 1,47,48
 60 35 60 35 83 52 c 0,49,50
 114 76 114 76 190 177 c 2,51,-1
 352 392 l 1,52,-1
 204 605 l 2,53,54
 142 696 142 696 108 719 c 128,-1,55
 74 742 74 742 23 742 c 1,56,-1
 23 774 l 1,0,-1
EndSplineSet
EndChar

StartChar: y
Encoding: 121 121 83
Width: 865
Flags: W
LayerCount: 2
Fore
SplineSet
11 774 m 1,0,-1
 371 774 l 1,1,-1
 371 742 l 1,2,-1
 352 742 l 2,3,4
 315 742 315 742 295.5 725.5 c 128,-1,5
 276 709 276 709 276 685 c 0,6,7
 276 653 276 653 305 593 c 2,8,-1
 493 204 l 1,9,-1
 666 632 l 2,10,11
 682 665 682 665 682 699 c 0,12,13
 682 715 682 715 675 722 c 0,14,15
 668 732 668 732 654 737 c 128,-1,16
 640 742 640 742 603 742 c 1,17,-1
 603 774 l 1,18,-1
 855 774 l 1,19,-1
 855 742 l 1,20,21
 824 739 824 739 807 729 c 128,-1,22
 790 719 790 719 770 690 c 0,23,24
 762 679 762 679 741 626 c 2,25,-1
 425 -146 l 2,26,27
 380 -259 380 -259 306 -316 c 128,-1,28
 232 -373 232 -373 163 -373 c 0,29,30
 114 -373 114 -373 82 -344.5 c 128,-1,31
 50 -316 50 -316 50 -278 c 0,32,33
 50 -243 50 -243 73 -222 c 128,-1,34
 96 -201 96 -201 137 -201 c 0,35,36
 165 -201 165 -201 213 -219 c 0,37,38
 247 -231 247 -231 255 -231 c 0,39,40
 281 -231 281 -231 310.5 -205.5 c 128,-1,41
 340 -180 340 -180 371 -104 c 2,42,-1
 425 31 l 1,43,-1
 148 614 l 2,44,45
 135 640 135 640 108 679 c 0,46,47
 86 708 86 708 73 719 c 0,48,49
 53 732 53 732 11 742 c 1,50,-1
 11 774 l 1,0,-1
EndSplineSet
EndChar

StartChar: z
Encoding: 122 122 84
Width: 768
Flags: W
LayerCount: 2
Fore
SplineSet
727 238 m 1,0,-1
 717 0 l 1,1,-1
 35 0 l 1,2,-1
 35 31 l 1,3,-1
 548 715 l 1,4,-1
 295 715 l 2,5,6
 213 715 213 715 187.5 704.5 c 128,-1,7
 162 694 162 694 146 664 c 0,8,9
 124 622 124 622 120 560 c 1,10,-1
 86 560 l 1,11,-1
 91 774 l 1,12,-1
 740 774 l 1,13,-1
 740 742 l 1,14,-1
 222 57 l 1,15,-1
 504 57 l 2,16,17
 592 57 592 57 624 71.5 c 128,-1,18
 656 86 656 86 675 124 c 0,19,20
 688 150 688 150 698 238 c 1,21,-1
 727 238 l 1,0,-1
EndSplineSet
EndChar

StartChar: braceleft
Encoding: 123 123 85
Width: 830
Flags: W
LayerCount: 2
Fore
SplineSet
710 -345 m 1,0,-1
 710 -373 l 1,1,2
 569 -354 569 -354 481 -259 c 128,-1,3
 393 -164 393 -164 393 -49 c 0,4,5
 393 12 393 12 412.5 93.5 c 128,-1,6
 432 175 432 175 432 219 c 0,7,8
 432 279 432 279 380.5 332.5 c 128,-1,9
 329 386 329 386 239 397 c 1,10,-1
 239 432 l 1,11,12
 329 444 329 444 380.5 496 c 128,-1,13
 432 548 432 548 432 611 c 0,14,15
 432 655 432 655 412.5 735 c 128,-1,16
 393 815 393 815 393 876 c 0,17,18
 393 992 393 992 481 1087.5 c 128,-1,19
 569 1183 569 1183 710 1202 c 1,20,-1
 710 1172 l 1,21,22
 612 1148 612 1148 565.5 1095 c 128,-1,23
 519 1042 519 1042 519 977 c 0,24,25
 519 927 519 927 538.5 845 c 128,-1,26
 558 763 558 763 558 707 c 0,27,28
 558 621 558 621 495.5 541 c 128,-1,29
 433 461 433 461 308 416 c 1,30,31
 430 372 430 372 494 290 c 128,-1,32
 558 208 558 208 558 123 c 0,33,34
 558 65 558 65 538.5 -16.5 c 128,-1,35
 519 -98 519 -98 519 -148 c 0,36,37
 519 -212 519 -212 565.5 -265.5 c 128,-1,38
 612 -319 612 -319 710 -345 c 1,0,-1
EndSplineSet
EndChar

StartChar: bar
Encoding: 124 124 86
Width: 347
Flags: W
LayerCount: 2
Fore
SplineSet
206 1202 m 1,0,-1
 206 -373 l 1,1,-1
 136 -373 l 1,2,-1
 136 1202 l 1,3,-1
 206 1202 l 1,0,-1
EndSplineSet
EndChar

StartChar: asciitilde
Encoding: 126 126 87
Width: 936
Flags: W
LayerCount: 2
Fore
SplineSet
880 570 m 1,0,-1
 919 570 l 1,1,2
 915 461 915 461 855.5 398.5 c 128,-1,3
 796 336 796 336 711 336 c 0,4,5
 673 336 673 336 628 349 c 128,-1,6
 583 362 583 362 396 439 c 0,7,8
 266 492 266 492 211 492 c 0,9,10
 152 492 152 492 111.5 456 c 128,-1,11
 71 420 71 420 54 338 c 1,12,-1
 17 338 l 1,13,14
 22 452 22 452 79.5 512 c 128,-1,15
 137 572 137 572 214 572 c 0,16,17
 252 572 252 572 290 561 c 0,18,19
 378 536 378 536 521.5 474.5 c 128,-1,20
 665 413 665 413 724 413 c 0,21,22
 787 413 787 413 830 453.5 c 128,-1,23
 873 494 873 494 880 570 c 1,0,-1
EndSplineSet
EndChar

StartChar: ccedilla
Encoding: 231 231 90
Width: 805
Flags: W
LayerCount: 2
Fore
SplineSet
775 198 m 1,0,-1
 764 142 l 1,1,2
 616 37 616 37 445 -9 c 1,3,-1
 408 -65 l 1,4,5
 481 -86 481 -86 481 -146 c 0,6,7
 481 -197 481 -197 424.5 -240.5 c 128,-1,8
 368 -284 368 -284 301 -284 c 0,9,10
 272 -284 272 -284 232 -277 c 1,11,-1
 287 -201 l 1,12,13
 322 -223 322 -223 348 -223 c 0,14,15
 412 -223 412 -223 412 -172 c 0,16,17
 412 -117 412 -117 311 -111 c 1,18,-1
 376 -19 l 1,19,20
 145 5 145 5 145 228 c 0,21,22
 145 445 145 445 302 622 c 128,-1,23
 459 799 459 799 652 799 c 0,24,25
 736 799 736 799 819 762 c 1,26,-1
 770 578 l 1,27,-1
 725 578 l 1,28,-1
 728 589 l 2,29,30
 735 622 735 622 735 638 c 0,31,32
 735 737 735 737 599 737 c 0,33,34
 475 737 475 737 382.5 595 c 128,-1,35
 290 453 290 453 290 263 c 0,36,37
 290 62 290 62 446 62 c 0,38,39
 563 62 563 62 775 198 c 1,0,-1
EndSplineSet
EndChar

StartChar: icircumflex
Encoding: 238 238 95
Width: 468
Flags: W
LayerCount: 2
Fore
SplineSet
328 0 m 1,0,-1
 140 0 l 1,1,-1
 140 1117 l 1,2,-1
 328 1117 l 1,3,-1
 328 0 l 1,0,-1
521 1297 m 1,4,-1
 370 1297 l 1,5,-1
 231 1560 l 1,6,-1
 93 1297 l 1,7,-1
 -54 1297 l 1,8,-1
 120 1676 l 1,9,-1
 347 1676 l 1,10,-1
 521 1297 l 1,4,-1
EndSplineSet
EndChar

StartChar: idieresis
Encoding: 239 239 96
Width: 468
Flags: W
LayerCount: 2
Fore
SplineSet
328 0 m 1,0,-1
 140 0 l 1,1,-1
 140 1117 l 1,2,-1
 328 1117 l 1,3,-1
 328 0 l 1,0,-1
506 1304 m 1,4,-1
 317 1304 l 1,5,-1
 317 1499 l 1,6,-1
 506 1499 l 1,7,-1
 506 1304 l 1,4,-1
151 1304 m 1,8,-1
 -38 1304 l 1,9,-1
 -38 1499 l 1,10,-1
 151 1499 l 1,11,-1
 151 1304 l 1,8,-1
EndSplineSet
EndChar

StartChar: dagger
Encoding: 8224 8224 101
Width: 932
Flags: W
LayerCount: 2
Fore
SplineSet
347 -231 m 1,0,-1
 567 622 l 1,1,-1
 248 592 l 1,2,-1
 297 700 l 1,3,-1
 576 668 l 1,4,-1
 607 1066 l 1,5,-1
 755 1093 l 1,6,-1
 621 668 l 1,7,-1
 941 700 l 1,8,-1
 895 592 l 1,9,-1
 612 622 l 1,10,-1
 496 -213 l 1,11,-1
 347 -231 l 1,0,-1
EndSplineSet
EndChar

StartChar: degree
Encoding: 176 176 102
Width: 409
Flags: W
LayerCount: 2
Fore
SplineSet
395 844 m 0,0,1
 344 844 344 844 307.5 880 c 128,-1,2
 271 916 271 916 271 968 c 0,3,4
 271 1021 271 1021 307.5 1057 c 128,-1,5
 344 1093 344 1093 395 1093 c 0,6,7
 447 1093 447 1093 483 1057 c 128,-1,8
 519 1021 519 1021 519 968 c 0,9,10
 519 916 519 916 483 880 c 128,-1,11
 447 844 447 844 395 844 c 0,0,1
395 888 m 256,12,13
 427 888 427 888 450.5 912 c 128,-1,14
 474 936 474 936 474 968 c 256,15,16
 474 1000 474 1000 450.5 1024 c 128,-1,17
 427 1048 427 1048 395 1048 c 256,18,19
 363 1048 363 1048 339 1024 c 128,-1,20
 315 1000 315 1000 315 968 c 256,21,22
 315 936 315 936 339 912 c 128,-1,23
 363 888 363 888 395 888 c 256,12,13
EndSplineSet
EndChar

StartChar: cent
Encoding: 162 162 103
Width: 693
Flags: W
LayerCount: 2
Fore
SplineSet
365 -18 m 1,0,-1
 404 176 l 1,1,2
 142 195 142 195 142 355 c 0,3,4
 142 459 142 459 242 534.5 c 128,-1,5
 342 610 342 610 492 622 c 1,6,-1
 527 799 l 1,7,-1
 572 799 l 1,8,-1
 537 622 l 1,9,10
 637 617 637 617 715 601 c 1,11,-1
 689 471 l 1,12,-1
 644 471 l 1,13,14
 644 477 644 477 645 488 c 0,15,16
 648 509 648 509 648 517 c 0,17,18
 648 572 648 572 528 578 c 1,19,-1
 459 229 l 1,20,21
 567 229 567 229 661 280 c 1,22,-1
 650 229 l 1,23,24
 544 176 544 176 448 176 c 1,25,-1
 409 -18 l 1,26,-1
 365 -18 l 1,0,-1
415 232 m 1,27,-1
 484 578 l 1,28,29
 272 547 272 547 272 383 c 0,30,31
 272 255 272 255 415 232 c 1,27,-1
EndSplineSet
EndChar

StartChar: sterling
Encoding: 163 163 104
Width: 874
Flags: W
LayerCount: 2
Fore
SplineSet
17 0 m 1,0,-1
 109 88 l 1,1,-1
 122 88 l 2,2,3
 229 88 229 88 272.5 136.5 c 128,-1,4
 316 185 316 185 347 343 c 2,5,-1
 356 391 l 1,6,-1
 196 391 l 1,7,-1
 205 436 l 1,8,-1
 365 436 l 1,9,-1
 378 499 l 2,10,11
 407 642 407 642 496.5 721 c 128,-1,12
 586 800 586 800 718 800 c 0,13,14
 797 800 797 800 892 765 c 1,15,-1
 858 586 l 1,16,-1
 808 586 l 1,17,-1
 810 598 l 2,18,19
 812 608 812 608 812 620 c 0,20,21
 812 746 812 746 679 746 c 0,22,23
 614 746 614 746 584.5 710 c 128,-1,24
 555 674 555 674 535 569 c 2,25,-1
 508 436 l 1,26,-1
 748 436 l 1,27,-1
 739 391 l 1,28,-1
 499 391 l 1,29,-1
 492 359 l 2,30,31
 473 265 473 265 427.5 208 c 128,-1,32
 382 151 382 151 275 88 c 1,33,-1
 480 88 l 2,34,35
 617 88 617 88 679 102.5 c 128,-1,36
 741 117 741 117 819 167 c 1,37,-1
 808 113 l 1,38,39
 735 35 735 35 665.5 7.5 c 128,-1,40
 596 -20 596 -20 470 -20 c 1,41,-1
 442 -19 l 1,42,-1
 17 0 l 1,0,-1
EndSplineSet
EndChar

StartChar: section
Encoding: 167 167 105
Width: 932
Flags: W
LayerCount: 2
Fore
SplineSet
107 -153 m 1,0,-1
 232 -80 l 1,1,2
 348 -178 348 -178 481 -178 c 0,3,4
 564 -178 564 -178 621.5 -127.5 c 128,-1,5
 679 -77 679 -77 679 -5 c 0,6,7
 679 48 679 48 645.5 80.5 c 128,-1,8
 612 113 612 113 513 160 c 2,9,-1
 440 193 l 2,10,11
 247 283 247 283 247 409 c 0,12,13
 247 528 247 528 409 652 c 1,14,15
 328 717 328 717 328 815 c 0,16,17
 328 938 328 938 440 1015.5 c 128,-1,18
 552 1093 552 1093 727 1093 c 0,19,20
 814 1093 814 1093 933 1060 c 1,21,-1
 897 879 l 1,22,-1
 853 879 l 1,23,24
 857 904 857 904 857 916 c 0,25,26
 857 1039 857 1039 652 1039 c 0,27,28
 560 1039 560 1039 500.5 987 c 128,-1,29
 441 935 441 935 441 853 c 0,30,31
 441 798 441 798 466 774.5 c 128,-1,32
 491 751 491 751 613 686 c 2,33,-1
 674 652 l 2,34,35
 854 553 854 553 854 444 c 0,36,37
 854 319 854 319 703 200 c 1,38,39
 801 136 801 136 801 40 c 0,40,41
 801 -75 801 -75 684.5 -153 c 128,-1,42
 568 -231 568 -231 397 -231 c 0,43,44
 244 -231 244 -231 107 -153 c 1,0,-1
667 229 m 1,45,46
 747 319 747 319 747 394 c 0,47,48
 747 470 747 470 628 527 c 2,49,-1
 558 562 l 2,50,51
 495 593 495 593 445 625 c 1,52,53
 355 545 355 545 355 456 c 0,54,55
 355 382 355 382 474 326 c 2,56,-1
 571 279 l 2,57,58
 607 263 607 263 667 229 c 1,45,46
EndSplineSet
EndChar

StartChar: bullet
Encoding: 8226 8226 106
Width: 931
Flags: W
LayerCount: 2
Fore
SplineSet
817 662 m 256,0,1
 817 517 817 517 713.5 414 c 128,-1,2
 610 311 610 311 465 311 c 256,3,4
 320 311 320 311 217 414 c 128,-1,5
 114 517 114 517 114 662 c 256,6,7
 114 807 114 807 217 910 c 128,-1,8
 320 1013 320 1013 465 1013 c 256,9,10
 610 1013 610 1013 713.5 910 c 128,-1,11
 817 807 817 807 817 662 c 256,0,1
EndSplineSet
EndChar

StartChar: paragraph
Encoding: 182 182 107
Width: 932
Flags: W
LayerCount: 2
Fore
SplineSet
365 -239 m 1,0,-1
 511 496 l 1,1,2
 241 542 241 542 241 747 c 0,3,4
 241 876 241 876 346.5 968 c 128,-1,5
 452 1060 452 1060 628 1085 c 1,6,-1
 660 1244 l 1,7,-1
 704 1244 l 1,8,-1
 673 1085 l 1,9,-1
 703 1086 l 2,10,11
 744 1086 744 1086 796 1080 c 1,12,-1
 828 1244 l 1,13,-1
 873 1244 l 1,14,-1
 839 1071 l 1,15,16
 891 1057 891 1057 948 1036 c 1,17,-1
 938 988 l 1,18,19
 898 1005 898 1005 830 1024 c 1,20,-1
 742 586 l 1,21,22
 794 603 794 603 869 643 c 1,23,-1
 859 586 l 1,24,25
 794 549 794 549 732 530 c 1,26,-1
 578 -239 l 1,27,-1
 534 -239 l 1,28,-1
 684 514 l 1,29,30
 597 496 597 496 556 496 c 1,31,-1
 409 -239 l 1,32,-1
 365 -239 l 1,0,-1
695 568 m 1,33,-1
 787 1031 l 1,34,35
 738 1040 738 1040 704 1040 c 0,36,37
 691 1040 691 1040 664 1039 c 1,38,-1
 567 553 l 1,39,40
 625 553 625 553 695 568 c 1,33,-1
EndSplineSet
EndChar

StartChar: registered
Encoding: 174 174 108
Width: 897
Flags: W
LayerCount: 2
Fore
SplineSet
580 445 m 0,0,1
 448 445 448 445 354.5 538.5 c 128,-1,2
 261 632 261 632 261 764 c 256,3,4
 261 896 261 896 354.5 990 c 128,-1,5
 448 1084 448 1084 580 1084 c 0,6,7
 714 1084 714 1084 807 990 c 128,-1,8
 900 896 900 896 900 764 c 256,9,10
 900 632 900 632 806.5 538.5 c 128,-1,11
 713 445 713 445 580 445 c 0,0,1
580 484 m 0,12,13
 695 484 695 484 777.5 567 c 128,-1,14
 860 650 860 650 860 764 c 256,15,16
 860 878 860 878 777.5 961 c 128,-1,17
 695 1044 695 1044 580 1044 c 0,18,19
 466 1044 466 1044 383.5 961 c 128,-1,20
 301 878 301 878 301 764 c 256,21,22
 301 650 301 650 383.5 567 c 128,-1,23
 466 484 466 484 580 484 c 0,12,13
529 737 m 1,24,-1
 501 596 l 1,25,-1
 394 596 l 1,26,-1
 403 639 l 1,27,-1
 456 639 l 1,28,-1
 511 915 l 1,29,-1
 458 915 l 1,30,-1
 466 959 l 1,31,-1
 598 959 l 2,32,33
 751 959 751 959 751 875 c 0,34,35
 751 800 751 800 650 750 c 1,36,-1
 685 639 l 1,37,-1
 747 639 l 1,38,-1
 738 596 l 1,39,-1
 641 596 l 1,40,-1
 591 737 l 1,41,-1
 529 737 l 1,24,-1
538 782 m 1,42,-1
 574 782 l 2,43,44
 697 782 697 782 697 866 c 0,45,46
 697 915 697 915 607 915 c 2,47,-1
 564 915 l 1,48,-1
 538 782 l 1,42,-1
EndSplineSet
EndChar

StartChar: copyright
Encoding: 169 169 109
Width: 1244
Flags: W
LayerCount: 2
Fore
SplineSet
725 -27 m 0,0,1
 495 -27 495 -27 330.5 137 c 128,-1,2
 166 301 166 301 166 533 c 256,3,4
 166 765 166 765 330.5 929 c 128,-1,5
 495 1093 495 1093 725 1093 c 0,6,7
 958 1093 958 1093 1122 929 c 128,-1,8
 1286 765 1286 765 1286 533 c 256,9,10
 1286 301 1286 301 1122 137 c 128,-1,11
 958 -27 958 -27 725 -27 c 0,0,1
725 18 m 0,12,13
 939 18 939 18 1090 169 c 128,-1,14
 1241 320 1241 320 1241 533 c 256,15,16
 1241 746 1241 746 1090 897 c 128,-1,17
 939 1048 939 1048 725 1048 c 0,18,19
 513 1048 513 1048 362 897 c 128,-1,20
 211 746 211 746 211 533 c 256,21,22
 211 320 211 320 362 169 c 128,-1,23
 513 18 513 18 725 18 c 0,12,13
890 246 m 1,24,25
 785 213 785 213 704 213 c 0,26,27
 580 213 580 213 508 279.5 c 128,-1,28
 436 346 436 346 436 462 c 0,29,30
 436 625 436 625 541 734.5 c 128,-1,31
 646 844 646 844 805 844 c 0,32,33
 896 844 896 844 1003 814 c 1,34,-1
 967 675 l 1,35,-1
 915 684 l 1,36,-1
 923 766 l 1,37,38
 854 798 854 798 792 798 c 0,39,40
 688 798 688 798 616 700 c 128,-1,41
 544 602 544 602 544 462 c 0,42,43
 544 271 544 271 722 271 c 0,44,45
 823 271 823 271 902 307 c 1,46,-1
 890 246 l 1,24,25
EndSplineSet
EndChar

StartChar: trademark
Encoding: 8482 8482 110
Width: 1333
Flags: W
LayerCount: 2
Fore
SplineSet
440 1021 m 1,0,-1
 307 1021 l 1,1,-1
 288 923 l 1,2,-1
 225 923 l 1,3,-1
 254 1066 l 1,4,-1
 751 1066 l 1,5,-1
 723 923 l 1,6,-1
 661 923 l 1,7,-1
 679 1021 l 1,8,-1
 546 1021 l 1,9,-1
 456 569 l 1,10,-1
 554 569 l 1,11,-1
 545 524 l 1,12,-1
 243 524 l 1,13,-1
 253 569 l 1,14,-1
 350 569 l 1,15,-1
 440 1021 l 1,0,-1
1011 569 m 1,16,-1
 942 956 l 1,17,-1
 857 524 l 1,18,-1
 688 524 l 1,19,-1
 697 569 l 1,20,-1
 794 569 l 1,21,-1
 884 1021 l 1,22,-1
 787 1021 l 1,23,-1
 796 1066 l 1,24,-1
 1036 1066 l 1,25,-1
 1092 747 l 1,26,-1
 1265 1066 l 1,27,-1
 1481 1066 l 1,28,-1
 1473 1021 l 1,29,-1
 1375 1021 l 1,30,-1
 1285 569 l 1,31,-1
 1383 569 l 1,32,-1
 1373 524 l 1,33,-1
 1178 524 l 1,34,-1
 1270 985 l 1,35,-1
 1041 569 l 1,36,-1
 1011 569 l 1,16,-1
EndSplineSet
EndChar

StartChar: acute
Encoding: 180 180 111
Width: 256
Flags: W
LayerCount: 2
Fore
SplineSet
118 999 m 1,0,1
 195 1083 195 1083 192 1046 c 1,2,3
 183 1014 183 1014 135.5 924 c 128,-1,4
 88 834 88 834 66 802 c 1,5,6
 55 796 55 796 62 848 c 1,7,8
 83 919 83 919 118 999 c 1,0,1
EndSplineSet
EndChar

StartChar: dieresis
Encoding: 168 168 112
Width: 862
Flags: W
LayerCount: 2
Fore
SplineSet
495 923 m 1,0,-1
 408 1033 l 1,1,-1
 520 1119 l 1,2,-1
 607 1003 l 1,3,-1
 495 923 l 1,0,-1
841 923 m 1,4,-1
 752 1035 l 1,5,-1
 866 1119 l 1,6,-1
 951 1004 l 1,7,-1
 841 923 l 1,4,-1
EndSplineSet
EndChar

StartChar: plusminus
Encoding: 177 177 113
Width: 932
Flags: W
LayerCount: 2
Fore
SplineSet
76 0 m 1,0,-1
 92 80 l 1,1,-1
 873 80 l 1,2,-1
 858 0 l 1,3,-1
 76 0 l 1,0,-1
469 213 m 1,4,-1
 525 493 l 1,5,-1
 174 493 l 1,6,-1
 189 573 l 1,7,-1
 541 573 l 1,8,-1
 596 852 l 1,9,-1
 676 852 l 1,10,-1
 621 573 l 1,11,-1
 971 573 l 1,12,-1
 956 493 l 1,13,-1
 605 493 l 1,14,-1
 549 213 l 1,15,-1
 469 213 l 1,4,-1
EndSplineSet
EndChar

StartChar: yen
Encoding: 165 165 114
Width: 965
Flags: W
LayerCount: 2
Fore
SplineSet
156 0 m 1,0,-1
 247 99 l 1,1,2
 269 97 269 97 279 97 c 0,3,4
 415 97 415 97 477 257 c 1,5,-1
 272 257 l 1,6,-1
 280 301 l 1,7,-1
 489 301 l 1,8,9
 495 346 495 346 499 409 c 1,10,-1
 301 409 l 1,11,-1
 310 453 l 1,12,-1
 499 453 l 1,13,14
 499 465 499 465 499 470 c 0,15,16
 499 567 499 567 463.5 631 c 128,-1,17
 428 695 428 695 375 695 c 256,18,19
 322 695 322 695 250 638 c 128,-1,20
 178 581 178 581 139 509 c 1,21,-1
 106 534 l 1,22,23
 172 650 172 650 268.5 724.5 c 128,-1,24
 365 799 365 799 452 799 c 0,25,26
 612 799 612 799 612 518 c 1,27,-1
 611 472 l 1,28,29
 736 799 736 799 971 799 c 0,30,31
 1045 799 1045 799 1100 765 c 1,32,-1
 1016 653 l 1,33,34
 967 684 967 684 915 684 c 0,35,36
 742 684 742 684 651 453 c 1,37,-1
 835 453 l 1,38,-1
 826 409 l 1,39,-1
 643 409 l 1,40,-1
 634 369 l 2,41,42
 627 335 627 335 609 301 c 1,43,-1
 805 301 l 1,44,-1
 796 257 l 1,45,-1
 585 257 l 1,46,47
 519 138 519 138 389 91 c 1,48,-1
 624 77 l 1,49,-1
 534 -18 l 1,50,-1
 156 0 l 1,0,-1
EndSplineSet
EndChar

StartChar: mu1
Encoding: 181 181 115
Width: 992
Flags: W
LayerCount: 2
Fore
SplineSet
100 -302 m 1,0,-1
 155 -76 l 1,1,-1
 270 500 l 2,2,3
 282 560 282 560 282 611 c 0,4,5
 282 693 282 693 206 782 c 1,6,-1
 368 790 l 1,7,8
 427 740 427 740 427 623 c 0,9,10
 427 576 427 576 409 481 c 2,11,-1
 355 213 l 2,12,13
 347 176 347 176 347 161 c 0,14,15
 347 106 347 106 391 106 c 0,16,17
 446 106 446 106 553.5 229 c 128,-1,18
 661 352 661 352 753 519 c 1,19,-1
 805 782 l 1,20,-1
 958 790 l 1,21,-1
 905 569 l 1,22,-1
 834 213 l 2,23,24
 818 132 818 132 818 106 c 0,25,26
 818 53 818 53 861 53 c 0,27,28
 931 53 931 53 1075 218 c 1,29,-1
 1062 151 l 1,30,31
 905 -18 905 -18 779 -18 c 0,32,33
 675 -18 675 -18 675 91 c 0,34,35
 675 128 675 128 692 213 c 2,36,-1
 727 391 l 1,37,-1
 717 391 l 1,38,39
 517 0 517 0 312 0 c 1,40,-1
 255 -284 l 1,41,-1
 100 -302 l 1,0,-1
EndSplineSet
EndChar

StartChar: logicalnot
Encoding: 172 172 116
Width: 932
Flags: W
LayerCount: 2
Fore
SplineSet
177 510 m 1,0,-1
 193 590 l 1,1,-1
 975 590 l 1,2,-1
 906 248 l 1,3,-1
 814 248 l 1,4,-1
 866 510 l 1,5,-1
 177 510 l 1,0,-1
EndSplineSet
EndChar

StartChar: florin
Encoding: 402 402 117
Width: 679
Flags: W
LayerCount: 2
Fore
SplineSet
158 -231 m 1,0,-1
 210 -18 l 1,1,-1
 286 364 l 1,2,-1
 108 364 l 1,3,-1
 117 409 l 1,4,-1
 294 409 l 1,5,-1
 298 427 l 2,6,7
 330 586 330 586 463 692.5 c 128,-1,8
 596 799 596 799 761 799 c 0,9,10
 818 799 818 799 860 784 c 1,11,-1
 764 678 l 1,12,13
 712 729 712 729 643 729 c 0,14,15
 500 729 500 729 457 512 c 2,16,-1
 436 409 l 1,17,-1
 623 409 l 1,18,-1
 614 364 l 1,19,-1
 427 364 l 1,20,-1
 313 -213 l 1,21,-1
 158 -231 l 1,0,-1
EndSplineSet
EndChar

StartChar: ellipsis
Encoding: 8230 8230 118
Width: 1474
Flags: W
LayerCount: 2
Fore
SplineSet
178 0 m 1,0,-1
 206 142 l 1,1,-1
 348 142 l 1,2,-1
 319 0 l 1,3,-1
 178 0 l 1,0,-1
667 0 m 1,4,-1
 695 142 l 1,5,-1
 837 142 l 1,6,-1
 808 0 l 1,7,-1
 667 0 l 1,4,-1
1155 0 m 1,8,-1
 1183 142 l 1,9,-1
 1326 142 l 1,10,-1
 1297 0 l 1,11,-1
 1155 0 l 1,8,-1
EndSplineSet
EndChar

StartChar: OE
Encoding: 338 338 119
Width: 1477
Flags: W
LayerCount: 2
Fore
SplineSet
816 0 m 1,0,-1
 831 70 l 1,1,2
 711 -27 711 -27 549 -27 c 0,3,4
 371 -27 371 -27 269 81 c 128,-1,5
 167 189 167 189 167 378 c 0,6,7
 167 661 167 661 358 877 c 128,-1,8
 549 1093 549 1093 799 1093 c 0,9,10
 931 1093 931 1093 1017 1007 c 1,11,-1
 1029 1066 l 1,12,-1
 1593 1066 l 1,13,-1
 1529 862 l 1,14,-1
 1484 862 l 1,15,16
 1490 891 1490 891 1490 913 c 0,17,18
 1490 969 1490 969 1424.5 990.5 c 128,-1,19
 1359 1012 1359 1012 1187 1012 c 2,20,-1
 1165 1012 l 1,21,-1
 1082 586 l 1,22,-1
 1402 586 l 1,23,-1
 1329 512 l 1,24,25
 1165 533 1165 533 1107 533 c 2,26,-1
 1071 533 l 1,27,-1
 1012 218 l 2,28,29
 1002 167 1002 167 1002 156 c 0,30,31
 1002 80 1002 80 1228 80 c 0,32,33
 1348 80 1348 80 1453 160 c 1,34,-1
 1442 103 l 1,35,36
 1318 -23 1318 -23 1203 -23 c 0,37,38
 1183 -23 1183 -23 1161 -21 c 2,39,-1
 816 0 l 1,0,-1
888 361 m 2,40,-1
 961 723 l 2,41,42
 974 786 974 786 974 841 c 0,43,44
 974 933 974 933 916.5 990.5 c 128,-1,45
 859 1048 859 1048 769 1048 c 0,46,47
 604 1048 604 1048 466.5 844 c 128,-1,48
 329 640 329 640 329 395 c 0,49,50
 329 218 329 218 396.5 117.5 c 128,-1,51
 464 17 464 17 585 17 c 0,52,53
 818 17 818 17 888 361 c 2,40,-1
EndSplineSet
EndChar

StartChar: oe
Encoding: 339 339 120
Width: 1350
Flags: W
LayerCount: 2
Fore
SplineSet
706 145 m 1,0,1
 535 -18 535 -18 370 -18 c 0,2,3
 273 -18 273 -18 209 55 c 128,-1,4
 145 128 145 128 145 237 c 0,5,6
 145 448 145 448 302.5 623.5 c 128,-1,7
 460 799 460 799 650 799 c 0,8,9
 794 799 794 799 859 630 c 1,10,11
 1025 799 1025 799 1183 799 c 0,12,13
 1246 799 1246 799 1286.5 758 c 128,-1,14
 1327 717 1327 717 1327 651 c 0,15,16
 1327 508 1327 508 1192.5 414 c 128,-1,17
 1058 320 1058 320 841 311 c 1,18,-1
 840 278 l 1,19,20
 840 66 840 66 998 66 c 0,21,22
 1113 66 1113 66 1327 200 c 1,23,-1
 1316 146 l 1,24,25
 1083 -18 1083 -18 917 -18 c 0,26,27
 758 -18 758 -18 706 145 c 1,0,1
431 35 m 0,28,29
 544 35 544 35 636 178.5 c 128,-1,30
 728 322 728 322 728 499 c 0,31,32
 728 607 728 607 689 672 c 128,-1,33
 650 737 650 737 584 737 c 0,34,35
 472 737 472 737 382 594 c 128,-1,36
 292 451 292 451 292 272 c 0,37,38
 292 35 292 35 431 35 c 0,28,29
844 355 m 1,39,40
 1004 368 1004 368 1097.5 438.5 c 128,-1,41
 1191 509 1191 509 1191 620 c 0,42,43
 1191 733 1191 733 1110 733 c 0,44,45
 1024 733 1024 733 941.5 616 c 128,-1,46
 859 499 859 499 844 355 c 1,39,40
EndSplineSet
EndChar

StartChar: endash
Encoding: 8211 8211 121
Width: 434
Flags: W
LayerCount: 2
Fore
SplineSet
434 154 m 1,0,-1
 0 154 l 1,1,-1
 0 234 l 1,2,-1
 434 234 l 1,3,-1
 434 154 l 1,0,-1
EndSplineSet
EndChar

StartChar: emdash
Encoding: 8212 8212 122
Width: 1862
Flags: W
LayerCount: 2
Fore
SplineSet
1866 572 m 1,0,-1
 -4 572 l 1,1,-1
 -4 732 l 1,2,-1
 1866 732 l 1,3,-1
 1866 572 l 1,0,-1
EndSplineSet
EndChar

StartChar: quotedblleft
Encoding: 8220 8220 123
Width: 583
Flags: W
LayerCount: 2
Fore
SplineSet
253 1084 m 1,0,1
 219 1057 219 1057 195.5 1025.5 c 128,-1,2
 172 994 172 994 172 949 c 0,3,4
 172 923 172 923 179.5 893.5 c 128,-1,5
 187 864 187 864 187 830 c 0,6,7
 187 804 187 804 171 783.5 c 128,-1,8
 155 763 155 763 129 763 c 0,9,10
 108 763 108 763 94.5 770.5 c 128,-1,11
 81 778 81 778 73 791 c 128,-1,12
 65 804 65 804 61.5 821 c 128,-1,13
 58 838 58 838 58 857 c 0,14,15
 58 896 58 896 73.5 932.5 c 128,-1,16
 89 969 89 969 114.5 1000.5 c 128,-1,17
 140 1032 140 1032 172.5 1057.5 c 128,-1,18
 205 1083 205 1083 238 1100 c 1,19,-1
 253 1084 l 1,0,1
501 1084 m 1,20,21
 469 1057 469 1057 446 1025.5 c 128,-1,22
 423 994 423 994 423 949 c 0,23,24
 423 923 423 923 430.5 893.5 c 128,-1,25
 438 864 438 864 438 830 c 0,26,27
 438 804 438 804 422 783.5 c 128,-1,28
 406 763 406 763 380 763 c 0,29,30
 339 763 339 763 322.5 791 c 128,-1,31
 306 819 306 819 306 857 c 256,32,33
 306 895 306 895 322 932 c 128,-1,34
 338 969 338 969 364 1001.5 c 128,-1,35
 390 1034 390 1034 422.5 1059.5 c 128,-1,36
 455 1085 455 1085 488 1100 c 1,37,-1
 501 1084 l 1,20,21
EndSplineSet
EndChar

StartChar: quotedblright
Encoding: 8221 8221 124
Width: 583
Flags: W
LayerCount: 2
Fore
SplineSet
332 765 m 1,0,1
 364 792 364 792 387.5 823 c 128,-1,2
 411 854 411 854 411 898 c 0,3,4
 411 924 411 924 403 953.5 c 128,-1,5
 395 983 395 983 395 1019 c 0,6,7
 395 1045 395 1045 411.5 1065.5 c 128,-1,8
 428 1086 428 1086 451 1086 c 0,9,10
 473 1086 473 1086 487.5 1078.5 c 128,-1,11
 502 1071 502 1071 510.5 1058 c 128,-1,12
 519 1045 519 1045 522.5 1028 c 128,-1,13
 526 1011 526 1011 526 992 c 0,14,15
 526 953 526 953 509.5 916 c 128,-1,16
 493 879 493 879 467 847.5 c 128,-1,17
 441 816 441 816 408.5 790.5 c 128,-1,18
 376 765 376 765 344 749 c 1,19,-1
 332 765 l 1,0,1
81 765 m 1,20,21
 113 792 113 792 135.5 822.5 c 128,-1,22
 158 853 158 853 158 898 c 0,23,24
 158 924 158 924 151 953.5 c 128,-1,25
 144 983 144 983 144 1019 c 0,26,27
 144 1045 144 1045 160 1065.5 c 128,-1,28
 176 1086 176 1086 202 1086 c 0,29,30
 224 1086 224 1086 238 1078.5 c 128,-1,31
 252 1071 252 1071 260 1058 c 128,-1,32
 268 1045 268 1045 271.5 1028 c 128,-1,33
 275 1011 275 1011 275 992 c 0,34,35
 275 953 275 953 259 915.5 c 128,-1,36
 243 878 243 878 217 846.5 c 128,-1,37
 191 815 191 815 158.5 789.5 c 128,-1,38
 126 764 126 764 93 749 c 1,39,-1
 81 765 l 1,20,21
EndSplineSet
EndChar

StartChar: divide
Encoding: 247 247 125
Width: 962
Flags: W
LayerCount: 2
Fore
SplineSet
549 593 m 1,0,-1
 410 593 l 1,1,-1
 410 752 l 1,2,-1
 549 752 l 1,3,-1
 549 593 l 1,0,-1
821 337 m 1,4,-1
 138 337 l 1,5,-1
 138 430 l 1,6,-1
 821 430 l 1,7,-1
 821 337 l 1,4,-1
549 15 m 1,8,-1
 410 15 l 1,9,-1
 410 174 l 1,10,-1
 549 174 l 1,11,-1
 549 15 l 1,8,-1
EndSplineSet
EndChar

StartChar: lozenge
Encoding: 9674 9674 126
Width: 1118
Flags: W
LayerCount: 2
Fore
SplineSet
1003 699 m 1,0,-1
 560 197 l 1,1,-1
 117 699 l 1,2,-1
 560 1202 l 1,3,-1
 1003 699 l 1,0,-1
848 699 m 1,4,-1
 560 1036 l 1,5,-1
 271 699 l 1,6,-1
 560 364 l 1,7,-1
 848 699 l 1,4,-1
EndSplineSet
EndChar

StartChar: Euro
Encoding: 8364 8364 128
Width: 812
Flags: W
LayerCount: 2
Fore
SplineSet
210 464 m 1,0,1
 252 596 252 596 371.5 697.5 c 128,-1,2
 491 799 491 799 674 799 c 0,3,4
 773 799 773 799 885 769 c 1,5,-1
 845 624 l 1,6,-1
 795 624 l 1,7,8
 801 653 801 653 801 665 c 0,9,10
 801 701 801 701 757 726 c 128,-1,11
 713 751 713 751 649 751 c 0,12,13
 445 751 445 751 349 464 c 1,14,-1
 686 464 l 1,15,-1
 677 420 l 1,16,-1
 337 420 l 2,17,18
 335 418 335 418 332 404 c 2,19,-1
 325 365 l 1,20,-1
 325 360 l 1,21,-1
 665 360 l 1,22,-1
 656 315 l 1,23,-1
 319 315 l 1,24,-1
 319 289 l 2,25,26
 319 178 319 178 370 115.5 c 128,-1,27
 421 53 421 53 512 53 c 0,28,29
 636 53 636 53 765 135 c 1,30,-1
 755 72 l 1,31,32
 604 -18 604 -18 459 -18 c 0,33,34
 324 -18 324 -18 249.5 59 c 128,-1,35
 175 136 175 136 175 274 c 0,36,37
 175 300 175 300 175 315 c 1,38,-1
 111 315 l 1,39,-1
 120 360 l 1,40,-1
 182 360 l 1,41,-1
 182 364 l 1,42,43
 189 401 189 401 194 420 c 1,44,-1
 118 420 l 1,45,-1
 127 464 l 1,46,-1
 210 464 l 1,0,1
EndSplineSet
EndChar

StartChar: guilsinglleft
Encoding: 8249 8249 129
Width: 560
Flags: W
LayerCount: 2
Fore
SplineSet
375 71 m 1,0,1
 304 237 304 237 167 391 c 1,2,3
 358 507 358 507 437 653 c 1,4,-1
 587 711 l 1,5,6
 536 589 536 589 315 441 c 1,7,8
 423 310 423 310 499 138 c 1,9,-1
 375 71 l 1,0,1
EndSplineSet
EndChar

StartChar: guilsinglright
Encoding: 8250 8250 130
Width: 560
Flags: W
LayerCount: 2
Fore
SplineSet
339 711 m 1,0,1
 410 545 410 545 546 391 c 1,2,3
 356 275 356 275 276 128 c 1,4,-1
 128 71 l 1,5,6
 178 193 178 193 400 341 c 1,7,8
 293 470 293 470 215 643 c 1,9,-1
 339 711 l 1,0,1
EndSplineSet
EndChar

StartChar: daggerdbl
Encoding: 8225 8225 133
Width: 932
Flags: W
LayerCount: 2
Fore
SplineSet
349 -231 m 1,0,-1
 481 185 l 1,1,-1
 161 154 l 1,2,-1
 211 261 l 1,3,-1
 490 229 l 1,4,-1
 567 616 l 1,5,-1
 247 586 l 1,6,-1
 297 693 l 1,7,-1
 575 661 l 1,8,-1
 608 1066 l 1,9,-1
 758 1093 l 1,10,-1
 620 661 l 1,11,-1
 940 693 l 1,12,-1
 889 586 l 1,13,-1
 611 616 l 1,14,-1
 535 229 l 1,15,-1
 855 261 l 1,16,-1
 804 154 l 1,17,-1
 525 185 l 1,18,-1
 499 -213 l 1,19,-1
 349 -231 l 1,0,-1
EndSplineSet
EndChar

StartChar: middot.001
Encoding: 8729 8729 134
Width: 620
Flags: W
LayerCount: 2
Fore
SplineSet
429 516 m 1,0,-1
 190 516 l 1,1,-1
 190 789 l 1,2,-1
 429 789 l 1,3,-1
 429 516 l 1,0,-1
EndSplineSet
EndChar

StartChar: quotesinglbase
Encoding: 8218 8218 135
Width: 418
Flags: W
LayerCount: 2
Fore
SplineSet
103 128 m 1,0,-1
 247 231 l 1,1,-1
 353 90 l 1,2,3
 345 -56 345 -56 262.5 -134.5 c 128,-1,4
 180 -213 180 -213 36 -213 c 1,5,-1
 76 -168 l 1,6,7
 189 -158 189 -158 211 -18 c 1,8,-1
 103 128 l 1,0,-1
EndSplineSet
EndChar

StartChar: quotedblbase
Encoding: 8222 8222 136
Width: 684
Flags: W
LayerCount: 2
Fore
SplineSet
91 92 m 1,0,-1
 204 178 l 1,1,-1
 292 64 l 1,2,3
 270 -213 270 -213 31 -213 c 1,4,-1
 60 -168 l 1,5,6
 166 -148 166 -148 179 -16 c 1,7,-1
 91 92 l 1,0,-1
401 92 m 1,8,-1
 516 178 l 1,9,-1
 602 64 l 1,10,11
 581 -213 581 -213 341 -213 c 1,12,-1
 372 -168 l 1,13,14
 476 -148 476 -148 490 -16 c 1,15,-1
 401 92 l 1,8,-1
EndSplineSet
EndChar

StartChar: perthousand
Encoding: 8240 8240 137
Width: 1571
Flags: W
LayerCount: 2
Fore
SplineSet
385 533 m 0,0,1
 304 533 304 533 254.5 584.5 c 128,-1,2
 205 636 205 636 205 722 c 0,3,4
 205 865 205 865 286.5 965.5 c 128,-1,5
 368 1066 368 1066 483 1066 c 0,6,7
 567 1066 567 1066 617.5 1014.5 c 128,-1,8
 668 963 668 963 668 877 c 0,9,10
 668 733 668 733 585.5 633 c 128,-1,11
 503 533 503 533 385 533 c 0,0,1
311 715 m 0,12,13
 311 578 311 578 398 578 c 0,14,15
 463 578 463 578 517 671.5 c 128,-1,16
 571 765 571 765 571 881 c 0,17,18
 571 1022 571 1022 483 1022 c 0,19,20
 416 1022 416 1022 363.5 928 c 128,-1,21
 311 834 311 834 311 715 c 0,12,13
850 0 m 0,22,23
 769 0 769 0 719.5 51.5 c 128,-1,24
 670 103 670 103 670 189 c 0,25,26
 670 331 670 331 751 432 c 128,-1,27
 832 533 832 533 947 533 c 0,28,29
 1031 533 1031 533 1081.5 481.5 c 128,-1,30
 1132 430 1132 430 1132 344 c 0,31,32
 1132 200 1132 200 1049.5 100 c 128,-1,33
 967 0 967 0 850 0 c 0,22,23
776 182 m 0,34,35
 776 44 776 44 862 44 c 0,36,37
 929 44 929 44 982 138 c 128,-1,38
 1035 232 1035 232 1035 348 c 0,39,40
 1035 490 1035 490 948 490 c 0,41,42
 880 490 880 490 828 395.5 c 128,-1,43
 776 301 776 301 776 182 c 0,34,35
131 -27 m 1,44,-1
 1111 1093 l 1,45,-1
 1206 1093 l 1,46,-1
 225 -27 l 1,47,-1
 131 -27 l 1,44,-1
1376 0 m 0,48,49
 1294 0 1294 0 1244.5 51.5 c 128,-1,50
 1195 103 1195 103 1195 189 c 0,51,52
 1195 331 1195 331 1276.5 432 c 128,-1,53
 1358 533 1358 533 1473 533 c 0,54,55
 1557 533 1557 533 1607.5 481.5 c 128,-1,56
 1658 430 1658 430 1658 344 c 0,57,58
 1658 200 1658 200 1575.5 100 c 128,-1,59
 1493 0 1493 0 1376 0 c 0,48,49
1301 183 m 0,60,61
 1301 44 1301 44 1389 44 c 0,62,63
 1453 44 1453 44 1507 138 c 128,-1,64
 1561 232 1561 232 1561 347 c 0,65,66
 1561 490 1561 490 1473 490 c 0,67,68
 1406 490 1406 490 1353.5 395.5 c 128,-1,69
 1301 301 1301 301 1301 183 c 0,60,61
EndSplineSet
EndChar

StartChar: circumflex
Encoding: 710 710 139
Width: 862
Flags: W
LayerCount: 2
Fore
SplineSet
870 976 m 1,0,-1
 783 923 l 1,1,2
 729 984 729 984 693 1082 c 1,3,4
 652 1032 652 1032 574 953 c 0,5,6
 571 949 571 949 553 931 c 1,7,-1
 452 923 l 1,8,9
 607 1037 607 1037 674 1120 c 1,10,-1
 772 1182 l 1,11,12
 805 1069 805 1069 870 976 c 1,0,-1
EndSplineSet
EndChar

StartChar: cedilla
Encoding: 184 184 140
Width: 862
Flags: W
LayerCount: 2
Fore
SplineSet
456 0 m 1,0,-1
 414 -64 l 1,1,2
 485 -86 485 -86 485 -147 c 0,3,4
 485 -198 485 -198 428.5 -241 c 128,-1,5
 372 -284 372 -284 303 -284 c 0,6,7
 272 -284 272 -284 237 -277 c 1,8,-1
 292 -201 l 1,9,10
 326 -223 326 -223 352 -223 c 0,11,12
 416 -223 416 -223 416 -171 c 0,13,14
 416 -112 416 -112 318 -112 c 1,15,-1
 394 0 l 1,16,-1
 456 0 l 1,0,-1
EndSplineSet
EndChar

StartChar: brokenbar
Encoding: 166 166 141
Width: 355
Flags: W
LayerCount: 2
Fore
SplineSet
86 -213 m 1,0,-1
 203 373 l 1,1,-1
 301 373 l 1,2,-1
 184 -213 l 1,3,-1
 86 -213 l 1,0,-1
238 551 m 1,4,-1
 355 1137 l 1,5,-1
 453 1137 l 1,6,-1
 337 551 l 1,7,-1
 238 551 l 1,4,-1
EndSplineSet
EndChar

StartChar: minus
Encoding: 8722 8722 142
Width: 1490
Flags: W
LayerCount: 2
Fore
SplineSet
1308 572 m 1,0,-1
 182 572 l 1,1,-1
 182 732 l 1,2,-1
 1308 732 l 1,3,-1
 1308 572 l 1,0,-1
EndSplineSet
EndChar

StartChar: multiply
Encoding: 215 215 143
Width: 753
Flags: W
LayerCount: 2
Fore
SplineSet
103 255 m 1,0,-1
 297 450 l 1,1,-1
 103 644 l 1,2,-1
 179 720 l 1,3,-1
 373 525 l 1,4,-1
 568 720 l 1,5,-1
 643 644 l 1,6,-1
 449 450 l 1,7,-1
 643 255 l 1,8,-1
 568 180 l 1,9,-1
 373 374 l 1,10,-1
 179 180 l 1,11,-1
 103 255 l 1,0,-1
EndSplineSet
EndChar

StartChar: onesuperior
Encoding: 185 185 144
Width: 596
Flags: W
LayerCount: 2
Fore
SplineSet
573 1093 m 1,0,-1
 487 657 l 2,1,2
 476 607 476 607 476 589 c 0,3,4
 476 570 476 570 532 563 c 1,5,-1
 591 560 l 1,6,-1
 582 516 l 1,7,-1
 210 516 l 1,8,-1
 218 560 l 1,9,-1
 279 563 l 2,10,11
 328 567 328 567 337.5 578 c 128,-1,12
 347 589 347 589 362 657 c 2,13,-1
 418 938 l 2,14,15
 423 960 423 960 423 978 c 0,16,17
 423 1004 423 1004 355 1013 c 2,18,-1
 310 1021 l 1,19,-1
 319 1066 l 1,20,-1
 573 1093 l 1,0,-1
EndSplineSet
EndChar

StartChar: twosuperior
Encoding: 178 178 145
Width: 596
Flags: W
LayerCount: 2
Fore
SplineSet
187 516 m 1,0,-1
 207 617 l 1,1,2
 362 712 362 712 454.5 803.5 c 128,-1,3
 547 895 547 895 547 952 c 0,4,5
 547 1046 547 1046 463 1046 c 0,6,7
 352 1046 352 1046 331 928 c 1,8,-1
 278 928 l 1,9,-1
 304 1059 l 1,10,11
 400 1093 400 1093 484 1093 c 0,12,13
 674 1093 674 1093 674 959 c 0,14,15
 674 887 674 887 624.5 842 c 128,-1,16
 575 797 575 797 297 617 c 1,17,-1
 607 617 l 1,18,-1
 587 516 l 1,19,-1
 187 516 l 1,0,-1
EndSplineSet
EndChar

StartChar: threesuperior
Encoding: 179 179 146
Width: 596
Flags: W
LayerCount: 2
Fore
SplineSet
185 545 m 1,0,-1
 257 620 l 1,1,2
 337 556 337 556 418 556 c 0,3,4
 460 556 460 556 490.5 587 c 128,-1,5
 521 618 521 618 521 661 c 0,6,7
 521 776 521 776 345 776 c 0,8,9
 323 776 323 776 301 773 c 1,10,-1
 331 859 l 1,11,12
 350 860 350 860 365 860 c 0,13,14
 412 860 412 860 466 849 c 1,15,16
 547 886 547 886 547 961 c 0,17,18
 547 1046 547 1046 454 1046 c 0,19,20
 365 1046 365 1046 342 941 c 1,21,-1
 289 941 l 1,22,-1
 311 1057 l 1,23,24
 398 1093 398 1093 484 1093 c 0,25,26
 662 1093 662 1093 662 984 c 0,27,28
 662 893 662 893 520 829 c 1,29,30
 625 790 625 790 625 693 c 0,31,32
 625 616 625 616 554.5 563 c 128,-1,33
 484 510 484 510 378 510 c 0,34,35
 289 510 289 510 185 545 c 1,0,-1
EndSplineSet
EndChar

StartChar: onehalf
Encoding: 189 189 147
Width: 1262
Flags: W
LayerCount: 2
Fore
SplineSet
528 1093 m 1,0,-1
 442 657 l 2,1,2
 432 606 432 606 432 589 c 0,3,4
 432 570 432 570 488 563 c 1,5,-1
 547 560 l 1,6,-1
 538 516 l 1,7,-1
 165 516 l 1,8,-1
 174 560 l 1,9,-1
 235 563 l 2,10,11
 283 567 283 567 293 578 c 128,-1,12
 303 589 303 589 318 657 c 2,13,-1
 373 938 l 2,14,15
 378 960 378 960 378 978 c 0,16,17
 378 1004 378 1004 310 1013 c 2,18,-1
 265 1021 l 1,19,-1
 274 1066 l 1,20,-1
 528 1093 l 1,0,-1
160 -27 m 1,21,-1
 1180 1093 l 1,22,-1
 1280 1093 l 1,23,-1
 257 -27 l 1,24,-1
 160 -27 l 1,21,-1
778 0 m 1,25,-1
 797 103 l 1,26,27
 952 197 952 197 1045 288 c 128,-1,28
 1138 379 1138 379 1138 436 c 0,29,30
 1138 530 1138 530 1053 530 c 0,31,32
 942 530 942 530 922 413 c 1,33,-1
 868 413 l 1,34,-1
 895 544 l 1,35,36
 989 578 989 578 1075 578 c 0,37,38
 1264 578 1264 578 1264 445 c 0,39,40
 1264 373 1264 373 1214.5 328 c 128,-1,41
 1165 283 1165 283 887 103 c 1,42,-1
 1197 103 l 1,43,-1
 1177 0 l 1,44,-1
 778 0 l 1,25,-1
EndSplineSet
EndChar

StartChar: onequarter
Encoding: 188 188 148
Width: 1262
Flags: W
LayerCount: 2
Fore
SplineSet
546 1093 m 1,0,-1
 460 657 l 2,1,2
 450 606 450 606 450 589 c 0,3,4
 450 570 450 570 506 563 c 1,5,-1
 565 560 l 1,6,-1
 556 516 l 1,7,-1
 183 516 l 1,8,-1
 192 560 l 1,9,-1
 253 563 l 2,10,11
 301 567 301 567 311 578 c 128,-1,12
 321 589 321 589 336 657 c 2,13,-1
 391 938 l 2,14,15
 396 960 396 960 396 978 c 0,16,17
 396 1004 396 1004 328 1013 c 2,18,-1
 283 1021 l 1,19,-1
 292 1066 l 1,20,-1
 546 1093 l 1,0,-1
178 -27 m 1,21,-1
 1198 1093 l 1,22,-1
 1298 1093 l 1,23,-1
 275 -27 l 1,24,-1
 178 -27 l 1,21,-1
981 164 m 1,25,-1
 732 182 l 1,26,-1
 747 261 l 1,27,-1
 1102 578 l 1,28,-1
 1170 578 l 1,29,-1
 1102 236 l 1,30,-1
 1212 229 l 1,31,-1
 1168 149 l 1,32,-1
 1086 157 l 1,33,34
 1076 102 1076 102 1076 74 c 0,35,36
 1076 52 1076 52 1129 49 c 2,37,-1
 1189 45 l 1,38,-1
 1180 0 l 1,39,-1
 820 0 l 1,40,-1
 829 45 l 1,41,-1
 886 49 l 2,42,43
 937 52 937 52 952 64 c 128,-1,44
 967 76 967 76 973 117 c 0,45,46
 976 134 976 134 981 164 c 1,25,-1
997 244 m 1,47,-1
 1038 446 l 1,48,-1
 823 255 l 1,49,-1
 997 244 l 1,47,-1
EndSplineSet
EndChar

StartChar: threequarters
Encoding: 190 190 149
Width: 1262
Flags: W
LayerCount: 2
Fore
SplineSet
174 545 m 1,0,-1
 247 620 l 1,1,2
 326 556 326 556 407 556 c 0,3,4
 448 556 448 556 478.5 587 c 128,-1,5
 509 618 509 618 509 661 c 0,6,7
 509 776 509 776 333 776 c 0,8,9
 311 776 311 776 289 773 c 1,10,-1
 319 859 l 1,11,12
 338 860 338 860 355 860 c 0,13,14
 401 860 401 860 455 849 c 1,15,16
 535 886 535 886 535 961 c 0,17,18
 535 1046 535 1046 442 1046 c 0,19,20
 354 1046 354 1046 330 941 c 1,21,-1
 277 941 l 1,22,-1
 301 1057 l 1,23,24
 387 1093 387 1093 472 1093 c 0,25,26
 651 1093 651 1093 651 984 c 0,27,28
 651 893 651 893 508 829 c 1,29,30
 614 790 614 790 614 693 c 0,31,32
 614 616 614 616 543 563 c 128,-1,33
 472 510 472 510 366 510 c 0,34,35
 277 510 277 510 174 545 c 1,0,-1
178 -27 m 1,36,-1
 1198 1093 l 1,37,-1
 1298 1093 l 1,38,-1
 275 -27 l 1,39,-1
 178 -27 l 1,36,-1
981 164 m 1,40,-1
 732 182 l 1,41,-1
 747 261 l 1,42,-1
 1102 578 l 1,43,-1
 1170 578 l 1,44,-1
 1102 236 l 1,45,-1
 1212 229 l 1,46,-1
 1168 149 l 1,47,-1
 1086 157 l 1,48,49
 1076 102 1076 102 1076 74 c 0,50,51
 1076 52 1076 52 1129 49 c 2,52,-1
 1189 45 l 1,53,-1
 1180 0 l 1,54,-1
 820 0 l 1,55,-1
 829 45 l 1,56,-1
 886 49 l 2,57,58
 938 52 938 52 952.5 64 c 128,-1,59
 967 76 967 76 973 117 c 0,60,61
 976 134 976 134 981 164 c 1,40,-1
997 244 m 1,62,-1
 1038 446 l 1,63,-1
 823 255 l 1,64,-1
 997 244 l 1,62,-1
EndSplineSet
EndChar

StartChar: macron
Encoding: 175 175 150
Width: 1118
Flags: W
LayerCount: 2
Fore
SplineSet
1134 1659 m 1,0,-1
 -16 1659 l 1,1,-1
 -16 1789 l 1,2,-1
 1134 1789 l 1,3,-1
 1134 1659 l 1,0,-1
EndSplineSet
EndChar

StartChar: periodcentered
Encoding: 183 183 151
Width: 724
Flags: W
LayerCount: 2
Fore
SplineSet
482 832 m 1,0,-1
 243 832 l 1,1,-1
 243 1117 l 1,2,-1
 482 1117 l 1,3,-1
 482 832 l 1,0,-1
EndSplineSet
EndChar

StartChar: H22073
Encoding: 9633 9633 152
Width: 1237
Flags: W
LayerCount: 2
Fore
SplineSet
146 944 m 1,0,-1
 1090 944 l 1,1,-1
 1090 0 l 1,2,-1
 146 0 l 1,3,-1
 146 944 l 1,0,-1
222 868 m 1,4,-1
 222 76 l 1,5,-1
 1014 76 l 1,6,-1
 1014 868 l 1,7,-1
 222 868 l 1,4,-1
EndSplineSet
EndChar

StartChar: H18543
Encoding: 9642 9642 153
Width: 1089
Flags: W
LayerCount: 2
Fore
SplineSet
886 994 m 1,0,-1
 886 300 l 1,1,-1
 192 300 l 1,2,-1
 192 994 l 1,3,-1
 886 994 l 1,0,-1
EndSplineSet
EndChar

StartChar: H18551
Encoding: 9643 9643 154
Width: 1089
Flags: W
LayerCount: 2
Fore
SplineSet
888 996 m 1,0,-1
 888 301 l 1,1,-1
 193 301 l 1,2,-1
 193 996 l 1,3,-1
 888 996 l 1,0,-1
774 882 m 1,4,-1
 307 882 l 1,5,-1
 307 415 l 1,6,-1
 774 415 l 1,7,-1
 774 882 l 1,4,-1
EndSplineSet
EndChar

StartChar: H18533
Encoding: 9679 9679 155
Width: 1339
Flags: W
LayerCount: 2
Fore
SplineSet
204 719 m 0,0,1
 204 920 204 920 345 1061 c 128,-1,2
 486 1202 486 1202 685 1202 c 0,3,4
 885 1202 885 1202 1026 1061 c 128,-1,5
 1167 920 1167 920 1167 719 c 0,6,7
 1167 521 1167 521 1026 380 c 128,-1,8
 885 239 885 239 685 239 c 0,9,10
 486 239 486 239 345 380 c 128,-1,11
 204 521 204 521 204 719 c 0,0,1
EndSplineSet
EndChar

StartChar: openbullet
Encoding: 9702 9702 156
Width: 1089
Flags: W
LayerCount: 2
Fore
SplineSet
544 1171 m 0,0,1
 700 1171 700 1171 810.5 1060.5 c 128,-1,2
 921 950 921 950 921 794 c 256,3,4
 921 638 921 638 810.5 528 c 128,-1,5
 700 418 700 418 544 418 c 256,6,7
 388 418 388 418 278 528 c 128,-1,8
 168 638 168 638 168 794 c 256,9,10
 168 950 168 950 277.5 1060.5 c 128,-1,11
 387 1171 387 1171 544 1171 c 0,0,1
544 1057 m 0,12,13
 435 1057 435 1057 358.5 979.5 c 128,-1,14
 282 902 282 902 282 794 c 0,15,16
 282 685 282 685 359 608.5 c 128,-1,17
 436 532 436 532 544 532 c 256,18,19
 652 532 652 532 729.5 608.5 c 128,-1,20
 807 685 807 685 807 794 c 0,21,22
 807 902 807 902 730.5 979.5 c 128,-1,23
 654 1057 654 1057 544 1057 c 0,12,13
EndSplineSet
EndChar

StartChar: currency
Encoding: 164 164 157
Width: 932
Flags: W
LayerCount: 2
Fore
SplineSet
769 322 m 1,0,-1
 879 184 l 1,1,-1
 841 153 l 1,2,-1
 732 292 l 1,3,4
 616 214 616 214 504 214 c 0,5,6
 394 214 394 214 310 292 c 1,7,-1
 145 153 l 1,8,-1
 120 184 l 1,9,-1
 286 322 l 1,10,11
 243 397 243 397 243 470 c 0,12,13
 243 613 243 613 369 743 c 1,14,-1
 259 882 l 1,15,-1
 297 913 l 1,16,-1
 407 775 l 1,17,18
 521 852 521 852 634 852 c 0,19,20
 744 852 744 852 828 775 c 1,21,-1
 994 913 l 1,22,-1
 1019 882 l 1,23,-1
 852 743 l 1,24,25
 895 668 895 668 895 596 c 0,26,27
 895 455 895 455 769 322 c 1,0,-1
818 579 m 0,28,29
 818 666 818 666 762 721.5 c 128,-1,30
 706 777 706 777 620 777 c 0,31,32
 502 777 502 777 411 688 c 128,-1,33
 320 599 320 599 320 485 c 0,34,35
 320 400 320 400 376.5 344.5 c 128,-1,36
 433 289 433 289 519 289 c 0,37,38
 635 289 635 289 726.5 377.5 c 128,-1,39
 818 466 818 466 818 579 c 0,28,29
EndSplineSet
EndChar

StartChar: uniFFFC
Encoding: 65532 65532 158
Width: 2048
Flags: W
LayerCount: 2
Fore
SplineSet
2048 1150 m 1,0,-1
 1948 1150 l 1,1,-1
 1948 1373 l 1,2,-1
 1725 1373 l 1,3,-1
 1725 1473 l 1,4,-1
 2048 1473 l 1,5,-1
 2048 1150 l 1,0,-1
1473 1373 m 1,6,-1
 1150 1373 l 1,7,-1
 1150 1473 l 1,8,-1
 1473 1473 l 1,9,-1
 1473 1373 l 1,6,-1
2048 575 m 1,10,-1
 1948 575 l 1,11,-1
 1948 898 l 1,12,-1
 2048 898 l 1,13,-1
 2048 575 l 1,10,-1
1782 611 m 2,14,15
 1782 370 1782 370 1571 370 c 0,16,17
 1485 370 1485 370 1433 415 c 1,18,-1
 1506 494 l 1,19,20
 1531 468 1531 468 1571 468 c 0,21,22
 1666 468 1666 468 1666 606 c 2,23,-1
 1666 1090 l 1,24,-1
 1782 1090 l 1,25,-1
 1782 611 l 2,14,15
898 1373 m 1,26,-1
 575 1373 l 1,27,-1
 575 1473 l 1,28,-1
 898 1473 l 1,29,-1
 898 1373 l 1,26,-1
2048 0 m 1,30,-1
 1725 0 l 1,31,-1
 1725 100 l 1,32,-1
 1948 100 l 1,33,-1
 1948 323 l 1,34,-1
 2048 323 l 1,35,-1
 2048 0 l 1,30,-1
1423 591 m 0,36,37
 1423 382 1423 382 1149 382 c 2,38,-1
 909 382 l 1,39,-1
 909 1090 l 1,40,-1
 1144 1090 l 2,41,42
 1393 1090 1393 1090 1393 904 c 0,43,44
 1393 813 1393 813 1304 759 c 1,45,46
 1423 713 1423 713 1423 591 c 0,36,37
323 1373 m 1,47,-1
 100 1373 l 1,48,-1
 100 1150 l 1,49,-1
 0 1150 l 1,50,-1
 0 1473 l 1,51,-1
 323 1473 l 1,52,-1
 323 1373 l 1,47,-1
1473 0 m 1,53,-1
 1150 0 l 1,54,-1
 1150 100 l 1,55,-1
 1473 100 l 1,56,-1
 1473 0 l 1,53,-1
854 735 m 0,57,58
 854 562 854 562 772 466 c 128,-1,59
 690 370 690 370 537 370 c 256,60,61
 384 370 384 370 303.5 466 c 128,-1,62
 223 562 223 562 223 735 c 0,63,64
 223 910 223 910 303.5 1006 c 128,-1,65
 384 1102 384 1102 537 1102 c 256,66,67
 690 1102 690 1102 772 1006 c 128,-1,68
 854 910 854 910 854 735 c 0,57,58
100 575 m 1,69,-1
 0 575 l 1,70,-1
 0 898 l 1,71,-1
 100 898 l 1,72,-1
 100 575 l 1,69,-1
898 0 m 1,73,-1
 575 0 l 1,74,-1
 575 100 l 1,75,-1
 898 100 l 1,76,-1
 898 0 l 1,73,-1
323 0 m 1,77,-1
 0 0 l 1,78,-1
 0 323 l 1,79,-1
 100 323 l 1,80,-1
 100 100 l 1,81,-1
 323 100 l 1,82,-1
 323 0 l 1,77,-1
1277 893 m 0,83,84
 1277 992 1277 992 1114 992 c 2,85,-1
 1025 992 l 1,86,-1
 1025 798 l 1,87,-1
 1126 798 l 2,88,89
 1277 798 1277 798 1277 893 c 0,83,84
1307 591 m 0,90,91
 1307 700 1307 700 1136 700 c 2,92,-1
 1025 700 l 1,93,-1
 1025 480 l 1,94,-1
 1149 480 l 2,95,96
 1307 480 1307 480 1307 591 c 0,90,91
738 735 m 0,97,98
 738 1004 738 1004 537 1004 c 0,99,100
 339 1004 339 1004 339 735 c 0,101,102
 339 468 339 468 537 468 c 0,103,104
 738 468 738 468 738 735 c 0,97,98
EndSplineSet
EndChar

StartChar: dotbelowcomb
Encoding: 65538 -1 160
Width: 0
Flags: W
LayerCount: 2
Fore
SplineSet
666 -382 m 1,0,-1
 452 -382 l 1,1,-1
 452 -187 l 1,2,-1
 666 -187 l 1,3,-1
 666 -382 l 1,0,-1
EndSplineSet
EndChar

StartChar: zerowidthnonjoiner
Encoding: 8204 8204 175
Width: 0
GlyphClass: 2
Flags: W
LayerCount: 2
Fore
SplineSet
36 1289 m 1,0,-1
 36 -275 l 1,1,-1
 -36 -275 l 1,2,-1
 -36 1289 l 1,3,-1
 36 1289 l 1,0,-1
EndSplineSet
EndChar

StartChar: zerowidthjoiner
Encoding: 8205 8205 176
Width: 0
GlyphClass: 2
Flags: W
LayerCount: 2
Fore
SplineSet
36 -275 m 1,0,-1
 -36 -275 l 1,1,-1
 -36 1114 l 1,2,-1
 -170 978 l 1,3,-1
 -219 1027 l 1,4,-1
 -48 1196 l 1,5,-1
 -219 1364 l 1,6,-1
 -170 1413 l 1,7,-1
 0 1242 l 1,8,-1
 170 1413 l 1,9,-1
 219 1364 l 1,10,-1
 48 1196 l 1,11,-1
 219 1027 l 1,12,-1
 170 978 l 1,13,-1
 36 1114 l 1,14,-1
 36 -275 l 1,0,-1
EndSplineSet
EndChar

StartChar: lefttorightmark
Encoding: 8206 8206 177
Width: 0
GlyphClass: 2
Flags: W
LayerCount: 2
Fore
SplineSet
430 1198 m 1,0,-1
 213 984 l 1,1,-1
 164 1033 l 1,2,-1
 301 1163 l 1,3,-1
 35 1163 l 1,4,-1
 35 -275 l 1,5,-1
 -36 -275 l 1,6,-1
 -36 1234 l 1,7,-1
 301 1234 l 1,8,-1
 164 1364 l 1,9,-1
 213 1413 l 1,10,-1
 430 1198 l 1,0,-1
EndSplineSet
EndChar

StartChar: righttoleftmark
Encoding: 8207 8207 178
Width: 0
GlyphClass: 2
Flags: W
LayerCount: 2
Fore
SplineSet
35 -275 m 1,0,-1
 -36 -275 l 1,1,-1
 -36 1163 l 1,2,-1
 -302 1163 l 1,3,-1
 -165 1033 l 1,4,-1
 -214 984 l 1,5,-1
 -431 1198 l 1,6,-1
 -214 1413 l 1,7,-1
 -165 1364 l 1,8,-1
 -302 1234 l 1,9,-1
 35 1234 l 1,10,-1
 35 -275 l 1,0,-1
EndSplineSet
EndChar

StartChar: afii57388.001
Encoding: 1644 1644 179
Width: 353
GlyphClass: 2
Flags: W
LayerCount: 2
Fore
SplineSet
210 654 m 0,0,1
 200 627 200 627 185 603 c 0,2,3
 180 597 180 597 173.5 593.5 c 128,-1,4
 167 590 167 590 162 590 c 128,-1,5
 157 590 157 590 154.5 593 c 128,-1,6
 152 596 152 596 155 603 c 0,7,8
 187 660 187 660 202.5 713.5 c 128,-1,9
 218 767 218 767 218 800 c 1,10,11
 194 806 194 806 179 816 c 128,-1,12
 164 826 164 826 155 837.5 c 128,-1,13
 146 849 146 849 143 859 c 128,-1,14
 140 869 140 869 140 874 c 0,15,16
 140 890 140 890 145.5 907 c 128,-1,17
 151 924 151 924 160.5 937.5 c 128,-1,18
 170 951 170 951 183.5 959.5 c 128,-1,19
 197 968 197 968 213 968 c 0,20,21
 272 968 272 968 272 874 c 0,22,23
 272 859 272 859 268 835 c 128,-1,24
 264 811 264 811 256 781.5 c 128,-1,25
 248 752 248 752 236.5 719.5 c 128,-1,26
 225 687 225 687 210 654 c 0,0,1
EndSplineSet
EndChar

StartChar: afii57409
Encoding: 1569 1569 180
Width: 627
GlyphClass: 2
Flags: W
AnchorPoint: "Anchor-3" 330 -255 basechar 0
AnchorPoint: "Anchor-2" 330 690 basechar 0
LayerCount: 2
Fore
SplineSet
554 267 m 1,0,-1
 513 150 l 1,1,2
 278 132 278 132 81 -11 c 1,3,-1
 95 88 l 1,4,5
 143 117 143 117 239 162 c 1,6,-1
 239 165 l 1,7,8
 119 194 119 194 119 289 c 0,9,10
 119 304 119 304 128 335 c 1,11,12
 257 501 257 501 351 501 c 0,13,14
 424 501 424 501 504 427 c 1,15,-1
 416 357 l 1,16,17
 374 402 374 402 324 402 c 0,18,19
 246 402 246 402 207 323 c 1,20,21
 213 238 213 238 360 216 c 1,22,23
 431 243 431 243 554 267 c 1,0,-1
EndSplineSet
EndChar

StartChar: afii57440
Encoding: 1600 1600 181
Width: 397
GlyphClass: 2
Flags: W
LayerCount: 2
Fore
SplineSet
433 24 m 1,0,1
 433 0 433 0 407 0 c 2,2,-1
 -11 0 l 2,3,4
 -36 0 -36 0 -36 24 c 2,5,-1
 -36 110 l 2,6,7
 -36 139 -36 139 -11 139 c 2,8,-1
 407 139 l 2,9,10
 433 139 433 139 433 110 c 2,11,-1
 433 24 l 1,12,-1
 433 24 l 1,0,1
EndSplineSet
EndChar

StartChar: afii57453
Encoding: 1613 1613 182
Width: 0
GlyphClass: 4
Flags: W
AnchorPoint: "Anchor-3" 0 0 mark 0
AnchorPoint: "Anchor-1" 0 0 mark 0
LayerCount: 2
Fore
SplineSet
-171 -159 m 1,0,-1
 -171 -88 l 1,1,-1
 161 44 l 1,2,-1
 161 -28 l 1,3,-1
 -171 -159 l 1,0,-1
-171 -4 m 1,4,-1
 -171 68 l 1,5,-1
 161 199 l 1,6,-1
 161 127 l 1,7,-1
 -171 -4 l 1,4,-1
EndSplineSet
EndChar

StartChar: afii57455.001
Encoding: 65539 -1 183
Width: 387
GlyphClass: 4
Flags: W
LayerCount: 2
Fore
SplineSet
261 1424 m 1,0,1
 183 1306 183 1306 9 1245 c 1,2,-1
 9 1338 l 1,3,4
 76 1349 76 1349 123 1376 c 128,-1,5
 170 1403 170 1403 202 1441 c 1,6,7
 163 1454 163 1454 133 1470.5 c 128,-1,8
 103 1487 103 1487 83 1510 c 1,9,10
 89 1550 89 1550 103.5 1584.5 c 128,-1,11
 118 1619 118 1619 140.5 1643.5 c 128,-1,12
 163 1668 163 1668 192 1682 c 128,-1,13
 221 1696 221 1696 254 1696 c 1,14,15
 308 1672 308 1672 308 1586 c 0,16,17
 308 1545 308 1545 287 1485 c 1,18,19
 301 1478 301 1478 315 1473.5 c 128,-1,20
 329 1469 329 1469 341 1467 c 1,21,-1
 341 1391 l 1,22,-1
 261 1424 l 1,0,1
258 1553 m 0,23,24
 258 1606 258 1606 222 1618 c 1,25,26
 159 1618 159 1618 141 1541 c 1,27,28
 155 1527 155 1527 180 1514 c 128,-1,29
 205 1501 205 1501 239 1489 c 1,30,31
 250 1503 250 1503 254 1519 c 128,-1,32
 258 1535 258 1535 258 1553 c 0,23,24
EndSplineSet
EndChar

StartChar: afii57458.001
Encoding: 65540 -1 184
Width: 0
GlyphClass: 4
Flags: W
LayerCount: 2
Fore
SplineSet
135 1173 m 0,0,1
 135 1159 135 1159 131 1143 c 128,-1,2
 127 1127 127 1127 120 1107 c 1,3,4
 58 1045 58 1045 -6 1045 c 0,5,6
 -57 1045 -57 1045 -88.5 1073 c 128,-1,7
 -120 1101 -120 1101 -120 1145 c 0,8,9
 -120 1215 -120 1215 -20 1364 c 1,10,11
 135 1285 135 1285 135 1173 c 0,0,1
88 1162 m 1,12,13
 73 1235 73 1235 -20 1276 c 1,14,15
 -71 1206 -71 1206 -71 1170 c 0,16,17
 -71 1128 -71 1128 1 1128 c 0,18,19
 58 1128 58 1128 88 1162 c 1,12,13
EndSplineSet
EndChar

StartChar: afii57381
Encoding: 1642 1642 185
Width: 901
GlyphClass: 2
Flags: W
LayerCount: 2
Fore
SplineSet
194 -116 m 1,0,-1
 687 1175 l 1,1,-1
 763 1145 l 1,2,-1
 270 -146 l 1,3,-1
 194 -116 l 1,0,-1
826 46 m 0,4,5
 826 10 826 10 800 -16 c 128,-1,6
 774 -42 774 -42 738 -42 c 0,7,8
 701 -42 701 -42 675 -16 c 128,-1,9
 649 10 649 10 649 47 c 0,10,11
 649 83 649 83 675 109 c 128,-1,12
 701 135 701 135 737 135 c 0,13,14
 775 135 775 135 800.5 109 c 128,-1,15
 826 83 826 83 826 46 c 0,4,5
282 999 m 0,16,17
 282 964 282 964 256.5 938 c 128,-1,18
 231 912 231 912 194 912 c 0,19,20
 158 912 158 912 132 938 c 128,-1,21
 106 964 106 964 106 1001 c 0,22,23
 106 1037 106 1037 132 1063 c 128,-1,24
 158 1089 158 1089 194 1089 c 0,25,26
 231 1089 231 1089 256.5 1063 c 128,-1,27
 282 1037 282 1037 282 999 c 0,16,17
EndSplineSet
EndChar

StartChar: afii57461
Encoding: 1643 1643 186
Width: 867
GlyphClass: 2
Flags: W
LayerCount: 2
Fore
SplineSet
104 -458 m 1,0,-1
 678 442 l 1,1,-1
 779 442 l 1,2,-1
 204 -458 l 1,3,-1
 104 -458 l 1,0,-1
EndSplineSet
EndChar

StartChar: afii63167
Encoding: 1645 1645 187
Width: 1118
GlyphClass: 2
Flags: W
LayerCount: 2
Fore
SplineSet
694 729 m 1,0,-1
 1057 733 l 1,1,-1
 1057 610 l 1,2,-1
 702 612 l 1,3,-1
 971 352 l 1,4,-1
 883 264 l 1,5,-1
 616 539 l 1,6,-1
 623 168 l 1,7,-1
 498 168 l 1,8,-1
 502 539 l 1,9,-1
 236 264 l 1,10,-1
 147 352 l 1,11,-1
 422 614 l 1,12,-1
 63 610 l 1,13,-1
 63 733 l 1,14,-1
 420 729 l 1,15,-1
 170 975 l 1,16,-1
 258 1065 l 1,17,-1
 502 817 l 1,18,-1
 498 1176 l 1,19,-1
 623 1176 l 1,20,-1
 616 813 l 1,21,-1
 860 1065 l 1,22,-1
 948 975 l 1,23,-1
 694 729 l 1,0,-1
EndSplineSet
EndChar

StartChar: afii57459
Encoding: 65541 -1 188
Width: 555
GlyphClass: 2
Flags: W
LayerCount: 2
Fore
SplineSet
519 392 m 0,0,1
 519 234 519 234 466 101 c 1,2,3
 415 64 415 64 279 33 c 0,4,5
 136 0 136 0 11 0 c 2,6,-1
 -11 0 l 2,7,8
 -36 0 -36 0 -36 24 c 2,9,-1
 -36 110 l 2,10,11
 -36 139 -36 139 -11 139 c 2,12,-1
 9 139 l 2,13,14
 78 139 78 139 142.5 144.5 c 128,-1,15
 207 150 207 150 268 162 c 0,16,17
 324 173 324 173 359.5 184 c 128,-1,18
 395 195 395 195 413 208 c 1,19,20
 430 239 430 239 438.5 277 c 128,-1,21
 447 315 447 315 449 363 c 1,22,23
 388 312 388 312 270 312 c 0,24,25
 171 312 171 312 105 363 c 1,26,27
 100 395 100 395 96.5 422.5 c 128,-1,28
 93 450 93 450 93 473 c 0,29,30
 93 574 93 574 133.5 657 c 128,-1,31
 174 740 174 740 254 803 c 1,32,33
 519 741 519 741 519 392 c 0,0,1
433 488 m 1,34,35
 433 543 433 543 373 597 c 0,36,37
 312 652 312 652 232 652 c 1,38,39
 172 602 172 602 172 488 c 1,40,41
 208 451 208 451 294 451 c 0,42,43
 383 451 383 451 433 488 c 1,34,35
EndSplineSet
EndChar

StartChar: afii57543
Encoding: 65542 -1 189
Width: 501
Flags: W
LayerCount: 2
Fore
SplineSet
-36 110 m 1,0,1
 -36 127 -36 127 -31 133 c 128,-1,2
 -26 139 -26 139 -11 139 c 2,3,-1
 9 139 l 2,4,5
 37 139 37 139 73 144.5 c 128,-1,6
 109 150 109 150 141 168.5 c 128,-1,7
 173 187 173 187 195.5 223 c 128,-1,8
 218 259 218 259 218 321 c 2,9,-1
 218 351 l 1,10,11
 226 359 226 359 247 359 c 0,12,13
 258 359 258 359 264.5 357 c 128,-1,14
 271 355 271 355 281 349 c 1,15,-1
 281 319 l 2,16,17
 281 263 281 263 291.5 228 c 128,-1,18
 302 193 302 193 326.5 173 c 128,-1,19
 351 153 351 153 391.5 146 c 128,-1,20
 432 139 432 139 492 139 c 2,21,-1
 512 139 l 2,22,23
 527 139 527 139 532 133 c 128,-1,24
 537 127 537 127 537 110 c 2,25,-1
 537 24 l 2,26,27
 537 0 537 0 512 0 c 2,28,-1
 492 0 l 2,29,30
 430 0 430 0 385.5 11.5 c 128,-1,31
 341 23 341 23 312 41.5 c 128,-1,32
 283 60 283 60 268 83 c 128,-1,33
 253 106 253 106 251 129 c 1,34,-1
 243 129 l 1,35,36
 236 99 236 99 216 75.5 c 128,-1,37
 196 52 196 52 169 35 c 128,-1,38
 142 18 142 18 110.5 9 c 128,-1,39
 79 0 79 0 50 0 c 2,40,-1
 -11 0 l 2,41,42
 -36 0 -36 0 -36 24 c 2,43,-1
 -36 110 l 1,44,-1
 -36 110 l 1,0,1
EndSplineSet
EndChar

StartChar: afii57534
Encoding: 1749 1749 190
Width: 600
GlyphClass: 2
Flags: W
LayerCount: 2
Fore
SplineSet
561 241 m 1,0,1
 551 195 551 195 532.5 149 c 128,-1,2
 514 103 514 103 487 55 c 1,3,4
 370 -11 370 -11 270 -11 c 0,5,6
 191 -11 191 -11 137 31 c 0,7,8
 79 78 79 78 79 150 c 0,9,10
 79 293 79 293 249 612 c 1,11,12
 555 458 555 458 561 241 c 1,0,1
483 186 m 1,13,14
 483 246 483 246 429 317 c 0,15,16
 362 399 362 399 251 451 c 1,17,-1
 203 344 l 2,18,19
 186 303 186 303 176.5 270 c 128,-1,20
 167 237 167 237 167 209 c 0,21,22
 167 175 167 175 205 151.5 c 128,-1,23
 243 128 243 128 308 128 c 0,24,25
 330 128 330 128 355 132.5 c 128,-1,26
 380 137 380 137 404.5 145 c 128,-1,27
 429 153 429 153 449.5 163.5 c 128,-1,28
 470 174 470 174 483 186 c 1,13,14
EndSplineSet
EndChar

StartChar: afii64240
Encoding: 65543 -1 191
Width: 273
Flags: W
LayerCount: 2
Fore
SplineSet
144 2 m 1,0,-1
 23 103 l 1,1,-1
 133 212 l 1,2,-1
 252 110 l 1,3,-1
 144 2 l 1,0,-1
EndSplineSet
EndChar

StartChar: afii64241
Encoding: 65544 -1 192
Width: 498
Flags: W
LayerCount: 2
Fore
SplineSet
41 108 m 1,0,-1
 137 206 l 1,1,-1
 236 108 l 1,2,-1
 137 12 l 1,3,-1
 41 108 l 1,0,-1
267 108 m 1,4,-1
 363 206 l 1,5,-1
 462 108 l 1,6,-1
 363 12 l 1,7,-1
 267 108 l 1,4,-1
EndSplineSet
EndChar

StartChar: afii63954
Encoding: 65545 -1 193
Width: 479
Flags: W
LayerCount: 2
Fore
SplineSet
249 208 m 1,0,-1
 154 301 l 1,1,-1
 249 399 l 1,2,-1
 345 301 l 1,3,-1
 249 208 l 1,0,-1
363 11 m 1,4,-1
 268 106 l 1,5,-1
 363 204 l 1,6,-1
 458 106 l 1,7,-1
 363 11 l 1,4,-1
136 11 m 1,8,-1
 39 106 l 1,9,-1
 136 204 l 1,10,-1
 231 106 l 1,11,-1
 136 11 l 1,8,-1
EndSplineSet
EndChar

StartChar: afii57382
Encoding: 65546 -1 194
Width: 438
Flags: W
LayerCount: 2
Fore
SplineSet
216 -391 m 1,0,-1
 121 -295 l 1,1,-1
 216 -200 l 1,2,-1
 312 -295 l 1,3,-1
 216 -391 l 1,0,-1
330 -196 m 1,4,-1
 234 -100 l 1,5,-1
 330 -5 l 1,6,-1
 425 -100 l 1,7,-1
 330 -196 l 1,4,-1
103 -196 m 1,8,-1
 7 -100 l 1,9,-1
 103 -5 l 1,10,-1
 198 -100 l 1,11,-1
 103 -196 l 1,8,-1
EndSplineSet
EndChar

StartChar: afii64242
Encoding: 65547 -1 195
Width: 344
Flags: W
LayerCount: 2
Fore
SplineSet
319 275 m 1,0,1
 297 154 297 154 216 79 c 0,2,3
 128 0 128 0 9 0 c 2,4,-1
 -11 0 l 2,5,6
 -36 0 -36 0 -36 24 c 2,7,-1
 -36 110 l 2,8,9
 -36 139 -36 139 -11 139 c 2,10,-1
 36 139 l 2,11,12
 184 139 184 139 231 238 c 1,13,14
 224 276 224 276 201.5 312.5 c 128,-1,15
 179 349 179 349 143 384 c 1,16,-1
 216 559 l 1,17,18
 303 420 303 420 319 275 c 1,0,1
EndSplineSet
EndChar

StartChar: afii62881
Encoding: 59416 59416 196
Width: 0
GlyphClass: 4
Flags: W
AnchorPoint: "Anchor-2" 0 0 mark 0
AnchorPoint: "Anchor-0" 0 0 mark 0
LayerCount: 2
Fore
SplineSet
156 174 m 2,0,1
 156 44 156 44 65 44 c 0,2,3
 20 44 20 44 11 116 c 1,4,-1
 6 116 l 1,5,6
 -14 -3 -14 -3 -92 -3 c 0,7,8
 -113 -3 -113 -3 -127 5.5 c 128,-1,9
 -141 14 -141 14 -150 35 c 128,-1,10
 -159 56 -159 56 -163 91 c 128,-1,11
 -167 126 -167 126 -167 178 c 1,12,-1
 -115 197 l 1,13,-1
 -115 125 l 1,14,15
 -109 77 -109 77 -81 77 c 0,16,17
 -26 77 -26 77 -26 180 c 0,18,19
 -26 191 -26 191 -26 199.5 c 128,-1,20
 -26 208 -26 208 -28 216 c 1,21,-1
 24 233 l 1,22,23
 24 121 24 121 67 121 c 0,24,25
 101 121 101 121 101 199 c 0,26,27
 101 201 101 201 100 216.5 c 128,-1,28
 99 232 99 232 98 260 c 1,29,-1
 156 280 l 1,30,-1
 156 174 l 2,0,1
-168 275 m 1,31,-1
 -168 347 l 1,32,-1
 164 479 l 1,33,-1
 164 407 l 1,34,-1
 -168 275 l 1,31,-1
-168 414 m 1,35,-1
 -168 486 l 1,36,-1
 164 617 l 1,37,-1
 164 545 l 1,38,-1
 -168 414 l 1,35,-1
EndSplineSet
Ligature2: "'ccmp' Glyph Composition/Decomposition in Arabic lookup 4 subtable" afii57457 afii57451
EndChar

StartChar: afii57373
Encoding: 65548 -1 200
Width: 348
Flags: W
LayerCount: 2
Fore
SplineSet
304 429 m 1,0,1
 281 426 281 426 245 415.5 c 128,-1,2
 209 405 209 405 169.5 390.5 c 128,-1,3
 130 376 130 376 92.5 359 c 128,-1,4
 55 342 55 342 29 326 c 1,5,-1
 29 389 l 1,6,7
 46 398 46 398 69.5 409 c 128,-1,8
 93 420 93 420 122 427 c 1,9,-1
 122 430 l 1,10,11
 43 457 43 457 43 529 c 1,12,13
 127 654 127 654 208 654 c 0,14,15
 258 654 258 654 294 598 c 1,16,-1
 242 556 l 1,17,18
 224 574 224 574 206.5 582 c 128,-1,19
 189 590 189 590 177 590 c 0,20,21
 140 590 140 590 99 535 c 1,22,23
 129 473 129 473 200 470 c 1,24,25
 226 477 226 477 257 486.5 c 128,-1,26
 288 496 288 496 326 502 c 1,27,-1
 304 429 l 1,28,-1
 304 429 l 1,0,1
EndSplineSet
EndChar

StartChar: afii57374
Encoding: 65549 -1 201
Width: 600
GlyphClass: 2
Flags: W
LayerCount: 2
Fore
SplineSet
636 24 m 2,0,1
 636 0 636 0 611 0 c 2,2,-1
 591 0 l 2,3,4
 511 0 511 0 441 22.5 c 128,-1,5
 371 45 371 45 308 90 c 1,6,7
 254 45 254 45 180 22.5 c 128,-1,8
 106 0 106 0 9 0 c 2,9,-1
 -11 0 l 2,10,11
 -36 0 -36 0 -36 24 c 2,12,-1
 -36 110 l 2,13,14
 -36 139 -36 139 -11 139 c 2,15,-1
 9 139 l 2,16,17
 130 139 130 139 189 162 c 1,18,19
 101 222 101 222 101 342 c 0,20,21
 101 450 101 450 170.5 532.5 c 128,-1,22
 240 615 240 615 370 660 c 1,23,24
 524 546 524 546 524 385 c 0,25,26
 524 264 524 264 411 172 c 1,27,28
 489 139 489 139 591 139 c 2,29,-1
 611 139 l 2,30,31
 636 139 636 139 636 110 c 2,32,-1
 636 24 l 2,0,1
436 363 m 0,33,34
 436 448 436 448 342 504 c 1,35,36
 218 480 218 480 179 339 c 1,37,38
 186 304 186 304 234 256 c 0,39,40
 256 234 256 234 275 220.5 c 128,-1,41
 294 207 294 207 308 200 c 1,42,43
 370 220 370 220 406 268 c 0,44,45
 420 290 420 290 428 313.5 c 128,-1,46
 436 337 436 337 436 363 c 0,33,34
EndSplineSet
EndChar

StartChar: afii57375
Encoding: 1619 1619 202
Width: 385
GlyphClass: 2
Flags: W
LayerCount: 2
Fore
SplineSet
367 888 m 1,0,1
 286 823 286 823 153 823 c 0,2,3
 93 823 93 823 77 825 c 1,4,5
 57 790 57 790 54 745 c 1,6,7
 11 745 11 745 2 749 c 1,8,9
 2 840 2 840 36 913 c 1,10,11
 86 900 86 900 176 900 c 0,12,13
 290 900 290 900 367 952 c 1,14,-1
 367 888 l 1,0,1
EndSplineSet
EndChar

StartChar: afii57471
Encoding: 65550 -1 203
Width: 1348
Flags: W
LayerCount: 2
Fore
SplineSet
1384 24 m 1,0,1
 1384 0 1384 0 1357 0 c 2,2,-1
 1339 0 l 2,3,4
 1261 0 1261 0 1216 38 c 0,5,6
 1196 56 1196 56 1185.5 78.5 c 128,-1,7
 1175 101 1175 101 1175 129 c 0,8,9
 1175 155 1175 155 1182 180 c 1,10,11
 1127 139 1127 139 1054.5 105.5 c 128,-1,12
 982 72 982 72 894 45 c 0,13,14
 798 16 798 16 703.5 2.5 c 128,-1,15
 609 -11 609 -11 512 -11 c 0,16,17
 302 -11 302 -11 187 67 c 0,18,19
 83 138 83 138 83 256 c 0,20,21
 83 377 83 377 186 546 c 0,22,23
 187 548 187 548 198 548 c 0,24,25
 223 548 223 548 239 517 c 1,26,27
 180 417 180 417 180 335 c 0,28,29
 180 291 180 291 206 255 c 128,-1,30
 232 219 232 219 281 193 c 128,-1,31
 330 167 330 167 400 153 c 128,-1,32
 470 139 470 139 559 139 c 0,33,34
 612 139 612 139 675.5 145.5 c 128,-1,35
 739 152 739 152 817 165 c 0,36,37
 892 179 892 179 951 194 c 128,-1,38
 1010 209 1010 209 1052 227 c 0,39,40
 1089 242 1089 242 1114.5 256 c 128,-1,41
 1140 270 1140 270 1154 285 c 0,42,43
 1184 315 1184 315 1202 397 c 1,44,45
 1212 400 1212 400 1224 400 c 0,46,47
 1249 400 1249 400 1269 375 c 1,48,49
 1240 313 1240 313 1240 249 c 0,50,51
 1240 139 1240 139 1339 139 c 2,52,-1
 1357 139 l 2,53,54
 1384 139 1384 139 1384 110 c 2,55,-1
 1384 24 l 1,56,-1
 1384 24 l 1,0,1
EndSplineSet
EndChar

StartChar: afii52258
Encoding: 65551 -1 204
Width: 1417
GlyphClass: 2
Flags: W
LayerCount: 2
Fore
SplineSet
1453 24 m 2,0,1
 1453 0 1453 0 1427 0 c 2,2,-1
 1407 0 l 2,3,4
 1250 0 1250 0 1125 90 c 1,5,6
 1095 64 1095 64 1052 45.5 c 128,-1,7
 1009 27 1009 27 953 14 c 0,8,9
 890 2 890 2 796 -4.5 c 128,-1,10
 702 -11 702 -11 575 -11 c 256,11,12
 448 -11 448 -11 354 8 c 128,-1,13
 260 27 260 27 196 67 c 0,14,15
 83 138 83 138 83 256 c 0,16,17
 83 377 83 377 186 546 c 0,18,19
 187 548 187 548 198 548 c 0,20,21
 223 548 223 548 239 517 c 1,22,23
 180 417 180 417 180 335 c 0,24,25
 180 139 180 139 660 139 c 0,26,27
 778 139 778 139 864 144.5 c 128,-1,28
 950 150 950 150 1006 162 c 1,29,30
 915 224 915 224 915 342 c 0,31,32
 915 450 915 450 986 532.5 c 128,-1,33
 1057 615 1057 615 1186 660 c 1,34,35
 1341 545 1341 545 1341 385 c 0,36,37
 1341 265 1341 265 1228 172 c 1,38,39
 1306 139 1306 139 1407 139 c 2,40,-1
 1427 139 l 2,41,42
 1453 139 1453 139 1453 110 c 2,43,-1
 1453 24 l 2,0,1
1250 363 m 0,44,45
 1250 447 1250 447 1159 504 c 1,46,47
 1033 480 1033 480 994 339 c 1,48,49
 1005 302 1005 302 1051 256 c 0,50,51
 1090 214 1090 214 1125 200 c 1,52,53
 1186 220 1186 220 1220 268 c 0,54,55
 1250 311 1250 311 1250 363 c 0,44,45
EndSplineSet
EndChar

StartChar: afii62889
Encoding: 65552 -1 210
Width: 1186
Flags: W
LayerCount: 2
Fore
SplineSet
1222 24 m 2,0,1
 1222 0 1222 0 1197 0 c 2,2,-1
 1092 0 l 1,3,4
 1092 -40 1092 -40 1078 -122 c 0,5,6
 1063 -199 1063 -199 1049 -236 c 1,7,8
 977 -340 977 -340 786 -430 c 0,9,10
 583 -527 583 -527 409 -524 c 0,11,12
 257 -524 257 -524 160 -451 c 0,13,14
 109 -413 109 -413 85.5 -360 c 128,-1,15
 62 -307 62 -307 62 -238 c 0,16,17
 62 -158 62 -158 95.5 -58.5 c 128,-1,18
 129 41 129 41 198 160 c 1,19,20
 229 160 229 160 258 132 c 1,21,22
 221 70 221 70 196 -16 c 0,23,24
 175 -97 175 -97 175 -151 c 0,25,26
 175 -255 175 -255 245.5 -315 c 128,-1,27
 316 -375 316 -375 445 -375 c 0,28,29
 508 -375 508 -375 576.5 -359 c 128,-1,30
 645 -343 645 -343 721 -312 c 0,31,32
 881 -246 881 -246 1002 -141 c 1,33,34
 1022 -66 1022 -66 1022 5 c 1,35,36
 999 3 999 3 967.5 1.5 c 128,-1,37
 936 0 936 0 894 0 c 0,38,39
 822 0 822 0 767.5 13 c 128,-1,40
 713 26 713 26 674 52 c 1,41,42
 664 111 664 111 664 164 c 0,43,44
 664 264 664 264 702.5 346 c 128,-1,45
 741 428 741 428 822 492 c 1,46,47
 1067 435 1067 435 1085 139 c 1,48,-1
 1197 139 l 2,49,50
 1222 139 1222 139 1222 110 c 2,51,-1
 1222 24 l 2,0,1
1008 139 m 1,52,53
 1008 208 1008 208 944 274 c 0,54,55
 879 342 879 342 805 342 c 1,56,57
 741 288 741 288 741 184 c 1,58,59
 811 139 811 139 1008 139 c 1,52,53
EndSplineSet
EndChar

StartChar: afii62887
Encoding: 65553 -1 211
Width: 1316
Flags: W
LayerCount: 2
Fore
SplineSet
1283 289 m 0,0,1
 1281 276 1281 276 1271 252.5 c 128,-1,2
 1261 229 1261 229 1245 193 c 0,3,4
 1211 116 1211 116 1196 101 c 1,5,6
 1135 76 1135 76 928 38 c 0,7,8
 799 13 799 13 691 1 c 128,-1,9
 583 -11 583 -11 494 -11 c 0,10,11
 389 -11 389 -11 308 8 c 128,-1,12
 227 27 227 27 169 67 c 0,13,14
 64 139 64 139 64 256 c 0,15,16
 64 375 64 375 167 546 c 0,17,18
 169 548 169 548 180 548 c 0,19,20
 204 548 204 548 221 517 c 1,21,22
 191 467 191 467 176.5 421.5 c 128,-1,23
 162 376 162 376 162 335 c 0,24,25
 162 291 162 291 188 255 c 128,-1,26
 214 219 214 219 262.5 193 c 128,-1,27
 311 167 311 167 381 153 c 128,-1,28
 451 139 451 139 540 139 c 0,29,30
 735 139 735 139 944 172 c 0,31,32
 1029 183 1029 183 1091.5 198 c 128,-1,33
 1154 213 1154 213 1198 227 c 1,34,35
 1196 239 1196 239 1188.5 259 c 128,-1,36
 1181 279 1181 279 1170 308 c 0,37,38
 1145 371 1145 371 1122 397 c 1,39,-1
 1204 559 l 1,40,41
 1227 514 1227 514 1256 414 c 0,42,43
 1269 368 1269 368 1276 337 c 128,-1,44
 1283 306 1283 306 1283 289 c 0,0,1
EndSplineSet
EndChar

StartChar: afii62888
Encoding: 1697 1697 212
Width: 1228
GlyphClass: 2
Flags: W
LayerCount: 2
Fore
SplineSet
1186 345 m 0,0,1
 1186 279 1186 279 1173 212.5 c 128,-1,2
 1160 146 1160 146 1133 79 c 1,3,4
 1048 35 1048 35 880 12.5 c 128,-1,5
 712 -10 712 -10 457 -10 c 0,6,7
 363 -10 363 -10 290.5 7 c 128,-1,8
 218 24 218 24 166 59 c 0,9,10
 73 123 73 123 73 225 c 0,11,12
 73 332 73 332 164 480 c 0,13,14
 165 482 165 482 174 482 c 0,15,16
 198 482 198 482 210 455 c 1,17,18
 158 366 158 366 158 295 c 0,19,20
 158 256 158 256 181.5 224.5 c 128,-1,21
 205 193 205 193 248.5 170 c 128,-1,22
 292 147 292 147 354.5 134.5 c 128,-1,23
 417 122 417 122 496 122 c 0,24,25
 617 122 617 122 721 127 c 128,-1,26
 825 132 825 132 913 143 c 0,27,28
 1055 159 1055 159 1091 183 c 1,29,30
 1120 235 1120 235 1123 319 c 1,31,32
 1067 275 1067 275 964 275 c 0,33,34
 879 275 879 275 820 319 c 1,35,36
 815 348 815 348 812.5 372 c 128,-1,37
 810 396 810 396 810 416 c 0,38,39
 810 595 810 595 952 707 c 1,40,41
 1186 653 1186 653 1186 345 c 0,0,1
1109 429 m 1,42,43
 1109 478 1109 478 1056 525 c 0,44,45
 1000 574 1000 574 931 574 c 1,46,47
 879 529 879 529 879 429 c 1,48,49
 910 397 910 397 986 397 c 0,50,51
 1065 397 1065 397 1109 429 c 1,42,43
EndSplineSet
Substitution2: "'fina' Terminal Forms in Arabic lookup 3 subtable" afii52258
Substitution2: "'medi' Medial Forms in Arabic lookup 2 subtable" afii57374
Substitution2: "'init' Initial Forms in Arabic lookup 1 subtable" afii57459
EndChar

StartChar: afii57567
Encoding: 1705 1705 219
Width: 1507
GlyphClass: 2
Flags: W
AnchorPoint: "Anchor-3" 675 -480 basechar 0
AnchorPoint: "Anchor-2" 570 1005 basechar 0
LayerCount: 2
Fore
SplineSet
1249 173 m 1,0,1
 1213 125 1213 125 1154 90 c 128,-1,2
 1095 55 1095 55 1008.5 32.5 c 128,-1,3
 922 10 922 10 805.5 -0.5 c 128,-1,4
 689 -11 689 -11 539 -11 c 0,5,6
 420 -11 420 -11 334 10 c 128,-1,7
 248 31 248 31 192 67.5 c 128,-1,8
 136 104 136 104 109.5 152.5 c 128,-1,9
 83 201 83 201 83 256 c 0,10,11
 83 325 83 325 112 397.5 c 128,-1,12
 141 470 141 470 186 546 c 0,13,14
 187 548 187 548 198 548 c 0,15,16
 208 548 208 548 220.5 538.5 c 128,-1,17
 233 529 233 529 239 517 c 1,18,19
 211 467 211 467 195.5 417 c 128,-1,20
 180 367 180 367 180 335 c 0,21,22
 180 292 180 292 206.5 256 c 128,-1,23
 233 220 233 220 283.5 194 c 128,-1,24
 334 168 334 168 408 153.5 c 128,-1,25
 482 139 482 139 578 139 c 0,26,27
 1112 139 1112 139 1209 270 c 1,28,29
 1207 309 1207 309 1190 349 c 128,-1,30
 1173 389 1173 389 1131 433 c 128,-1,31
 1089 477 1089 477 1018 526 c 128,-1,32
 947 575 947 575 838 634 c 1,33,-1
 860 834 l 1,34,35
 901 863 901 863 960 901 c 128,-1,36
 1019 939 1019 939 1086 980 c 128,-1,37
 1153 1021 1153 1021 1224 1062 c 128,-1,38
 1295 1103 1295 1103 1361 1139 c 128,-1,39
 1427 1175 1427 1175 1483 1202 c 128,-1,40
 1539 1229 1539 1229 1577 1242 c 1,41,-1
 1507 1071 l 1,42,43
 1481 1062 1481 1062 1433.5 1038.5 c 128,-1,44
 1386 1015 1386 1015 1327.5 984 c 128,-1,45
 1269 953 1269 953 1206 917.5 c 128,-1,46
 1143 882 1143 882 1085.5 848 c 128,-1,47
 1028 814 1028 814 982 784.5 c 128,-1,48
 936 755 936 755 912 737 c 1,49,50
 1004 685 1004 685 1069.5 637.5 c 128,-1,51
 1135 590 1135 590 1178.5 546 c 128,-1,52
 1222 502 1222 502 1246 459.5 c 128,-1,53
 1270 417 1270 417 1280 375 c 1,54,55
 1278 352 1278 352 1275 326 c 128,-1,56
 1272 300 1272 300 1268 273 c 128,-1,57
 1264 246 1264 246 1259.5 220.5 c 128,-1,58
 1255 195 1255 195 1249 173 c 1,0,1
EndSplineSet
Substitution2: "'fina' Terminal Forms in Arabic lookup 3 subtable" afii62964
Substitution2: "'medi' Medial Forms in Arabic lookup 2 subtable" afii52306
Substitution2: "'init' Initial Forms in Arabic lookup 1 subtable" afii52305
EndChar

StartChar: afii62964
Encoding: 64399 64399 220
Width: 1714
GlyphClass: 2
Flags: W
AnchorPoint: "Anchor-3" 585 -420 basechar 0
AnchorPoint: "Anchor-2" 600 1095 basechar 0
LayerCount: 2
Fore
SplineSet
1272 173 m 1,0,1
 1244 139 1244 139 1213.5 112.5 c 128,-1,2
 1183 86 1183 86 1143.5 65.5 c 128,-1,3
 1104 45 1104 45 1053.5 30.5 c 128,-1,4
 1003 16 1003 16 934 7 c 128,-1,5
 865 -2 865 -2 775 -6.5 c 128,-1,6
 685 -11 685 -11 568 -11 c 0,7,8
 438 -11 438 -11 346 10 c 128,-1,9
 254 31 254 31 195.5 67.5 c 128,-1,10
 137 104 137 104 110 152.5 c 128,-1,11
 83 201 83 201 83 256 c 0,12,13
 83 325 83 325 112 397.5 c 128,-1,14
 141 470 141 470 186 546 c 0,15,16
 187 548 187 548 198 548 c 0,17,18
 208 548 208 548 220.5 538.5 c 128,-1,19
 233 529 233 529 239 517 c 1,20,21
 211 467 211 467 195.5 417 c 128,-1,22
 180 367 180 367 180 335 c 0,23,24
 180 292 180 292 206.5 256 c 128,-1,25
 233 220 233 220 286 194 c 128,-1,26
 339 168 339 168 418.5 153.5 c 128,-1,27
 498 139 498 139 604 139 c 0,28,29
 753 139 753 139 860.5 147 c 128,-1,30
 968 155 968 155 1042.5 171 c 128,-1,31
 1117 187 1117 187 1163.5 211.5 c 128,-1,32
 1210 236 1210 236 1236 270 c 1,33,34
 1233 310 1233 310 1216 349.5 c 128,-1,35
 1199 389 1199 389 1157.5 432 c 128,-1,36
 1116 475 1116 475 1045 524.5 c 128,-1,37
 974 574 974 574 863 634 c 1,38,-1
 887 834 l 1,39,40
 926 863 926 863 984.5 901 c 128,-1,41
 1043 939 1043 939 1110.5 980.5 c 128,-1,42
 1178 1022 1178 1022 1249.5 1063.5 c 128,-1,43
 1321 1105 1321 1105 1387.5 1140.5 c 128,-1,44
 1454 1176 1454 1176 1510.5 1203 c 128,-1,45
 1567 1230 1567 1230 1604 1242 c 1,46,-1
 1534 1071 l 1,47,48
 1508 1063 1508 1063 1460 1040 c 128,-1,49
 1412 1017 1412 1017 1353 986 c 128,-1,50
 1294 955 1294 955 1230.5 919 c 128,-1,51
 1167 883 1167 883 1110 849 c 128,-1,52
 1053 815 1053 815 1007 785 c 128,-1,53
 961 755 961 755 939 737 c 1,54,55
 1019 688 1019 688 1090 638.5 c 128,-1,56
 1161 589 1161 589 1235 527.5 c 128,-1,57
 1309 466 1309 466 1393 387.5 c 128,-1,58
 1477 309 1477 309 1584 202 c 0,59,60
 1615 170 1615 170 1647 154.5 c 128,-1,61
 1679 139 1679 139 1705 139 c 2,62,-1
 1725 139 l 2,63,64
 1737 139 1737 139 1743.5 133 c 128,-1,65
 1750 127 1750 127 1750 110 c 2,66,-1
 1750 24 l 2,67,68
 1750 0 1750 0 1725 0 c 2,69,-1
 1705 0 l 2,70,71
 1682 0 1682 0 1662 4 c 128,-1,72
 1642 8 1642 8 1619 20.5 c 128,-1,73
 1596 33 1596 33 1567 57 c 128,-1,74
 1538 81 1538 81 1498 121.5 c 128,-1,75
 1458 162 1458 162 1405 221 c 128,-1,76
 1352 280 1352 280 1280 363 c 1,77,-1
 1276 359 l 1,78,79
 1281 337 1281 337 1283 316.5 c 128,-1,80
 1285 296 1285 296 1285 279 c 0,81,82
 1285 254 1285 254 1281 225 c 128,-1,83
 1277 196 1277 196 1272 173 c 1,0,1
EndSplineSet
EndChar

StartChar: afii52305
Encoding: 64400 64400 221
Width: 707
GlyphClass: 2
Flags: W
AnchorPoint: "Anchor-3" 195 -435 basechar 0
AnchorPoint: "Anchor-2" 270 1185 basechar 0
LayerCount: 2
Fore
SplineSet
701 1071 m 1,0,1
 675 1062 675 1062 627.5 1038.5 c 128,-1,2
 580 1015 580 1015 522 984 c 128,-1,3
 464 953 464 953 400.5 917.5 c 128,-1,4
 337 882 337 882 279.5 848 c 128,-1,5
 222 814 222 814 176 784.5 c 128,-1,6
 130 755 130 755 106 737 c 1,7,8
 198 685 198 685 263.5 637.5 c 128,-1,9
 329 590 329 590 372.5 546 c 128,-1,10
 416 502 416 502 440.5 459.5 c 128,-1,11
 465 417 465 417 474 375 c 1,12,13
 472 352 472 352 469 326 c 128,-1,14
 466 300 466 300 462 273 c 128,-1,15
 458 246 458 246 453.5 220.5 c 128,-1,16
 449 195 449 195 444 173 c 1,17,18
 397 124 397 124 350 91 c 128,-1,19
 303 58 303 58 250.5 37.5 c 128,-1,20
 198 17 198 17 139 8.5 c 128,-1,21
 80 0 80 0 9 0 c 2,22,-1
 -11 0 l 2,23,24
 -36 0 -36 0 -36 24 c 2,25,-1
 -36 110 l 2,26,27
 -36 127 -36 127 -31 133 c 128,-1,28
 -26 139 -26 139 -11 139 c 2,29,-1
 40 139 l 2,30,31
 177 139 177 139 266.5 173 c 128,-1,32
 356 207 356 207 404 270 c 1,33,34
 402 309 402 309 385 349 c 128,-1,35
 368 389 368 389 326 433 c 128,-1,36
 284 477 284 477 213 526 c 128,-1,37
 142 575 142 575 33 634 c 1,38,-1
 54 834 l 1,39,40
 94 863 94 863 153 901 c 128,-1,41
 212 939 212 939 279.5 980 c 128,-1,42
 347 1021 347 1021 418.5 1062.5 c 128,-1,43
 490 1104 490 1104 556.5 1139.5 c 128,-1,44
 623 1175 623 1175 679 1202 c 128,-1,45
 735 1229 735 1229 772 1242 c 1,46,-1
 701 1071 l 1,47,-1
 701 1071 l 1,0,1
EndSplineSet
EndChar

StartChar: afii52306
Encoding: 64401 64401 222
Width: 901
GlyphClass: 2
Flags: W
AnchorPoint: "Anchor-3" 300 -495 basechar 0
AnchorPoint: "Anchor-2" 210 1200 basechar 0
LayerCount: 2
Fore
SplineSet
937 24 m 1,0,1
 937 0 937 0 912 0 c 2,2,-1
 892 0 l 2,3,4
 871 0 871 0 851 3.5 c 128,-1,5
 831 7 831 7 807.5 19.5 c 128,-1,6
 784 32 784 32 755 56 c 128,-1,7
 726 80 726 80 685.5 120.5 c 128,-1,8
 645 161 645 161 592 220 c 128,-1,9
 539 279 539 279 468 363 c 1,10,-1
 465 359 l 1,11,12
 470 337 470 337 471.5 316.5 c 128,-1,13
 473 296 473 296 473 279 c 0,14,15
 473 254 473 254 468.5 225 c 128,-1,16
 464 196 464 196 459 173 c 1,17,18
 412 124 412 124 365.5 91 c 128,-1,19
 319 58 319 58 267.5 37.5 c 128,-1,20
 216 17 216 17 156.5 8.5 c 128,-1,21
 97 0 97 0 24 0 c 2,22,-1
 -11 0 l 2,23,24
 -36 0 -36 0 -36 24 c 2,25,-1
 -36 110 l 2,26,27
 -36 127 -36 127 -31 133 c 128,-1,28
 -26 139 -26 139 -11 139 c 2,29,-1
 60 139 l 2,30,31
 195 139 195 139 285 173 c 128,-1,32
 375 207 375 207 423 270 c 1,33,34
 420 310 420 310 402.5 349.5 c 128,-1,35
 385 389 385 389 343.5 432 c 128,-1,36
 302 475 302 475 231.5 524.5 c 128,-1,37
 161 574 161 574 52 634 c 1,38,-1
 74 834 l 1,39,40
 114 863 114 863 172 901 c 128,-1,41
 230 939 230 939 297.5 980.5 c 128,-1,42
 365 1022 365 1022 436.5 1063.5 c 128,-1,43
 508 1105 508 1105 574.5 1140.5 c 128,-1,44
 641 1176 641 1176 697.5 1203 c 128,-1,45
 754 1230 754 1230 791 1242 c 1,46,-1
 721 1071 l 1,47,48
 695 1062 695 1062 647.5 1038.5 c 128,-1,49
 600 1015 600 1015 541.5 984 c 128,-1,50
 483 953 483 953 420 917.5 c 128,-1,51
 357 882 357 882 299.5 848 c 128,-1,52
 242 814 242 814 196 784.5 c 128,-1,53
 150 755 150 755 126 737 c 1,54,55
 179 704 179 704 228 671.5 c 128,-1,56
 277 639 277 639 324.5 603 c 128,-1,57
 372 567 372 567 421.5 526.5 c 128,-1,58
 471 486 471 486 525 438 c 128,-1,59
 579 390 579 390 640.5 331.5 c 128,-1,60
 702 273 702 273 774 202 c 0,61,62
 805 170 805 170 835.5 154.5 c 128,-1,63
 866 139 866 139 892 139 c 2,64,-1
 912 139 l 2,65,66
 927 139 927 139 932 133 c 128,-1,67
 937 127 937 127 937 110 c 2,68,-1
 937 24 l 1,69,-1
 937 24 l 1,0,1
EndSplineSet
EndChar

StartChar: afii57509
Encoding: 1711 1711 223
Width: 1468
GlyphClass: 2
Flags: W
AnchorPoint: "Anchor-3" 585 -465 basechar 0
AnchorPoint: "Anchor-2" 540 1035 basechar 0
LayerCount: 2
Fore
SplineSet
903 1016 m 1,0,1
 961 1045 961 1045 1021.5 1072.5 c 128,-1,2
 1082 1100 1082 1100 1142 1125 c 128,-1,3
 1202 1150 1202 1150 1258 1171.5 c 128,-1,4
 1314 1193 1314 1193 1362.5 1210 c 128,-1,5
 1411 1227 1411 1227 1449 1239 c 128,-1,6
 1487 1251 1487 1251 1510 1256 c 1,7,-1
 1453 1159 l 1,8,9
 1438 1156 1438 1156 1400 1143.5 c 128,-1,10
 1362 1131 1362 1131 1311.5 1112 c 128,-1,11
 1261 1093 1261 1093 1202.5 1070 c 128,-1,12
 1144 1047 1144 1047 1086.5 1023 c 128,-1,13
 1029 999 1029 999 977 976 c 128,-1,14
 925 953 925 953 889 935 c 1,15,-1
 903 1016 l 1,0,1
1472 910 m 1,16,17
 1443 904 1443 904 1397 891 c 128,-1,18
 1351 878 1351 878 1297.5 861 c 128,-1,19
 1244 844 1244 844 1186.5 824.5 c 128,-1,20
 1129 805 1129 805 1076.5 786 c 128,-1,21
 1024 767 1024 767 980 749 c 128,-1,22
 936 731 936 731 910 717 c 1,23,24
 1007 672 1007 672 1073.5 629 c 128,-1,25
 1140 586 1140 586 1183 543.5 c 128,-1,26
 1226 501 1226 501 1248.5 459 c 128,-1,27
 1271 417 1271 417 1280 375 c 1,28,29
 1278 353 1278 353 1275 327 c 128,-1,30
 1272 301 1272 301 1268 274 c 128,-1,31
 1264 247 1264 247 1259.5 221 c 128,-1,32
 1255 195 1255 195 1249 173 c 1,33,34
 1213 125 1213 125 1154 90 c 128,-1,35
 1095 55 1095 55 1008.5 32.5 c 128,-1,36
 922 10 922 10 805.5 -0.5 c 128,-1,37
 689 -11 689 -11 539 -11 c 0,38,39
 420 -11 420 -11 334 10 c 128,-1,40
 248 31 248 31 192 67.5 c 128,-1,41
 136 104 136 104 109.5 152.5 c 128,-1,42
 83 201 83 201 83 256 c 0,43,44
 83 325 83 325 112 397.5 c 128,-1,45
 141 470 141 470 186 546 c 0,46,47
 187 548 187 548 198 548 c 0,48,49
 208 548 208 548 220.5 538.5 c 128,-1,50
 233 529 233 529 239 517 c 1,51,52
 211 467 211 467 195.5 417 c 128,-1,53
 180 367 180 367 180 335 c 0,54,55
 180 292 180 292 206.5 256 c 128,-1,56
 233 220 233 220 283.5 194 c 128,-1,57
 334 168 334 168 408 153.5 c 128,-1,58
 482 139 482 139 578 139 c 0,59,60
 1112 139 1112 139 1209 270 c 1,61,62
 1207 307 1207 307 1188 349 c 128,-1,63
 1169 391 1169 391 1126 436 c 128,-1,64
 1083 481 1083 481 1012.5 528 c 128,-1,65
 942 575 942 575 838 620 c 1,66,-1
 858 813 l 1,67,68
 919 841 919 841 986.5 869 c 128,-1,69
 1054 897 1054 897 1122.5 923 c 128,-1,70
 1191 949 1191 949 1257 972.5 c 128,-1,71
 1323 996 1323 996 1382.5 1016 c 128,-1,72
 1442 1036 1442 1036 1492 1050.5 c 128,-1,73
 1542 1065 1542 1065 1577 1074 c 1,74,-1
 1472 910 l 1,16,17
EndSplineSet
Substitution2: "'fina' Terminal Forms in Arabic lookup 3 subtable" afii62967
Substitution2: "'medi' Medial Forms in Arabic lookup 2 subtable" afii62966
Substitution2: "'init' Initial Forms in Arabic lookup 1 subtable" afii62965
EndChar

StartChar: afii62967
Encoding: 64403 64403 224
Width: 1714
GlyphClass: 2
Flags: W
AnchorPoint: "Anchor-3" 600 -525 basechar 0
AnchorPoint: "Anchor-2" 585 1125 basechar 0
LayerCount: 2
Fore
SplineSet
1750 24 m 2,0,1
 1750 0 1750 0 1725 0 c 2,2,-1
 1703 0 l 2,3,4
 1681 0 1681 0 1661 4 c 128,-1,5
 1641 8 1641 8 1618 20.5 c 128,-1,6
 1595 33 1595 33 1566.5 57 c 128,-1,7
 1538 81 1538 81 1498 121.5 c 128,-1,8
 1458 162 1458 162 1405 221 c 128,-1,9
 1352 280 1352 280 1280 363 c 1,10,-1
 1276 359 l 1,11,12
 1281 337 1281 337 1282 316.5 c 128,-1,13
 1283 296 1283 296 1283 279 c 0,14,15
 1283 254 1283 254 1280 225 c 128,-1,16
 1277 196 1277 196 1272 173 c 1,17,18
 1244 139 1244 139 1213.5 112.5 c 128,-1,19
 1183 86 1183 86 1143.5 65.5 c 128,-1,20
 1104 45 1104 45 1053.5 30.5 c 128,-1,21
 1003 16 1003 16 934 7 c 128,-1,22
 865 -2 865 -2 775 -6.5 c 128,-1,23
 685 -11 685 -11 568 -11 c 0,24,25
 438 -11 438 -11 346 10 c 128,-1,26
 254 31 254 31 195.5 67.5 c 128,-1,27
 137 104 137 104 110 152.5 c 128,-1,28
 83 201 83 201 83 256 c 0,29,30
 83 325 83 325 112 397.5 c 128,-1,31
 141 470 141 470 186 546 c 0,32,33
 187 548 187 548 198 548 c 0,34,35
 208 548 208 548 220.5 538.5 c 128,-1,36
 233 529 233 529 239 517 c 1,37,38
 211 467 211 467 195.5 417 c 128,-1,39
 180 367 180 367 180 335 c 0,40,41
 180 292 180 292 206.5 256 c 128,-1,42
 233 220 233 220 286 194 c 128,-1,43
 339 168 339 168 418.5 153.5 c 128,-1,44
 498 139 498 139 604 139 c 0,45,46
 753 139 753 139 860.5 147 c 128,-1,47
 968 155 968 155 1042.5 171 c 128,-1,48
 1117 187 1117 187 1163.5 211.5 c 128,-1,49
 1210 236 1210 236 1236 270 c 1,50,51
 1233 307 1233 307 1213 349 c 128,-1,52
 1193 391 1193 391 1150 436 c 128,-1,53
 1107 481 1107 481 1036.5 528 c 128,-1,54
 966 575 966 575 863 620 c 1,55,-1
 881 813 l 1,56,57
 943 840 943 840 1016 868.5 c 128,-1,58
 1089 897 1089 897 1165.5 924 c 128,-1,59
 1242 951 1242 951 1317.5 976 c 128,-1,60
 1393 1001 1393 1001 1460.5 1022 c 128,-1,61
 1528 1043 1528 1043 1583 1058 c 128,-1,62
 1638 1073 1638 1073 1673 1080 c 1,63,-1
 1557 915 l 1,64,65
 1528 908 1528 908 1478 894 c 128,-1,66
 1428 880 1428 880 1367.5 862 c 128,-1,67
 1307 844 1307 844 1241.5 824 c 128,-1,68
 1176 804 1176 804 1116.5 784.5 c 128,-1,69
 1057 765 1057 765 1009 747 c 128,-1,70
 961 729 961 729 935 717 c 1,71,72
 1013 675 1013 675 1084 629.5 c 128,-1,73
 1155 584 1155 584 1230 524.5 c 128,-1,74
 1305 465 1305 465 1391 387 c 128,-1,75
 1477 309 1477 309 1586 202 c 0,76,77
 1617 170 1617 170 1648.5 154.5 c 128,-1,78
 1680 139 1680 139 1703 139 c 2,79,-1
 1725 139 l 2,80,81
 1737 139 1737 139 1743.5 133 c 128,-1,82
 1750 127 1750 127 1750 110 c 2,83,-1
 1750 24 l 2,0,1
930 1008 m 1,84,85
 986 1037 986 1037 1051 1065 c 128,-1,86
 1116 1093 1116 1093 1182 1119 c 128,-1,87
 1248 1145 1248 1145 1312.5 1167.5 c 128,-1,88
 1377 1190 1377 1190 1432.5 1208 c 128,-1,89
 1488 1226 1488 1226 1530.5 1238.5 c 128,-1,90
 1573 1251 1573 1251 1597 1256 c 1,91,-1
 1519 1154 l 1,92,93
 1504 1150 1504 1150 1464 1137 c 128,-1,94
 1424 1124 1424 1124 1368.5 1105 c 128,-1,95
 1313 1086 1313 1086 1249 1062.5 c 128,-1,96
 1185 1039 1185 1039 1122.5 1015 c 128,-1,97
 1060 991 1060 991 1004.5 968 c 128,-1,98
 949 945 949 945 912 927 c 1,99,-1
 930 1008 l 1,84,85
EndSplineSet
EndChar

StartChar: afii62965
Encoding: 64404 64404 225
Width: 673
GlyphClass: 2
Flags: W
AnchorPoint: "Anchor-3" 195 -465 basechar 0
AnchorPoint: "Anchor-2" 270 1260 basechar 0
LayerCount: 2
Fore
SplineSet
667 910 m 1,0,1
 638 903 638 903 592 889.5 c 128,-1,2
 546 876 546 876 492.5 859 c 128,-1,3
 439 842 439 842 382 822.5 c 128,-1,4
 325 803 325 803 272 784 c 128,-1,5
 219 765 219 765 175 747.5 c 128,-1,6
 131 730 131 730 105 717 c 1,7,8
 202 672 202 672 268.5 629 c 128,-1,9
 335 586 335 586 377.5 543.5 c 128,-1,10
 420 501 420 501 442.5 459 c 128,-1,11
 465 417 465 417 474 375 c 1,12,13
 472 352 472 352 469 326 c 128,-1,14
 466 300 466 300 462 273 c 128,-1,15
 458 246 458 246 453.5 220.5 c 128,-1,16
 449 195 449 195 444 173 c 1,17,18
 397 124 397 124 350 91 c 128,-1,19
 303 58 303 58 250.5 37.5 c 128,-1,20
 198 17 198 17 139 8.5 c 128,-1,21
 80 0 80 0 9 0 c 2,22,-1
 -11 0 l 2,23,24
 -36 0 -36 0 -36 24 c 2,25,-1
 -36 110 l 2,26,27
 -36 127 -36 127 -31 133 c 128,-1,28
 -26 139 -26 139 -11 139 c 2,29,-1
 40 139 l 2,30,31
 177 139 177 139 266.5 173 c 128,-1,32
 356 207 356 207 404 270 c 1,33,34
 402 307 402 307 382 349 c 128,-1,35
 362 391 362 391 318.5 436 c 128,-1,36
 275 481 275 481 205 528 c 128,-1,37
 135 575 135 575 33 620 c 1,38,-1
 50 813 l 1,39,40
 111 840 111 840 179 868 c 128,-1,41
 247 896 247 896 315.5 922.5 c 128,-1,42
 384 949 384 949 450.5 973 c 128,-1,43
 517 997 517 997 577 1017 c 128,-1,44
 637 1037 637 1037 687 1052 c 128,-1,45
 737 1067 737 1067 772 1074 c 1,46,-1
 667 910 l 1,0,1
98 1016 m 1,47,48
 155 1045 155 1045 215.5 1072.5 c 128,-1,49
 276 1100 276 1100 335.5 1125 c 128,-1,50
 395 1150 395 1150 451 1171.5 c 128,-1,51
 507 1193 507 1193 555.5 1210 c 128,-1,52
 604 1227 604 1227 642.5 1239 c 128,-1,53
 681 1251 681 1251 705 1256 c 1,54,-1
 645 1159 l 1,55,56
 631 1155 631 1155 593.5 1142 c 128,-1,57
 556 1129 556 1129 505.5 1110.5 c 128,-1,58
 455 1092 455 1092 396 1069 c 128,-1,59
 337 1046 337 1046 279.5 1022.5 c 128,-1,60
 222 999 222 999 169.5 976 c 128,-1,61
 117 953 117 953 81 935 c 1,62,-1
 98 1016 l 1,47,48
EndSplineSet
EndChar

StartChar: afii62966
Encoding: 64405 64405 226
Width: 901
GlyphClass: 2
Flags: W
AnchorPoint: "Anchor-3" 330 -450 basechar 0
AnchorPoint: "Anchor-2" 285 1275 basechar 0
LayerCount: 2
Fore
SplineSet
69 813 m 1,0,1
 131 840 131 840 204 868.5 c 128,-1,2
 277 897 277 897 353.5 924.5 c 128,-1,3
 430 952 430 952 505.5 977 c 128,-1,4
 581 1002 581 1002 648.5 1022.5 c 128,-1,5
 716 1043 716 1043 770.5 1058 c 128,-1,6
 825 1073 825 1073 860 1080 c 1,7,-1
 744 915 l 1,8,9
 715 908 715 908 664.5 894 c 128,-1,10
 614 880 614 880 554 862.5 c 128,-1,11
 494 845 494 845 428.5 825 c 128,-1,12
 363 805 363 805 304 785.5 c 128,-1,13
 245 766 245 766 196.5 748 c 128,-1,14
 148 730 148 730 122 717 c 1,15,16
 200 675 200 675 271 629.5 c 128,-1,17
 342 584 342 584 417.5 524.5 c 128,-1,18
 493 465 493 465 579.5 387 c 128,-1,19
 666 309 666 309 775 202 c 0,20,21
 807 170 807 170 836.5 154.5 c 128,-1,22
 866 139 866 139 892 139 c 2,23,-1
 912 139 l 2,24,25
 927 139 927 139 932 133 c 128,-1,26
 937 127 937 127 937 110 c 2,27,-1
 937 24 l 2,28,29
 937 0 937 0 912 0 c 2,30,-1
 892 0 l 2,31,32
 871 0 871 0 851 3.5 c 128,-1,33
 831 7 831 7 807.5 19.5 c 128,-1,34
 784 32 784 32 755 56 c 128,-1,35
 726 80 726 80 685.5 120.5 c 128,-1,36
 645 161 645 161 592 220 c 128,-1,37
 539 279 539 279 468 363 c 1,38,-1
 465 359 l 1,39,40
 470 337 470 337 471.5 316.5 c 128,-1,41
 473 296 473 296 473 279 c 0,42,43
 473 254 473 254 468.5 225 c 128,-1,44
 464 196 464 196 459 173 c 1,45,46
 412 124 412 124 365.5 91 c 128,-1,47
 319 58 319 58 267.5 37.5 c 128,-1,48
 216 17 216 17 156.5 8.5 c 128,-1,49
 97 0 97 0 24 0 c 2,50,-1
 -11 0 l 2,51,52
 -36 0 -36 0 -36 24 c 2,53,-1
 -36 110 l 2,54,55
 -36 127 -36 127 -31 133 c 128,-1,56
 -26 139 -26 139 -11 139 c 2,57,-1
 60 139 l 2,58,59
 195 139 195 139 285 173 c 128,-1,60
 375 207 375 207 423 270 c 1,61,62
 420 307 420 307 400 349 c 128,-1,63
 380 391 380 391 336.5 436 c 128,-1,64
 293 481 293 481 223 528 c 128,-1,65
 153 575 153 575 50 620 c 1,66,-1
 69 813 l 1,0,1
117 1008 m 1,67,68
 173 1037 173 1037 238 1065 c 128,-1,69
 303 1093 303 1093 369 1119 c 128,-1,70
 435 1145 435 1145 500 1167.5 c 128,-1,71
 565 1190 565 1190 620 1208 c 128,-1,72
 675 1226 675 1226 718 1238.5 c 128,-1,73
 761 1251 761 1251 784 1256 c 1,74,-1
 707 1154 l 1,75,76
 692 1150 692 1150 651.5 1137 c 128,-1,77
 611 1124 611 1124 556.5 1104.5 c 128,-1,78
 502 1085 502 1085 438 1061.5 c 128,-1,79
 374 1038 374 1038 311.5 1014.5 c 128,-1,80
 249 991 249 991 193.5 968 c 128,-1,81
 138 945 138 945 101 927 c 1,82,-1
 117 1008 l 1,67,68
EndSplineSet
EndChar

StartChar: afii57555
Encoding: 1740 1740 227
Width: 1323
GlyphClass: 2
Flags: W
AnchorPoint: "Anchor-3" 570 -780 basechar 0
AnchorPoint: "Anchor-2" 525 750 basechar 0
LayerCount: 2
Fore
SplineSet
1222 548 m 1,0,1
 1189 557 1189 557 1148 557 c 0,2,3
 1049 557 1049 557 961 476 c 0,4,5
 878 403 878 403 824 285 c 1,6,7
 837 252 837 252 870.5 230.5 c 128,-1,8
 904 209 904 209 957 196 c 0,9,10
 1080 172 1080 172 1123 148 c 0,11,12
 1141 139 1141 139 1150.5 124 c 128,-1,13
 1160 109 1160 109 1162 90 c 0,14,15
 1162 -16 1162 -16 1121 -144 c 1,16,17
 1052 -178 1052 -178 975 -207.5 c 128,-1,18
 898 -237 898 -237 810 -263 c 0,19,20
 590 -330 590 -330 418 -330 c 0,21,22
 263 -330 263 -330 170 -258 c 0,23,24
 119 -218 119 -218 94.5 -165.5 c 128,-1,25
 70 -113 70 -113 70 -43 c 0,26,27
 70 14 70 14 109 114.5 c 128,-1,28
 148 215 148 215 229 363 c 1,29,30
 249 363 249 363 263.5 354.5 c 128,-1,31
 278 346 278 346 289 332 c 1,32,33
 254 276 254 276 222 187 c 0,34,35
 184 92 184 92 184 41 c 0,36,37
 184 -60 184 -60 254.5 -120 c 128,-1,38
 325 -180 325 -180 454 -180 c 0,39,40
 520 -180 520 -180 595.5 -169.5 c 128,-1,41
 671 -159 671 -159 759 -139 c 0,42,43
 853 -117 853 -117 935.5 -89 c 128,-1,44
 1018 -61 1018 -61 1092 -27 c 1,45,46
 1092 -8 1092 -8 1085.5 6 c 128,-1,47
 1079 20 1079 20 1062.5 30.5 c 128,-1,48
 1046 41 1046 41 1018 49 c 128,-1,49
 990 57 990 57 948 65 c 0,50,51
 804 89 804 89 737 179 c 1,52,53
 740 213 740 213 744 243 c 128,-1,54
 748 273 748 273 753 299 c 1,55,56
 839 513 839 513 947.5 617.5 c 128,-1,57
 1056 722 1056 722 1190 722 c 0,58,59
 1216 722 1216 722 1235.5 718.5 c 128,-1,60
 1255 715 1255 715 1271 708 c 1,61,-1
 1222 548 l 1,0,1
EndSplineSet
Substitution2: "'fina' Terminal Forms in Arabic lookup 3 subtable" afii52364
Substitution2: "'medi' Medial Forms in Arabic lookup 2 subtable" afii62832
Substitution2: "'init' Initial Forms in Arabic lookup 1 subtable" uniFBFE
EndChar

StartChar: afii52364
Encoding: 64509 64509 228
Width: 1126
GlyphClass: 2
Flags: W
AnchorPoint: "Anchor-3" 510 -960 basechar 0
AnchorPoint: "Anchor-2" 495 555 basechar 0
LayerCount: 2
Fore
SplineSet
1162 24 m 1,0,1
 1162 0 1162 0 1135 0 c 2,2,-1
 989 0 l 2,3,4
 843 0 843 0 791 -70 c 1,5,6
 826 -94 826 -94 901 -110 c 0,7,8
 949 -121 949 -121 980.5 -130.5 c 128,-1,9
 1012 -140 1012 -140 1031 -151.5 c 128,-1,10
 1050 -163 1050 -163 1057.5 -177 c 128,-1,11
 1065 -191 1065 -191 1065 -211 c 0,12,13
 1065 -233 1065 -233 1052 -297 c 0,14,15
 1046 -332 1046 -332 1040.5 -356.5 c 128,-1,16
 1035 -381 1035 -381 1029 -395 c 1,17,18
 973 -421 973 -421 903.5 -444 c 128,-1,19
 834 -467 834 -467 748 -485 c 0,20,21
 657 -505 657 -505 573.5 -514.5 c 128,-1,22
 490 -524 490 -524 411 -524 c 0,23,24
 254 -524 254 -524 160 -452 c 0,25,26
 109 -413 109 -413 85.5 -360.5 c 128,-1,27
 62 -308 62 -308 62 -239 c 0,28,29
 62 -160 62 -160 95.5 -60.5 c 128,-1,30
 129 39 129 39 198 158 c 1,31,32
 213 158 213 158 228.5 151.5 c 128,-1,33
 244 145 244 145 260 129 c 1,34,35
 223 69 223 69 198 -18 c 0,36,37
 186 -59 186 -59 180.5 -92.5 c 128,-1,38
 175 -126 175 -126 175 -153 c 0,39,40
 175 -256 175 -256 245.5 -315.5 c 128,-1,41
 316 -375 316 -375 447 -375 c 0,42,43
 593 -375 593 -375 769 -348 c 0,44,45
 847 -337 847 -337 905 -325 c 128,-1,46
 963 -313 963 -313 1002 -299 c 1,47,48
 998 -273 998 -273 964.5 -255 c 128,-1,49
 931 -237 931 -237 870 -225 c 0,50,51
 823 -216 823 -216 784 -201.5 c 128,-1,52
 745 -187 745 -187 714 -167 c 1,53,54
 722 -119 722 -119 732.5 -67.5 c 128,-1,55
 743 -16 743 -16 757 38 c 1,56,57
 852 139 852 139 1008 139 c 2,58,-1
 1135 139 l 2,59,60
 1162 139 1162 139 1162 110 c 2,61,-1
 1162 24 l 1,62,-1
 1162 24 l 1,0,1
EndSplineSet
EndChar

StartChar: afii62882
Encoding: 64606 64606 229
Width: 0
GlyphClass: 4
Flags: W
AnchorPoint: "Anchor-2" 0 0 mark 0
AnchorPoint: "Anchor-0" 0 0 mark 0
LayerCount: 2
Fore
SplineSet
86 417 m 1,0,1
 48 359 48 359 -11 319 c 128,-1,2
 -70 279 -70 279 -153 250 c 1,3,4
 -153 315 -153 315 -154 354.5 c 128,-1,5
 -155 394 -155 394 -160 401 c 1,6,7
 -182 384 -182 384 -208.5 367.5 c 128,-1,8
 -235 351 -235 351 -267 336 c 1,9,-1
 -267 430 l 1,10,11
 -171 457 -171 457 -143 506 c 1,12,13
 -127 480 -127 480 -119.5 438 c 128,-1,14
 -112 396 -112 396 -110 341 c 1,15,16
 -20 373 -20 373 33 436 c 1,17,18
 -7 447 -7 447 -39.5 466 c 128,-1,19
 -72 485 -72 485 -89 511 c 1,20,21
 -83 549 -83 549 -70 578 c 128,-1,22
 -57 607 -57 607 -34 634 c 0,23,24
 12 686 12 686 81 686 c 1,25,26
 135 662 135 662 135 578 c 0,27,28
 135 535 135 535 114 475 c 1,29,-1
 158 462 l 1,30,-1
 158 388 l 1,31,-1
 86 417 l 1,0,1
153 185 m 2,32,33
 153 57 153 57 63 57 c 0,34,35
 40 57 40 57 25.5 74.5 c 128,-1,36
 11 92 11 92 7 129 c 1,37,-1
 4 128 l 1,38,39
 -16 8 -16 8 -94 8 c 0,40,41
 -115 8 -115 8 -129.5 16.5 c 128,-1,42
 -144 25 -144 25 -153 46 c 128,-1,43
 -162 67 -162 67 -166 101.5 c 128,-1,44
 -170 136 -170 136 -170 188 c 1,45,-1
 -117 210 l 1,46,-1
 -117 136 l 1,47,48
 -112 87 -112 87 -83 87 c 0,49,50
 -31 87 -31 87 -31 190 c 0,51,52
 -31 203 -31 203 -31 211 c 128,-1,53
 -31 219 -31 219 -33 226 c 1,54,-1
 21 246 l 1,55,56
 21 135 21 135 65 135 c 0,57,58
 99 135 99 135 99 212 c 0,59,60
 99 214 99 214 98 228 c 128,-1,61
 97 242 97 242 95 271 c 1,62,-1
 153 293 l 1,63,-1
 153 185 l 2,32,33
83 542 m 0,64,65
 83 594 83 594 47 608 c 1,66,67
 -12 608 -12 608 -31 542 c 1,68,69
 -16 524 -16 524 10.5 511 c 128,-1,70
 37 498 37 498 70 486 c 1,71,72
 75 497 75 497 79 509.5 c 128,-1,73
 83 522 83 522 83 542 c 0,64,65
EndSplineSet
Ligature2: "'ccmp' Glyph Composition/Decomposition in Arabic lookup 4 subtable" afii57457 afii57452
EndChar

StartChar: afii62883
Encoding: 64607 64607 230
Width: 0
GlyphClass: 4
Flags: W
AnchorPoint: "Anchor-2" 0 0 mark 0
AnchorPoint: "Anchor-0" 0 0 mark 0
LayerCount: 2
Fore
SplineSet
135 533 m 2,0,1
 135 403 135 403 44 403 c 0,2,3
 -1 403 -1 403 -10 475 c 1,4,-1
 -15 475 l 1,5,6
 -35 356 -35 356 -113 356 c 0,7,8
 -134 356 -134 356 -148 364.5 c 128,-1,9
 -162 373 -162 373 -171 394 c 128,-1,10
 -180 415 -180 415 -184 450 c 128,-1,11
 -188 485 -188 485 -188 537 c 1,12,-1
 -136 556 l 1,13,-1
 -136 484 l 1,14,15
 -130 436 -130 436 -102 436 c 0,16,17
 -48 436 -48 436 -48 539 c 0,18,19
 -48 550 -48 550 -48 558.5 c 128,-1,20
 -48 567 -48 567 -49 575 c 1,21,-1
 3 592 l 1,22,23
 3 480 3 480 46 480 c 0,24,25
 80 480 80 480 80 558 c 0,26,27
 80 560 80 560 79 575.5 c 128,-1,28
 78 591 78 591 77 620 c 1,29,-1
 135 639 l 1,30,-1
 135 533 l 2,0,1
-183 7 m 1,31,-1
 -183 78 l 1,32,-1
 149 210 l 1,33,-1
 149 138 l 1,34,-1
 -183 7 l 1,31,-1
-183 162 m 1,35,-1
 -183 234 l 1,36,-1
 149 365 l 1,37,-1
 149 293 l 1,38,-1
 -183 162 l 1,35,-1
EndSplineSet
Ligature2: "'ccmp' Glyph Composition/Decomposition in Arabic lookup 4 subtable" afii57457 afii57453
EndChar

StartChar: afii62884
Encoding: 64608 64608 231
Width: 0
GlyphClass: 4
Flags: W
AnchorPoint: "Anchor-2" 0 0 mark 0
AnchorPoint: "Anchor-0" 0 0 mark 0
LayerCount: 2
Fore
SplineSet
161 176 m 2,0,1
 161 48 161 48 71 48 c 0,2,3
 22 48 22 48 15 121 c 1,4,-1
 11 119 l 1,5,6
 -7 -1 -7 -1 -86 -1 c 0,7,8
 -107 -1 -107 -1 -121.5 7.5 c 128,-1,9
 -136 16 -136 16 -145 37 c 128,-1,10
 -154 58 -154 58 -158 92.5 c 128,-1,11
 -162 127 -162 127 -162 180 c 1,12,-1
 -109 202 l 1,13,-1
 -109 128 l 1,14,15
 -104 78 -104 78 -75 78 c 0,16,17
 -23 78 -23 78 -23 181 c 0,18,19
 -23 194 -23 194 -23 202.5 c 128,-1,20
 -23 211 -23 211 -25 217 c 1,21,-1
 29 238 l 1,22,23
 29 126 29 126 73 126 c 0,24,25
 106 126 106 126 106 203 c 0,26,27
 106 205 106 205 103 262 c 1,28,-1
 161 284 l 1,29,-1
 161 176 l 2,0,1
-173 242 m 1,30,-1
 -173 314 l 1,31,-1
 158 446 l 1,32,-1
 158 376 l 1,33,-1
 -173 242 l 1,30,-1
EndSplineSet
Ligature2: "'ccmp' Glyph Composition/Decomposition in Arabic lookup 4 subtable" afii57457 afii57454
EndChar

StartChar: afii62885
Encoding: 64609 64609 232
Width: 0
GlyphClass: 4
Flags: W
AnchorPoint: "Anchor-2" 0 0 mark 0
AnchorPoint: "Anchor-0" 0 0 mark 0
LayerCount: 2
Fore
SplineSet
148 180 m 2,0,1
 148 53 148 53 58 53 c 0,2,3
 9 53 9 53 2 125 c 1,4,-1
 -2 123 l 1,5,6
 -20 4 -20 4 -99 4 c 0,7,8
 -143 4 -143 4 -158 41 c 0,9,10
 -175 78 -175 78 -175 184 c 1,11,-1
 -122 206 l 1,12,-1
 -122 132 l 1,13,14
 -118 83 -118 83 -88 83 c 0,15,16
 -36 83 -36 83 -36 186 c 0,17,18
 -36 198 -36 198 -36 206.5 c 128,-1,19
 -36 215 -36 215 -38 222 c 1,20,-1
 16 242 l 1,21,22
 16 130 16 130 60 130 c 0,23,24
 93 130 93 130 93 208 c 0,25,26
 93 209 93 209 92.5 224.5 c 128,-1,27
 92 240 92 240 90 267 c 1,28,-1
 148 289 l 1,29,-1
 148 180 l 2,0,1
153 378 m 1,30,31
 144 383 144 383 124.5 390.5 c 128,-1,32
 105 398 105 398 74 409 c 1,33,34
 -3 294 -3 294 -179 246 c 1,35,-1
 -179 328 l 1,36,37
 -47 352 -47 352 16 428 c 1,38,39
 -63 451 -63 451 -105 495 c 1,40,41
 -99 536 -99 536 -84.5 569.5 c 128,-1,42
 -70 603 -70 603 -47.5 627 c 128,-1,43
 -25 651 -25 651 4 664.5 c 128,-1,44
 33 678 33 678 67 678 c 1,45,46
 121 654 121 654 121 566 c 0,47,48
 121 550 121 550 116 526 c 128,-1,49
 111 502 111 502 99 471 c 1,50,51
 127 457 127 457 153 454 c 1,52,-1
 153 378 l 1,30,31
69 533 m 0,53,54
 69 559 69 559 59.5 576 c 128,-1,55
 50 593 50 593 33 600 c 1,56,57
 -28 600 -28 600 -47 528 c 1,58,59
 -32 514 -32 514 -7.5 500 c 128,-1,60
 17 486 17 486 52 474 c 1,61,62
 62 489 62 489 65.5 503 c 128,-1,63
 69 517 69 517 69 533 c 0,53,54
EndSplineSet
Ligature2: "'ccmp' Glyph Composition/Decomposition in Arabic lookup 4 subtable" afii57457 afii57455
EndChar

StartChar: afii62886
Encoding: 64610 64610 233
Width: 0
GlyphClass: 4
Flags: W
AnchorPoint: "Anchor-2" 0 0 mark 0
AnchorPoint: "Anchor-0" 0 0 mark 0
LayerCount: 2
Fore
SplineSet
157 391 m 2,0,1
 157 260 157 260 66 260 c 0,2,3
 21 260 21 260 12 333 c 1,4,-1
 7 331 l 1,5,6
 -13 214 -13 214 -91 214 c 0,7,8
 -112 214 -112 214 -126 222.5 c 128,-1,9
 -140 231 -140 231 -149 252 c 128,-1,10
 -158 273 -158 273 -162 307.5 c 128,-1,11
 -166 342 -166 342 -166 394 c 1,12,-1
 -114 414 l 1,13,-1
 -114 341 l 1,14,15
 -108 291 -108 291 -80 291 c 0,16,17
 -26 291 -26 291 -26 396 c 0,18,19
 -26 407 -26 407 -26 416 c 128,-1,20
 -26 425 -26 425 -27 432 c 1,21,-1
 25 450 l 1,22,23
 25 338 25 338 68 338 c 0,24,25
 102 338 102 338 102 415 c 0,26,27
 102 417 102 417 101 432.5 c 128,-1,28
 100 448 100 448 99 477 c 1,29,-1
 157 497 l 1,30,-1
 157 391 l 2,0,1
-161 5 m 1,31,-1
 -161 77 l 1,32,-1
 171 209 l 1,33,-1
 171 136 l 1,34,-1
 -161 5 l 1,31,-1
EndSplineSet
Ligature2: "'ccmp' Glyph Composition/Decomposition in Arabic lookup 4 subtable" afii57457 afii57456
EndChar

StartChar: afii62945
Encoding: 65554 -1 234
Width: 1420
GlyphClass: 3
Flags: W
LayerCount: 2
Fore
SplineSet
1349 263 m 1,0,1
 1343 204 1343 204 1323.5 155.5 c 128,-1,2
 1304 107 1304 107 1274 72.5 c 128,-1,3
 1244 38 1244 38 1205.5 19 c 128,-1,4
 1167 0 1167 0 1124 0 c 0,5,6
 1075 0 1075 0 1030 36 c 0,7,8
 1007 56 1007 56 991 80 c 128,-1,9
 975 104 975 104 965 136 c 1,10,11
 853 -27 853 -27 699 -27 c 0,12,13
 513 -27 513 -27 498 254 c 1,14,-1
 388 144 l 1,15,16
 163 144 163 144 75 241 c 1,17,18
 84 281 84 281 101.5 326.5 c 128,-1,19
 119 372 119 372 145 425 c 1,20,21
 201 470 201 470 290.5 505.5 c 128,-1,22
 380 541 380 541 504 569 c 1,23,-1
 504 671 l 1,24,-1
 598 766 l 1,25,26
 591 716 591 716 587 639 c 128,-1,27
 583 562 583 562 583 456 c 0,28,29
 583 346 583 346 591.5 274 c 128,-1,30
 600 202 600 202 618 167 c 0,31,32
 643 112 643 112 722 112 c 0,33,34
 817 112 817 112 933 215 c 1,35,36
 925 273 925 273 915 391.5 c 128,-1,37
 905 510 905 510 893 693 c 1,38,-1
 993 813 l 1,39,40
 997 593 997 593 1005.5 454 c 128,-1,41
 1014 315 1014 315 1026 254 c 0,42,43
 1051 139 1051 139 1136 139 c 0,44,45
 1208 139 1208 139 1272 200 c 1,46,47
 1267 219 1267 219 1258.5 283.5 c 128,-1,48
 1250 348 1250 348 1236 458 c 0,49,50
 1224 570 1224 570 1216 649.5 c 128,-1,51
 1208 729 1208 729 1206 777 c 1,52,-1
 1295 915 l 1,53,54
 1295 653 1295 653 1349 263 c 1,0,1
498 270 m 1,55,56
 495 300 495 300 495 366 c 0,57,58
 495 446 495 446 498 481 c 1,59,60
 418 469 418 469 333 429 c 0,61,62
 282 406 282 406 248 382 c 128,-1,63
 214 358 214 358 194 332 c 1,64,65
 221 270 221 270 498 270 c 1,55,56
EndSplineSet
EndChar

StartChar: afii64184
Encoding: 65010 65010 235
Width: 1421
GlyphClass: 3
Flags: W
AnchorPoint: "Anchor-1" 1305 -330 baselig 0
AnchorPoint: "Anchor-0" 1290 1050 baselig 0
AnchorPoint: "Anchor-1" 915 -375 baselig 1
AnchorPoint: "Anchor-0" 945 870 baselig 1
AnchorPoint: "Anchor-1" 315 -390 baselig 2
AnchorPoint: "Anchor-0" 300 810 baselig 2
LayerCount: 2
Fore
SplineSet
1353 263 m 1,0,1
 1347 204 1347 204 1327.5 155.5 c 128,-1,2
 1308 107 1308 107 1278 72.5 c 128,-1,3
 1248 38 1248 38 1209.5 19 c 128,-1,4
 1171 0 1171 0 1128 0 c 0,5,6
 1080 0 1080 0 1035 36 c 0,7,8
 1012 56 1012 56 995.5 80 c 128,-1,9
 979 104 979 104 970 136 c 1,10,11
 856 -27 856 -27 703 -27 c 0,12,13
 517 -27 517 -27 502 254 c 1,14,-1
 392 144 l 1,15,16
 167 144 167 144 79 241 c 1,17,18
 89 281 89 281 106.5 326.5 c 128,-1,19
 124 372 124 372 150 425 c 1,20,21
 206 470 206 470 295 505.5 c 128,-1,22
 384 541 384 541 509 569 c 1,23,-1
 509 671 l 1,24,-1
 602 766 l 1,25,26
 595 716 595 716 591.5 639 c 128,-1,27
 588 562 588 562 588 456 c 0,28,29
 588 346 588 346 596 274 c 128,-1,30
 604 202 604 202 622 167 c 0,31,32
 648 112 648 112 726 112 c 0,33,34
 822 112 822 112 937 215 c 1,35,36
 929 273 929 273 919 391.5 c 128,-1,37
 909 510 909 510 898 693 c 1,38,-1
 997 813 l 1,39,40
 1001 593 1001 593 1010 454 c 128,-1,41
 1019 315 1019 315 1030 254 c 0,42,43
 1055 139 1055 139 1140 139 c 0,44,45
 1176 139 1176 139 1210 153.5 c 128,-1,46
 1244 168 1244 168 1276 200 c 1,47,48
 1272 219 1272 219 1263 283.5 c 128,-1,49
 1254 348 1254 348 1240 458 c 0,50,51
 1228 570 1228 570 1220.5 649.5 c 128,-1,52
 1213 729 1213 729 1211 777 c 1,53,-1
 1300 915 l 1,54,55
 1300 784 1300 784 1313 621.5 c 128,-1,56
 1326 459 1326 459 1353 263 c 1,0,1
502 270 m 1,57,58
 501 285 501 285 500 308.5 c 128,-1,59
 499 332 499 332 499 366 c 0,60,61
 499 407 499 407 500 435.5 c 128,-1,62
 501 464 501 464 502 481 c 1,63,64
 464 475 464 475 422.5 462 c 128,-1,65
 381 449 381 449 337 429 c 0,66,67
 286 406 286 406 252 382 c 128,-1,68
 218 358 218 358 198 332 c 1,69,70
 225 270 225 270 502 270 c 1,57,58
1083 1027 m 2,71,72
 1083 899 1083 899 993 899 c 0,73,74
 946 899 946 899 939 972 c 1,75,-1
 934 970 l 1,76,77
 914 851 914 851 836 851 c 0,78,79
 815 851 815 851 800.5 859.5 c 128,-1,80
 786 868 786 868 777 888.5 c 128,-1,81
 768 909 768 909 764 943.5 c 128,-1,82
 760 978 760 978 760 1030 c 1,83,-1
 813 1051 l 1,84,-1
 813 979 l 1,85,86
 819 930 819 930 847 930 c 0,87,88
 901 930 901 930 901 1033 c 0,89,90
 901 1044 901 1044 901 1053 c 128,-1,91
 901 1062 901 1062 899 1068 c 1,92,-1
 951 1089 l 1,93,94
 951 977 951 977 994 977 c 0,95,96
 1029 977 1029 977 1029 1052 c 0,97,98
 1029 1054 1029 1054 1028 1069.5 c 128,-1,99
 1027 1085 1027 1085 1025 1114 c 1,100,-1
 1083 1133 l 1,101,-1
 1083 1027 l 2,71,72
892 1114 m 1,102,103
 892 1260 892 1260 827 1355 c 1,104,-1
 891 1413 l 1,105,106
 939 1345 939 1345 939 1157 c 1,107,-1
 892 1114 l 1,102,103
EndSplineSet
Ligature2: "'rlig' Required Ligatures in Arabic lookup 6 subtable" afii62817 afii62818 uni06C1
Ligature2: "'rlig' Required Ligatures in Arabic lookup 5 subtable" afii62817 afii62818 uniFC63 afii62828
Ligature2: "'rlig' Required Ligatures in Arabic lookup 5 subtable" afii62817 afii62818 afii57457 uni0670 afii62828
EndChar

StartChar: afii57415.001
Encoding: 1575 1575 249
Width: 341
GlyphClass: 2
Flags: W
AnchorPoint: "Anchor-3" 195 -390 basechar 0
AnchorPoint: "Anchor-2" 165 1350 basechar 0
LayerCount: 2
Fore
SplineSet
238 595 m 0,0,1
 238 446 238 446 236 318 c 128,-1,2
 234 190 234 190 230 83 c 1,3,-1
 147 -55 l 1,4,-1
 139 535 l 2,5,6
 134 916 134 916 78 1123 c 1,7,-1
 195 1242 l 1,8,9
 217 1111 217 1111 227.5 950.5 c 128,-1,10
 238 790 238 790 238 595 c 0,0,1
EndSplineSet
Substitution2: "'fina' Terminal Forms in Arabic lookup 3 subtable" afii62760
PairPos2: "'kern' Horizontal Kerning in Arabic lookup 0 subtable" uni06B4.init dx=100 dy=0 dh=100 dv=0 dx=0 dy=0 dh=0 dv=0
PairPos2: "'kern' Horizontal Kerning in Arabic lookup 0 subtable" uni06B4 dx=70 dy=0 dh=70 dv=0 dx=0 dy=0 dh=0 dv=0
PairPos2: "'kern' Horizontal Kerning in Arabic lookup 0 subtable" uniFB98 dx=100 dy=0 dh=100 dv=0 dx=0 dy=0 dh=0 dv=0
PairPos2: "'kern' Horizontal Kerning in Arabic lookup 0 subtable" uni06B3 dx=70 dy=0 dh=70 dv=0 dx=0 dy=0 dh=0 dv=0
PairPos2: "'kern' Horizontal Kerning in Arabic lookup 0 subtable" uni06B2.init dx=100 dy=0 dh=100 dv=0 dx=0 dy=0 dh=0 dv=0
PairPos2: "'kern' Horizontal Kerning in Arabic lookup 0 subtable" uniFB9C dx=100 dy=0 dh=100 dv=0 dx=0 dy=0 dh=0 dv=0
PairPos2: "'kern' Horizontal Kerning in Arabic lookup 0 subtable" uni06B1 dx=70 dy=0 dh=70 dv=0 dx=0 dy=0 dh=0 dv=0
PairPos2: "'kern' Horizontal Kerning in Arabic lookup 0 subtable" uni06B0.init dx=100 dy=0 dh=100 dv=0 dx=0 dy=0 dh=0 dv=0
PairPos2: "'kern' Horizontal Kerning in Arabic lookup 0 subtable" uni06B0 dx=70 dy=0 dh=70 dv=0 dx=0 dy=0 dh=0 dv=0
PairPos2: "'kern' Horizontal Kerning in Arabic lookup 0 subtable" uni06AE.init dx=70 dy=0 dh=70 dv=0 dx=0 dy=0 dh=0 dv=0
PairPos2: "'kern' Horizontal Kerning in Arabic lookup 0 subtable" uniFBD5 dx=70 dy=0 dh=70 dv=0 dx=0 dy=0 dh=0 dv=0
PairPos2: "'kern' Horizontal Kerning in Arabic lookup 0 subtable" uni06AB.init dx=70 dy=0 dh=70 dv=0 dx=0 dy=0 dh=0 dv=0
PairPos2: "'kern' Horizontal Kerning in Arabic lookup 0 subtable" uni06AB.init dx=70 dy=0 dh=70 dv=0 dx=0 dy=0 dh=0 dv=0
PairPos2: "'kern' Horizontal Kerning in Arabic lookup 0 subtable" uni06AB.001 dx=100 dy=0 dh=100 dv=0 dx=0 dy=0 dh=0 dv=0
PairPos2: "'kern' Horizontal Kerning in Arabic lookup 0 subtable" afii57410 dx=70 dy=0 dh=70 dv=0 dx=0 dy=0 dh=0 dv=0
PairPos2: "'kern' Horizontal Kerning in Arabic lookup 0 subtable" afii62965 dx=100 dy=0 dh=100 dv=0 dx=0 dy=0 dh=0 dv=0
PairPos2: "'kern' Horizontal Kerning in Arabic lookup 0 subtable" afii57509 dx=70 dy=0 dh=70 dv=0 dx=0 dy=0 dh=0 dv=0
PairPos2: "'kern' Horizontal Kerning in Arabic lookup 0 subtable" afii52305 dx=70 dy=0 dh=70 dv=0 dx=0 dy=0 dh=0 dv=0
PairPos2: "'kern' Horizontal Kerning in Arabic lookup 0 subtable" afii57567 dx=100 dy=0 dh=100 dv=0 dx=0 dy=0 dh=0 dv=0
EndChar

StartChar: afii62760.001
Encoding: 65555 -1 250
Width: 400
GlyphClass: 2
Flags: W
LayerCount: 2
Fore
SplineSet
436 24 m 1,0,1
 436 0 436 0 411 0 c 2,2,-1
 391 0 l 2,3,4
 262 0 262 0 213 88 c 0,5,6
 162 182 162 182 162 451 c 0,7,8
 162 631 162 631 141 838 c 0,9,10
 131 943 131 943 119.5 1011.5 c 128,-1,11
 108 1080 108 1080 96 1118 c 1,12,-1
 200 1242 l 1,13,14
 251 1030 251 1030 251 509 c 0,15,16
 251 276 251 276 279 208 c 0,17,18
 304 139 304 139 391 139 c 2,19,-1
 411 139 l 2,20,21
 436 139 436 139 436 110 c 2,22,-1
 436 24 l 1,23,-1
 436 24 l 1,0,1
EndSplineSet
EndChar

StartChar: afii57421
Encoding: 1581 1581 269
Width: 1011
GlyphClass: 2
Flags: W
AnchorPoint: "Anchor-3" 450 -975 basechar 0
AnchorPoint: "Anchor-2" 435 900 basechar 0
LayerCount: 2
Fore
SplineSet
889 -483 m 1,0,1
 844 -503 844 -503 772.5 -513.5 c 128,-1,2
 701 -524 701 -524 600 -524 c 0,3,4
 376 -524 376 -524 227 -429 c 0,5,6
 67 -323 67 -323 67 -150 c 0,7,8
 67 33 67 33 225 187 c 0,9,10
 294 253 294 253 382.5 305 c 128,-1,11
 471 357 471 357 578 395 c 1,12,-1
 578 399 l 1,13,14
 504 410 504 410 438.5 426 c 128,-1,15
 373 442 373 442 317 461 c 0,16,17
 264 480 264 480 236 480 c 0,18,19
 202 480 202 480 153 366 c 1,20,21
 120 366 120 366 99 384 c 1,22,-1
 175 542 l 2,23,24
 212 618 212 618 263 618 c 0,25,26
 265 618 265 618 316.5 603.5 c 128,-1,27
 368 589 368 589 471 561 c 0,28,29
 572 532 572 532 643.5 517 c 128,-1,30
 715 502 715 502 757 502 c 0,31,32
 802 502 802 502 838 506.5 c 128,-1,33
 874 511 874 511 901 519 c 1,34,-1
 836 382 l 1,35,36
 606 376 606 376 411 236 c 0,37,38
 208 94 208 94 208 -81 c 0,39,40
 208 -229 208 -229 353 -317 c 0,41,42
 491 -404 491 -404 714 -404 c 0,43,44
 799 -404 799 -404 866 -395.5 c 128,-1,45
 933 -387 933 -387 984 -370 c 1,46,-1
 889 -483 l 1,0,1
EndSplineSet
Substitution2: "'fina' Terminal Forms in Arabic lookup 3 subtable" afii62776
Substitution2: "'medi' Medial Forms in Arabic lookup 2 subtable" afii62775
Substitution2: "'init' Initial Forms in Arabic lookup 1 subtable" afii62774
EndChar

StartChar: afii62776
Encoding: 65186 65186 270
Width: 1011
GlyphClass: 2
Flags: W
AnchorPoint: "Anchor-3" 450 -945 basechar 0
AnchorPoint: "Anchor-2" 480 930 basechar 0
LayerCount: 2
Fore
SplineSet
953 -483 m 1,0,1
 748 -524 748 -524 600 -524 c 0,2,3
 376 -524 376 -524 227 -429 c 0,4,5
 67 -323 67 -323 67 -150 c 0,6,7
 67 33 67 33 225 187 c 0,8,9
 294 253 294 253 382.5 305 c 128,-1,10
 471 357 471 357 578 395 c 1,11,-1
 578 399 l 1,12,13
 504 410 504 410 438.5 426 c 128,-1,14
 373 442 373 442 317 461 c 0,15,16
 264 480 264 480 236 480 c 0,17,18
 202 480 202 480 153 366 c 1,19,20
 120 366 120 366 99 384 c 1,21,-1
 175 542 l 2,22,23
 212 618 212 618 263 618 c 0,24,25
 265 618 265 618 316.5 603.5 c 128,-1,26
 368 589 368 589 471 561 c 0,27,28
 572 532 572 532 643.5 517 c 128,-1,29
 715 502 715 502 757 502 c 0,30,31
 813 502 813 502 872 510.5 c 128,-1,32
 931 519 931 519 997 535 c 1,33,-1
 935 392 l 1,34,35
 855 392 855 392 777 377 c 1,36,37
 777 252 777 252 825 198 c 0,38,39
 877 139 877 139 1001 139 c 2,40,-1
 1020 139 l 2,41,42
 1047 139 1047 139 1047 110 c 2,43,-1
 1047 24 l 2,44,45
 1047 0 1047 0 1020 0 c 2,46,-1
 1001 0 l 2,47,48
 714 0 714 0 714 275 c 0,49,50
 714 289 714 289 715 312.5 c 128,-1,51
 716 336 716 336 719 368 c 1,52,53
 620 348 620 348 533 307 c 128,-1,54
 446 266 446 266 370 202 c 0,55,56
 208 71 208 71 208 -81 c 0,57,58
 208 -229 208 -229 353 -317 c 0,59,60
 491 -404 491 -404 714 -404 c 0,61,62
 775 -404 775 -404 859 -395.5 c 128,-1,63
 943 -387 943 -387 1051 -370 c 1,64,-1
 953 -483 l 1,0,1
EndSplineSet
EndChar

StartChar: afii62774
Encoding: 65187 65187 271
Width: 898
GlyphClass: 2
Flags: W
AnchorPoint: "Anchor-3" 285 -450 basechar 0
AnchorPoint: "Anchor-2" 360 915 basechar 0
LayerCount: 2
Fore
SplineSet
795 175 m 1,0,1
 747 189 747 189 698 189 c 0,2,3
 630 189 630 189 447 108 c 0,4,5
 204 0 204 0 9 0 c 2,6,-1
 -11 0 l 2,7,8
 -36 0 -36 0 -36 24 c 2,9,-1
 -36 110 l 2,10,11
 -36 139 -36 139 -11 139 c 2,12,-1
 9 139 l 2,13,14
 152 139 152 139 353 194 c 1,15,-1
 561 258 l 1,16,-1
 561 261 l 1,17,18
 496 281 496 281 346 397 c 0,19,20
 214 499 214 499 173 499 c 0,21,22
 143 499 143 499 84 395 c 1,23,24
 60 398 60 398 36 422 c 1,25,-1
 122 575 l 2,26,27
 159 638 159 638 211 638 c 0,28,29
 258 638 258 638 483 461 c 0,30,31
 600 373 600 373 674 337 c 0,32,33
 759 299 759 299 872 299 c 1,34,-1
 795 175 l 1,0,1
EndSplineSet
EndChar

StartChar: afii62775
Encoding: 65188 65188 272
Width: 1101
GlyphClass: 2
Flags: W
AnchorPoint: "Anchor-3" 480 -420 basechar 0
AnchorPoint: "Anchor-2" 525 975 basechar 0
LayerCount: 2
Fore
SplineSet
1137 24 m 1,0,1
 1137 0 1137 0 1112 0 c 0,2,3
 769 0 769 0 769 254 c 0,4,5
 769 281 769 281 769 303.5 c 128,-1,6
 769 326 769 326 774 346 c 1,7,8
 754 336 754 336 724.5 315.5 c 128,-1,9
 695 295 695 295 658 268 c 128,-1,10
 621 241 621 241 578 210 c 128,-1,11
 535 179 535 179 490 148 c 0,12,13
 381 73 381 73 261 36.5 c 128,-1,14
 141 0 141 0 -2 0 c 2,15,-1
 -11 0 l 2,16,17
 -36 0 -36 0 -36 24 c 2,18,-1
 -36 110 l 2,19,20
 -36 139 -36 139 -11 139 c 2,21,-1
 -2 139 l 2,22,23
 113 139 113 139 219 165 c 128,-1,24
 325 191 325 191 427 249 c 0,25,26
 474 276 474 276 507 295.5 c 128,-1,27
 540 315 540 315 563.5 329 c 128,-1,28
 587 343 587 343 603.5 351.5 c 128,-1,29
 620 360 620 360 633 366 c 1,30,-1
 633 370 l 1,31,32
 621 370 621 370 604 372.5 c 128,-1,33
 587 375 587 375 562 381.5 c 128,-1,34
 537 388 537 388 501.5 400.5 c 128,-1,35
 466 413 466 413 416 433 c 0,36,37
 216 514 216 514 203 514 c 0,38,39
 169 514 169 514 121 392 c 1,40,41
 94 392 94 392 67 413 c 1,42,-1
 141 571 l 2,43,44
 175 650 175 650 229 650 c 0,45,46
 259 650 259 650 366 604 c 0,47,48
 437 572 437 572 482.5 552.5 c 128,-1,49
 528 533 528 533 564 523 c 0,50,51
 701 474 701 474 813 474 c 0,52,53
 858 474 858 474 917 482.5 c 128,-1,54
 976 491 976 491 1052 509 c 1,55,-1
 989 364 l 1,56,57
 933 363 933 363 893.5 360 c 128,-1,58
 854 357 854 357 831 351 c 1,59,60
 833 316 833 316 837 291.5 c 128,-1,61
 841 267 841 267 848 248.5 c 128,-1,62
 855 230 855 230 864.5 216 c 128,-1,63
 874 202 874 202 887 189 c 0,64,65
 943 139 943 139 1092 139 c 2,66,-1
 1112 139 l 2,67,68
 1137 139 1137 139 1137 110 c 2,69,-1
 1137 24 l 1,70,-1
 1137 24 l 1,0,1
EndSplineSet
EndChar

StartChar: afii57423
Encoding: 1583 1583 277
Width: 682
GlyphClass: 2
Flags: W
AnchorPoint: "Anchor-3" 270 -465 basechar 0
AnchorPoint: "Anchor-2" 330 930 basechar 0
LayerCount: 2
Fore
SplineSet
639 299 m 0,0,1
 639 260 639 260 626 205.5 c 128,-1,2
 613 151 613 151 587 79 c 1,3,4
 535 44 535 44 439 20 c 0,5,6
 383 5 383 5 331 -3 c 128,-1,7
 279 -11 279 -11 228 -11 c 0,8,9
 168 -11 168 -11 114 7 c 1,10,11
 113 41 113 41 112 64 c 128,-1,12
 111 87 111 87 111 98 c 0,13,14
 111 116 111 116 114.5 148 c 128,-1,15
 118 180 118 180 125 225 c 1,16,17
 133 227 133 227 138.5 228 c 128,-1,18
 144 229 144 229 149 229 c 0,19,20
 156 229 156 229 161.5 226.5 c 128,-1,21
 167 224 167 224 174 220 c 1,22,-1
 174 193 l 2,23,24
 174 177 174 177 175 165 c 128,-1,25
 176 153 176 153 178 146 c 1,26,27
 218 128 218 128 269 128 c 0,28,29
 307 128 307 128 348.5 135 c 128,-1,30
 390 142 390 142 441 157 c 0,31,32
 526 181 526 181 561 205 c 1,33,34
 561 351 561 351 482 458.5 c 128,-1,35
 403 566 403 566 245 640 c 1,36,-1
 284 800 l 1,37,38
 639 610 639 610 639 299 c 0,0,1
EndSplineSet
Substitution2: "'fina' Terminal Forms in Arabic lookup 3 subtable" afii62780
PairPos2: "'kern' Horizontal Kerning in Arabic lookup 0 subtable" uni06B7.init dx=-50 dy=0 dh=-50 dv=0 dx=0 dy=0 dh=0 dv=0
PairPos2: "'kern' Horizontal Kerning in Arabic lookup 0 subtable" uni06B6.init dx=-50 dy=0 dh=-50 dv=0 dx=0 dy=0 dh=0 dv=0
PairPos2: "'kern' Horizontal Kerning in Arabic lookup 0 subtable" uni06B5.init dx=-50 dy=0 dh=-50 dv=0 dx=0 dy=0 dh=0 dv=0
PairPos2: "'kern' Horizontal Kerning in Arabic lookup 0 subtable" uni06B4.init dx=-100 dy=0 dh=-100 dv=0 dx=0 dy=0 dh=0 dv=0
PairPos2: "'kern' Horizontal Kerning in Arabic lookup 0 subtable" uni06B4 dx=-100 dy=0 dh=-100 dv=0 dx=0 dy=0 dh=0 dv=0
PairPos2: "'kern' Horizontal Kerning in Arabic lookup 0 subtable" uniFB98 dx=-100 dy=0 dh=-100 dv=0 dx=0 dy=0 dh=0 dv=0
PairPos2: "'kern' Horizontal Kerning in Arabic lookup 0 subtable" uni06B3 dx=-100 dy=0 dh=-100 dv=0 dx=0 dy=0 dh=0 dv=0
PairPos2: "'kern' Horizontal Kerning in Arabic lookup 0 subtable" uni06B2.init dx=-100 dy=0 dh=-100 dv=0 dx=0 dy=0 dh=0 dv=0
PairPos2: "'kern' Horizontal Kerning in Arabic lookup 0 subtable" uniFB9C dx=-100 dy=0 dh=-100 dv=0 dx=0 dy=0 dh=0 dv=0
PairPos2: "'kern' Horizontal Kerning in Arabic lookup 0 subtable" uni06B1 dx=-100 dy=0 dh=-100 dv=0 dx=0 dy=0 dh=0 dv=0
PairPos2: "'kern' Horizontal Kerning in Arabic lookup 0 subtable" uni06B0.init dx=-100 dy=0 dh=-100 dv=0 dx=0 dy=0 dh=0 dv=0
PairPos2: "'kern' Horizontal Kerning in Arabic lookup 0 subtable" uni06B0 dx=-100 dy=0 dh=-100 dv=0 dx=0 dy=0 dh=0 dv=0
PairPos2: "'kern' Horizontal Kerning in Arabic lookup 0 subtable" uni06AE.init dx=-150 dy=0 dh=-150 dv=0 dx=0 dy=0 dh=0 dv=0
PairPos2: "'kern' Horizontal Kerning in Arabic lookup 0 subtable" uni06AE dx=-50 dy=0 dh=-50 dv=0 dx=0 dy=0 dh=0 dv=0
PairPos2: "'kern' Horizontal Kerning in Arabic lookup 0 subtable" uniFBD5 dx=-150 dy=0 dh=-150 dv=0 dx=0 dy=0 dh=0 dv=0
PairPos2: "'kern' Horizontal Kerning in Arabic lookup 0 subtable" uni06AD dx=-50 dy=0 dh=-50 dv=0 dx=0 dy=0 dh=0 dv=0
PairPos2: "'kern' Horizontal Kerning in Arabic lookup 0 subtable" uni06AB.init dx=-150 dy=0 dh=-150 dv=0 dx=0 dy=0 dh=0 dv=0
PairPos2: "'kern' Horizontal Kerning in Arabic lookup 0 subtable" uni06AB dx=-50 dy=0 dh=-50 dv=0 dx=0 dy=0 dh=0 dv=0
PairPos2: "'kern' Horizontal Kerning in Arabic lookup 0 subtable" uni06AB.init dx=-150 dy=0 dh=-150 dv=0 dx=0 dy=0 dh=0 dv=0
PairPos2: "'kern' Horizontal Kerning in Arabic lookup 0 subtable" uni06AB.001 dx=-100 dy=0 dh=-100 dv=0 dx=0 dy=0 dh=0 dv=0
PairPos2: "'kern' Horizontal Kerning in Arabic lookup 0 subtable" afii62840 dx=-130 dy=0 dh=-130 dv=0 dx=0 dy=0 dh=0 dv=0
PairPos2: "'kern' Horizontal Kerning in Arabic lookup 0 subtable" afii62838 dx=-130 dy=0 dh=-130 dv=0 dx=0 dy=0 dh=0 dv=0
PairPos2: "'kern' Horizontal Kerning in Arabic lookup 0 subtable" afii62836 dx=-130 dy=0 dh=-130 dv=0 dx=0 dy=0 dh=0 dv=0
PairPos2: "'kern' Horizontal Kerning in Arabic lookup 0 subtable" afii62834 dx=-130 dy=0 dh=-130 dv=0 dx=0 dy=0 dh=0 dv=0
PairPos2: "'kern' Horizontal Kerning in Arabic lookup 0 subtable" afii62817 dx=-50 dy=0 dh=-50 dv=0 dx=0 dy=0 dh=0 dv=0
PairPos2: "'kern' Horizontal Kerning in Arabic lookup 0 subtable" afii57410 dx=-150 dy=0 dh=-150 dv=0 dx=0 dy=0 dh=0 dv=0
PairPos2: "'kern' Horizontal Kerning in Arabic lookup 0 subtable" afii57443 dx=-50 dy=0 dh=-50 dv=0 dx=0 dy=0 dh=0 dv=0
PairPos2: "'kern' Horizontal Kerning in Arabic lookup 0 subtable" afii62965 dx=-100 dy=0 dh=-100 dv=0 dx=0 dy=0 dh=0 dv=0
PairPos2: "'kern' Horizontal Kerning in Arabic lookup 0 subtable" afii57509 dx=-100 dy=0 dh=-100 dv=0 dx=0 dy=0 dh=0 dv=0
PairPos2: "'kern' Horizontal Kerning in Arabic lookup 0 subtable" afii52305 dx=-150 dy=0 dh=-150 dv=0 dx=0 dy=0 dh=0 dv=0
PairPos2: "'kern' Horizontal Kerning in Arabic lookup 0 subtable" afii57567 dx=-100 dy=0 dh=-100 dv=0 dx=0 dy=0 dh=0 dv=0
EndChar

StartChar: afii62780
Encoding: 65194 65194 278
Width: 767
GlyphClass: 2
Flags: W
AnchorPoint: "Anchor-3" 300 -450 basechar 0
AnchorPoint: "Anchor-2" 360 1095 basechar 0
LayerCount: 2
Fore
SplineSet
799 24 m 1,0,1
 799 0 799 0 773 0 c 2,2,-1
 754 0 l 2,3,4
 649 0 649 0 582 202 c 1,5,-1
 579 202 l 1,6,7
 568 127 568 127 539 67 c 1,8,9
 513 53 513 53 476 40 c 128,-1,10
 439 27 439 27 388 14 c 0,11,12
 334 2 334 2 292 -4.5 c 128,-1,13
 250 -11 250 -11 218 -11 c 0,14,15
 157 -11 157 -11 103 7 c 1,16,17
 101 41 101 41 100 64 c 128,-1,18
 99 87 99 87 99 98 c 0,19,20
 99 116 99 116 102.5 148 c 128,-1,21
 106 180 106 180 113 225 c 1,22,23
 121 227 121 227 127 228 c 128,-1,24
 133 229 133 229 137 229 c 0,25,26
 144 229 144 229 150 226.5 c 128,-1,27
 156 224 156 224 163 220 c 1,28,-1
 163 193 l 2,29,30
 163 159 163 159 166 146 c 1,31,32
 206 128 206 128 259 128 c 0,33,34
 297 128 297 128 340.5 136 c 128,-1,35
 384 144 384 144 433 158 c 0,36,37
 479 174 479 174 513 190 c 128,-1,38
 547 206 547 206 570 224 c 1,39,40
 533 326 533 326 496 442.5 c 128,-1,41
 459 559 459 559 420 693 c 1,42,-1
 498 862 l 1,43,44
 551 621 551 621 591 467 c 128,-1,45
 631 313 631 313 658 241 c 0,46,47
 698 139 698 139 754 139 c 2,48,-1
 773 139 l 2,49,50
 799 139 799 139 799 110 c 2,51,-1
 799 24 l 1,52,-1
 799 24 l 1,0,1
EndSplineSet
PairPos2: "'kern' Horizontal Kerning in Arabic lookup 0 subtable" uniFC5D dx=-100 dy=0 dh=-100 dv=0 dx=0 dy=0 dh=0 dv=0
PairPos2: "'kern' Horizontal Kerning in Arabic lookup 0 subtable" uni06D1 dx=-100 dy=0 dh=-100 dv=0 dx=0 dy=0 dh=0 dv=0
PairPos2: "'kern' Horizontal Kerning in Arabic lookup 0 subtable" uni06D0 dx=-100 dy=0 dh=-100 dv=0 dx=0 dy=0 dh=0 dv=0
PairPos2: "'kern' Horizontal Kerning in Arabic lookup 0 subtable" uni06CE dx=-100 dy=0 dh=-100 dv=0 dx=0 dy=0 dh=0 dv=0
PairPos2: "'kern' Horizontal Kerning in Arabic lookup 0 subtable" uni06CD dx=-100 dy=0 dh=-100 dv=0 dx=0 dy=0 dh=0 dv=0
PairPos2: "'kern' Horizontal Kerning in Arabic lookup 0 subtable" uni06B4.init dx=-100 dy=0 dh=-100 dv=0 dx=0 dy=0 dh=0 dv=0
PairPos2: "'kern' Horizontal Kerning in Arabic lookup 0 subtable" uni06B4 dx=-100 dy=0 dh=-100 dv=0 dx=0 dy=0 dh=0 dv=0
PairPos2: "'kern' Horizontal Kerning in Arabic lookup 0 subtable" uniFB98 dx=-100 dy=0 dh=-100 dv=0 dx=0 dy=0 dh=0 dv=0
PairPos2: "'kern' Horizontal Kerning in Arabic lookup 0 subtable" uni06B3 dx=-100 dy=0 dh=-100 dv=0 dx=0 dy=0 dh=0 dv=0
PairPos2: "'kern' Horizontal Kerning in Arabic lookup 0 subtable" uni06B2.init dx=-100 dy=0 dh=-100 dv=0 dx=0 dy=0 dh=0 dv=0
PairPos2: "'kern' Horizontal Kerning in Arabic lookup 0 subtable" uniFB9C dx=-100 dy=0 dh=-100 dv=0 dx=0 dy=0 dh=0 dv=0
PairPos2: "'kern' Horizontal Kerning in Arabic lookup 0 subtable" uni06B1 dx=-100 dy=0 dh=-100 dv=0 dx=0 dy=0 dh=0 dv=0
PairPos2: "'kern' Horizontal Kerning in Arabic lookup 0 subtable" uni06B0.init dx=-100 dy=0 dh=-100 dv=0 dx=0 dy=0 dh=0 dv=0
PairPos2: "'kern' Horizontal Kerning in Arabic lookup 0 subtable" uni06B0 dx=-100 dy=0 dh=-100 dv=0 dx=0 dy=0 dh=0 dv=0
PairPos2: "'kern' Horizontal Kerning in Arabic lookup 0 subtable" uni06AE.init dx=-100 dy=0 dh=-100 dv=0 dx=0 dy=0 dh=0 dv=0
PairPos2: "'kern' Horizontal Kerning in Arabic lookup 0 subtable" uni06AE dx=-60 dy=0 dh=-60 dv=0 dx=0 dy=0 dh=0 dv=0
PairPos2: "'kern' Horizontal Kerning in Arabic lookup 0 subtable" uniFBD5 dx=-100 dy=0 dh=-100 dv=0 dx=0 dy=0 dh=0 dv=0
PairPos2: "'kern' Horizontal Kerning in Arabic lookup 0 subtable" uni06AD dx=-60 dy=0 dh=-60 dv=0 dx=0 dy=0 dh=0 dv=0
PairPos2: "'kern' Horizontal Kerning in Arabic lookup 0 subtable" uni06AB.init dx=-100 dy=0 dh=-100 dv=0 dx=0 dy=0 dh=0 dv=0
PairPos2: "'kern' Horizontal Kerning in Arabic lookup 0 subtable" uni06AB dx=-60 dy=0 dh=-60 dv=0 dx=0 dy=0 dh=0 dv=0
PairPos2: "'kern' Horizontal Kerning in Arabic lookup 0 subtable" uni06AB.init dx=-100 dy=0 dh=-100 dv=0 dx=0 dy=0 dh=0 dv=0
PairPos2: "'kern' Horizontal Kerning in Arabic lookup 0 subtable" uni06AB.001 dx=-100 dy=0 dh=-100 dv=0 dx=0 dy=0 dh=0 dv=0
PairPos2: "'kern' Horizontal Kerning in Arabic lookup 0 subtable" uni06A0 dx=-70 dy=0 dh=-70 dv=0 dx=0 dy=0 dh=0 dv=0
PairPos2: "'kern' Horizontal Kerning in Arabic lookup 0 subtable" uni0678 dx=-100 dy=0 dh=-100 dv=0 dx=0 dy=0 dh=0 dv=0
PairPos2: "'kern' Horizontal Kerning in Arabic lookup 0 subtable" afii62840 dx=-70 dy=0 dh=-70 dv=0 dx=0 dy=0 dh=0 dv=0
PairPos2: "'kern' Horizontal Kerning in Arabic lookup 0 subtable" afii62838 dx=-70 dy=0 dh=-70 dv=0 dx=0 dy=0 dh=0 dv=0
PairPos2: "'kern' Horizontal Kerning in Arabic lookup 0 subtable" afii62836 dx=-70 dy=0 dh=-70 dv=0 dx=0 dy=0 dh=0 dv=0
PairPos2: "'kern' Horizontal Kerning in Arabic lookup 0 subtable" afii62834 dx=-70 dy=0 dh=-70 dv=0 dx=0 dy=0 dh=0 dv=0
PairPos2: "'kern' Horizontal Kerning in Arabic lookup 0 subtable" afii57450 dx=-100 dy=0 dh=-100 dv=0 dx=0 dy=0 dh=0 dv=0
PairPos2: "'kern' Horizontal Kerning in Arabic lookup 0 subtable" afii57449 dx=-100 dy=0 dh=-100 dv=0 dx=0 dy=0 dh=0 dv=0
PairPos2: "'kern' Horizontal Kerning in Arabic lookup 0 subtable" afii57410 dx=-100 dy=0 dh=-100 dv=0 dx=0 dy=0 dh=0 dv=0
PairPos2: "'kern' Horizontal Kerning in Arabic lookup 0 subtable" afii57443 dx=-60 dy=0 dh=-60 dv=0 dx=0 dy=0 dh=0 dv=0
PairPos2: "'kern' Horizontal Kerning in Arabic lookup 0 subtable" afii57434 dx=-70 dy=0 dh=-70 dv=0 dx=0 dy=0 dh=0 dv=0
PairPos2: "'kern' Horizontal Kerning in Arabic lookup 0 subtable" afii57433 dx=-70 dy=0 dh=-70 dv=0 dx=0 dy=0 dh=0 dv=0
PairPos2: "'kern' Horizontal Kerning in Arabic lookup 0 subtable" afii57414 dx=-100 dy=0 dh=-100 dv=0 dx=0 dy=0 dh=0 dv=0
PairPos2: "'kern' Horizontal Kerning in Arabic lookup 0 subtable" afii57555 dx=-100 dy=0 dh=-100 dv=0 dx=0 dy=0 dh=0 dv=0
PairPos2: "'kern' Horizontal Kerning in Arabic lookup 0 subtable" afii62965 dx=-100 dy=0 dh=-100 dv=0 dx=0 dy=0 dh=0 dv=0
PairPos2: "'kern' Horizontal Kerning in Arabic lookup 0 subtable" afii57509 dx=-100 dy=0 dh=-100 dv=0 dx=0 dy=0 dh=0 dv=0
PairPos2: "'kern' Horizontal Kerning in Arabic lookup 0 subtable" afii52305 dx=-100 dy=0 dh=-100 dv=0 dx=0 dy=0 dh=0 dv=0
PairPos2: "'kern' Horizontal Kerning in Arabic lookup 0 subtable" afii57567 dx=-100 dy=0 dh=-100 dv=0 dx=0 dy=0 dh=0 dv=0
EndChar

